<?xml version="1.0" encoding="utf-8"?>
<!-- Generator: Adobe Illustrator 22.1.0, SVG Export Plug-In . SVG Version: 6.00 Build 0)  -->
<svg version="1.1"
	 id="svg3709" inkscape:version="0.92.2 (5c3e80d, 2017-08-06)" sodipodi:docname="logof.svg" xmlns:cc="http://creativecommons.org/ns#" xmlns:dc="http://purl.org/dc/elements/1.1/" xmlns:inkscape="http://www.inkscape.org/namespaces/inkscape" xmlns:rdf="http://www.w3.org/1999/02/22-rdf-syntax-ns#" xmlns:sodipodi="http://sodipodi.sourceforge.net/DTD/sodipodi-0.dtd" xmlns:svg="http://www.w3.org/2000/svg"
	 xmlns="http://www.w3.org/2000/svg" xmlns:xlink="http://www.w3.org/1999/xlink" x="0px" y="0px" viewBox="0 0 1339.5 226.2"
	 style="enable-background:new 0 0 1339.5 226.2;" xml:space="preserve">
<style type="text/css">
	.st0{fill:#FFFFFF;}
</style>
<sodipodi:namedview  bordercolor="#666666" borderopacity="1" fit-margin-bottom="0" fit-margin-left="0" fit-margin-right="0" fit-margin-top="0" gridtolerance="10" guidetolerance="10" id="namedview3711" inkscape:current-layer="svg3709" inkscape:cx="1225.5029" inkscape:cy="150.7683" inkscape:pageopacity="0" inkscape:pageshadow="2" inkscape:window-height="1361" inkscape:window-maximized="1" inkscape:window-width="2160" inkscape:window-x="-9" inkscape:window-y="-9" inkscape:zoom="0.7163108" objecttolerance="10" pagecolor="#ffffff" showgrid="false">
	</sodipodi:namedview>
<path id="Selection" inkscape:connector-curvature="0" class="st0" d="M465.9,69.6V36.3c0.1-5.4,1.6-5.1,6.5-5.1h33.3
	c9.3,0,20.7-0.4,29.7,1.8c10.2,2.6,21.3,10.6,27.3,19.2c2.5,3.7,4.9,8.1,6.4,12.3c1.8,5.2,2.6,12.6,2.6,18.1
	c-0.2,20-13.7,38.4-32.6,44.9c-3.8,1.3-5.3,2-9.4,2.2c0.7,4.9,8.4,16.8,11.3,21.7l24.9,43.5h-7.2c-1.4,0-3.7,0.1-4.9-0.4
	c-2.7-1.2-6.4-9.1-8-11.9l-19.6-34c-2-3.3-8.6-15.8-11-17.3c-1.7-1-4.4-0.8-6.4-0.8h-21.7c-2,0-6.9-0.3-8.5,0.7
	c-1.9,1.3-1.7,3.8-1.7,5.8v27.5v30.4h-10.9C465.9,194.9,465.9,69.6,465.9,69.6z M703.4,35.3c18.5,6.1,34.5,18.1,44.6,35
	c16.9,28.3,15.6,63.8-3.7,90.5c-3.5,4.9-7.2,9.4-11.9,13.3c-6.1,5.1-13.7,10.3-21,13.3c-10.5,4.4-23.3,7.5-34.8,7.4
	c-4.7-0.1-17.7-2.5-22.5-3.8c-51.6-14.9-73-75.4-46-120.7c11-18.4,28.4-30.8,48.9-36.4c5.3-1.5,10.6-1.6,15.9-2.4
	C681.7,30.5,695.1,32.6,703.4,35.3z M795.9,147.1l36.4-78.2l13.3-28.2c4.1-8.4,2.8-9.7,10-9.4c5,0.2,6.1,5.4,7.9,9.4l13.3,28.2
	l40.7,86.2l12.8,27.5c2.2,4.8,4,6.7,5,12.3h-7.2c-6-0.1-6.4-3.6-8.7-8.7l-12.3-26.1c-1.6-3.6-5.5-13.5-8.7-15.2
	c-1.6-0.9-3.9-0.7-5.8-0.7h-76c-1.8,0-4.1-0.1-5.7,0.7c-2.6,1.5-7.4,12.7-8.8,15.9l-11.4,24.6c-0.9,1.9-3.3,7.7-4.8,8.7
	c-1.8,1.2-9.6,0.7-12,0.7L795.9,147.1L795.9,147.1z M943.9,32.4l5.1-1.2h25.3h99.2v10.9h-44.9c-3.6,0-12.5-1.1-14.5,2.3
	c-0.9,1.5-0.7,4-0.7,5.7v144.8h-10.9V77.6V53.7c0-2.2,0.4-8.3-0.7-9.9c-1.3-2-4.4-1.7-6.5-1.7h-52.1
	C943.1,42.1,943.9,32.4,943.9,32.4z M1122.8,31.2v163.7h-10.9V31.2C1111.9,31.2,1122.8,31.2,1122.8,31.2z M1165.5,167.1l45.7-98.2
	l13.1-28.2c2.4-5.4,2.9-9.9,9.9-9.4c5.1,0.4,6,5.4,7.9,9.4l13.6,29l33.7,71.7l25.2,53.6h-8c-6.3-0.1-6.1-3.5-8.5-8.7l-11.7-24.6
	c-1.6-3.7-6.2-14.9-9.4-16.6c-1.7-0.9-3.9-0.7-5.8-0.7h-76c-1.7,0-4.2-0.1-5.7,0.7c-2.8,1.6-6.6,11.8-8.2,15.2L1170,184
	c-1,2.3-3.6,8.9-5.5,10.1c-1.8,1.2-9.5,0.7-12,0.7L1165.5,167.1z M98.6,50l17.1,41.3l20,47.8l6.7,16.7l8.4,20.3l5.8,14.5h-19.6
	c-6.4-0.1-6-2.8-8.5-8.7l-6.5-16.7c-0.8-1.9-1.9-5.5-3.4-6.8c-1.6-1.4-4.2-1.2-6.2-1.2h-50c-0.8,4.2-5.8,15.7-7.6,20.3
	c-0.9,2.2-3.6,9.9-4.7,11.4c-1.5,1.9-3.6,1.7-5.7,1.7H24.8l8.5-21l13.4-31.9l25.9-62.3l18.1-43.5L98.6,50L98.6,50z M197.9,37H216
	c22,0.3,47.1,2.6,54.5,27.5c1.5,5.1,1.3,7.8,1.2,13c-0.1,6.2-2.4,12.9-5.6,18.1c-1.2,1.9-5.2,6.6-4.8,8.6c0.2,1.2,7.6,7.4,9.3,9.5
	c5.9,7.4,10.4,17.2,10.5,26.8c0.1,9.5,0,16.6-4.6,25.3c-8.4,15.6-26.2,21-42.4,23.4c-4.6,0.7-7.5,1.2-12.3,1.3h-24.6
	c-1.9,0-7.6,0.3-9-0.7c-1.4-1.1-1.2-4.1-1.2-5.8V76.8V49.3c0-3.4-0.8-8.8,1.2-11.6C191.2,36.5,194.7,37,197.9,37z M428.9,172.4
	c0,1.3,0.1,3.7-0.4,4.8c-1.3,2.8-9,5.7-11.9,7c-7.6,3.4-24.3,6.8-32.6,6.2l-12.3-1.9c-25-4.2-46.9-23-56-46.5
	c-3.3-8.5-5.1-18.4-5.4-27.5c-0.1-3.8,0.3-4,0.6-7.2C313,77.9,331,54.2,358,42.8c14.4-6.1,31.2-6.7,46.4-3.5
	c3.1,0.7,12.7,3,14.5,5.4c0.9,1.3,0.7,3.8,0.7,5.3v20.3l-7.2-4.1c-5.8-3.2-14.3-6-21-6c-6.4-0.1-12.6-0.2-18.8,1.6
	c-21.7,6.4-39.1,26.7-39.1,49.8v5.1c0,22.4,17.6,42.2,38.4,48.7c4.1,1.3,11.7,2.9,15.9,2.6c10.6-0.8,20.1-3.7,29-9.7
	c4.7-3.2,7.9-7.7,12.3-9.8V172.4z M477.2,43.8c-0.7,1.5-0.4,13.8-0.4,16.4v44.9c0,2.6-0.7,12.3,1.2,13.7c1.2,0.9,3.9,0.7,5.4,0.7
	h38.4c3.8,0,8.7-0.4,12.3-1.7c26.4-9.5,34.8-41.6,16.6-62.7c-13.4-15.6-32.3-13.1-50.7-13.1c-4.6,0-17.9-0.4-21.5,0.4
	C477.9,43,477.7,42.7,477.2,43.8z M660,44.5c-18,4.8-33.7,16.1-43.1,32.4c-5.5,9.6-6.8,15.4-8.6,26.1c-0.7,3.9-1.1,4.5-1.1,8.7
	c-0.1,7.1,0.1,5.9,1.3,12.3c1.4,8.1,2.3,12.6,5.9,20.3c8.3,18,27.1,33,46.4,37.4c7.9,1.8,15.9,2.5,23.9,1.6
	c13.1-1.4,23.1-4.6,34-12.1c32.3-22,40-68.7,16.9-100.1c-9.2-12.5-21.1-20.5-35.7-25.4c-6.8-2.3-18.2-4-25.3-3.4
	C669.2,43,665.4,43,660,44.5L660,44.5z M824.3,112.3l-6.6,14.5c-0.6,1.4-2.1,3.9-1.2,5.4c0.9,1.4,4.2,1.2,5.7,1.2h64.5
	c1.4,0,4.3,0.2,5.5-0.7c1.2-1.1,0.6-3,0-4.3l-5.3-11.6l-23.1-49.2c-1.4-2.8-6.4-14.8-8-16.2c-0.9-0.8-1.4-0.8-2.4-1.2L824.3,112.3
	L824.3,112.3z M1232,51.2l-8.1,16.9l-22.7,48.5l-5,10.9l-0.9,4.6l5.7,1.2h47.8l23.9-0.7l-7.7-17.4l-18.5-39.8L1235,50L1232,51.2
	L1232,51.2z M210.2,97.1v4.3c-0.1,1.1-0.3,2.8,0.6,3.5c1.1,1,3.3,0.2,4.5,0l10.9-3.6c7.6-3.1,17.1-8.3,22-15.1
	c4.3-6.1,5.1-16.7-0.4-22.3c-2.8-2.9-6.3-3.8-10-4.8c-4.8-1.2-9.6-1.9-14.5-1.9h-13.1C210.2,57.3,210.2,97.1,210.2,97.1z M90,89.2
	l-11.1,27.5c-2.1,5-6.9,15.4-7,20.3h38.4l-8.1-21.7L91.5,89.2H90z M226.2,169.5c5.6,0,13.6-1.1,18.8-3c4.9-1.8,10.2-4.9,13.1-9.3
	c7.8-12.1,2.3-27.7-8.7-35.7c-1.7-1.3-4.5-3.1-6.5-3.7c-4.7-1.4-10.6,2.5-15.2,4l-10.9,3.4c-1.6,0.4-4.7,0.8-5.8,2.1
	c-0.9,1.2-0.7,3.8-0.7,5.3c0,7.5,0.7,30.4-0.7,36.2C213.9,170.1,221.4,169.6,226.2,169.5L226.2,169.5z"/>
</svg>
