<?xml version="1.0" encoding="utf-8"?>
<!-- Generator: Adobe Illustrator 22.1.0, SVG Export Plug-In . SVG Version: 6.00 Build 0)  -->
<svg version="1.1" xmlns="http://www.w3.org/2000/svg" xmlns:xlink="http://www.w3.org/1999/xlink" x="0px" y="0px"
	 viewBox="0 0 673.5 83.1" style="enable-background:new 0 0 673.5 83.1;" xml:space="preserve">
<style type="text/css">
	.st0{fill:#FFFFFF;}
	.st1{fill:#FFE843;}
	.st2{fill:#FAE945;}
	.st3{fill:#F22442;}
	.st4{fill:#1D2452;}
	.st5{fill:#FFD800;}
</style>
<g id="Layer_1">
	<g>
		<path class="st5" d="M74.7,60.9c-1.9,3.4-4,6.3-6.3,8.6c-2.3,2.3-4.6,4.3-6.9,5.8c-2.3,1.6-4.5,2.7-6.6,3.6
			c-2.1,0.8-3.8,1.4-5.2,1.7c-0.8,0.1-2,0.4-3.7,0.6c-1.7,0.3-3.6,0.4-5.8,0.4c-4.8,0-9.1-0.7-12.9-1.9c-3.8-1.3-7-2.9-9.7-4.7
			c-2.7-1.8-5-3.8-6.8-5.7c-1.8-2-3.2-3.7-4.1-5.1c-0.6-0.9-1.4-2-2.1-3.3c-0.8-1.3-1.5-2.9-2.2-4.7c-0.7-1.8-1.2-3.8-1.7-6.1
			C0.2,47.8,0,45.3,0,42.6c0-5.2,0.7-9.8,2.2-13.7c1.5-4,3.3-7.4,5.4-10.3c2.1-2.9,4.3-5.2,6.5-7c2.3-1.8,4.2-3.2,5.7-4.1
			c0.8-0.5,1.8-1,3.1-1.6c1.3-0.6,2.7-1.1,4.4-1.7c1.7-0.5,3.5-1,5.6-1.4c2.1-0.4,4.3-0.5,6.9-0.5c1.2,0,2.8,0.1,4.6,0.3
			c1.8,0.2,3.9,0.6,6.1,1.2c2.2,0.6,4.5,1.5,7,2.8c2.5,1.2,5,2.9,7.5,4.9c2.4,1.9,4.4,3.9,6,6c1.6,2,2.9,4,3.9,6
			c0.9,1.8,1.7,3.7,2.4,5.6c0.2,0.7,0.4,1.3,0.6,1.8s0.4,1.2,0.5,1.7H57.1c-0.4-0.6-0.7-1.1-1-1.6c-0.3-0.5-0.5-0.9-0.8-1.2
			c-1.9-2.5-4.1-4.4-6.8-5.7C45.9,22.7,43,22,39.9,22c-2,0-3.7,0.2-5.1,0.5c-1.4,0.4-2.4,0.7-3.1,1.1c-3.7,1.7-6.6,4.1-8.8,7.4
			c-2.2,3.3-3.3,6.9-3.2,11c0,1.9,0.2,3.4,0.5,4.7c0.4,1.2,0.7,2.2,1,2.8c0.4,0.9,1,2,1.8,3.4c0.9,1.4,2.1,2.8,3.6,4.1
			c1.5,1.3,3.4,2.5,5.6,3.4c2.2,0.9,4.8,1.4,7.7,1.4c1.6,0,2.9-0.1,4-0.4c1.1-0.3,1.9-0.5,2.6-0.7c0.7-0.1,1.8-0.7,3.5-1.6
			c1.7-0.9,3.3-2.3,4.7-4.1c0.2-0.2,0.4-0.5,0.6-0.7c0.2-0.3,0.3-0.5,0.5-0.7l1.4-2.2h21.2c-0.9,2.7-1.7,4.7-2.2,6
			C75.8,58.7,75.3,59.9,74.7,60.9z"/>
		<path class="st5" d="M115.9,80.3l-15.6-24.5v24.5H81V3.8h28.4c3.6,0,7,0.3,10.1,0.8c3.1,0.5,6.2,1.9,9.2,4.2
			c0.9,0.7,1.9,1.7,3,2.9c1.1,1.2,2.1,2.7,3.1,4.4s1.8,3.7,2.4,6c0.6,2.3,1,4.9,1,7.8c0,3-0.4,5.7-1.1,8c-0.7,2.3-1.6,4.3-2.7,6
			c-1,1.7-2.2,3.1-3.4,4.2c-1.2,1.1-2.3,2-3.2,2.7c-0.8,0.6-1.6,1.1-2.5,1.5c-0.9,0.4-2.3,1-4.3,1.8l18.5,26.1H115.9z M117.3,25.1
			c-1.2-1.9-2.8-3.1-4.6-3.5c-1.8-0.4-3.8-0.6-5.9-0.6h-6.5v21h6.2c0.2-0.1,0.5-0.1,0.9-0.1c0.5,0,0.9,0,1.2-0.1
			c0.6-0.1,1.1-0.1,1.6-0.2c0.5-0.1,1-0.2,1.6-0.3c0.6-0.2,1.4-0.6,2.2-1c0.8-0.5,1.5-1.1,2.2-1.9c0.7-0.8,1.3-1.9,1.8-3.1
			c0.5-1.2,0.8-2.7,0.8-4.3c0-1-0.1-2-0.3-2.9C118.3,26.9,117.9,26,117.3,25.1z"/>
		<path class="st5" d="M210.1,67.6c-3.7,4.5-8.2,8-13.6,10.4c-5.4,2.4-11,3.6-16.8,3.6c-5.2,0-10.3-1-15.2-3.1
			c-4.9-2.1-9.3-4.9-12.9-8.6c-3.7-3.7-6.5-8-8.6-12.9c-2.1-4.9-3.1-10-3.1-15.2c0-1.2,0.1-2.7,0.3-4.5c0.2-1.9,0.6-4,1.2-6.3
			c0.6-2.3,1.6-4.8,2.9-7.4c1.3-2.6,3-5.1,5.1-7.6c1.8-2.2,3.9-4.1,6.2-5.8c2.3-1.7,4.8-3.2,7.4-4.4s5.3-2.1,8.2-2.8
			c2.8-0.6,5.7-1,8.5-1c3.2,0,6.3,0.4,9,1.1c2.8,0.7,5.3,1.6,7.5,2.6c2.2,1,4.1,2.1,5.7,3.1c1.6,1.1,2.8,2,3.7,2.7
			c4.4,3.8,7.8,8.3,10.3,13.6c2.5,5.3,3.7,10.9,3.7,16.8c0,1.2-0.1,2.7-0.3,4.5c-0.2,1.9-0.6,4-1.2,6.2c-0.7,2.3-1.6,4.7-2.9,7.3
			C213.9,62.5,212.2,65.1,210.1,67.6z M199.8,34.4c-0.8-2.1-1.9-4-3.2-5.7c-1.3-1.7-2.9-3.2-4.7-4.4c-1.8-1.2-3.7-2.2-5.8-2.8
			c-2.1-0.6-4.3-1-6.5-1c-0.6,0-1.6,0.1-2.7,0.2c-1.2,0.1-2.4,0.4-3.7,0.9c-1.3,0.4-2.8,1-4.3,1.8c-1.5,0.8-3,1.8-4.3,3.1
			c-2.1,2-3.7,4.4-4.8,7c-1.1,2.7-1.6,5.5-1.6,8.3c0,0.6,0.1,1.6,0.2,2.7c0.1,1.2,0.4,2.4,0.8,3.8c0.4,1.4,1.1,2.8,1.9,4.3
			c0.8,1.5,2,3,3.4,4.3c1.9,2,4.3,3.6,7,4.7c2.7,1.1,5.4,1.6,8.2,1.6c2.1,0,4-0.3,5.7-0.8c1.7-0.5,3.2-1.1,4.5-1.8
			c1.3-0.7,2.4-1.5,3.3-2.2c0.9-0.8,1.6-1.4,2.1-1.9c0.5-0.5,1.1-1.2,1.8-2.1c0.7-0.9,1.3-1.9,1.9-3.2c0.6-1.3,1.1-2.7,1.5-4.2
			c0.4-1.6,0.6-3.3,0.6-5.2C201.1,39.3,200.7,36.7,199.8,34.4z"/>
		<path class="st5" d="M265.9,80.3l-3.8-10.7h-25.7l-3.6,10.7h-22l30.6-76.9h15.9l31,76.9H265.9z M249,29.9l-7.6,23.7H257L249,29.9z
			"/>
		<path class="st5" d="M310.8,21.2v59.1h-19.4V21.1h-14.9V3.8h49.6v17.3H310.8z"/>
		<path class="st5" d="M329.3,80.3V3.8h19.5v76.4H329.3z"/>
		<path class="st5" d="M404.3,80.3l-3.8-10.7h-25.7l-3.6,10.7h-22L380,3.4h15.9l31,76.9H404.3z M387.4,29.9l-7.6,23.7h15.6
			L387.4,29.9z"/>
		<path class="st5" d="M449.3,80.3V66c2.6-2.4,5.1-4.7,7.5-6.9c2.4-2.2,4.7-4.4,7-6.7l6.2-6c2.1-2,3.9-3.9,5.4-5.6
			c1.5-1.7,2.7-3.3,3.7-4.8c1-1.5,1.7-2.9,2.2-4.4c0.5-1.4,0.7-2.9,0.7-4.4c0-0.4,0-0.8-0.1-1.1c0-0.3-0.1-0.6-0.2-0.9
			c-0.1-0.2-0.1-0.4-0.2-0.6c0-0.2-0.1-0.4-0.2-0.7c-0.5-1.4-1.3-2.5-2.4-3.4c-1.1-0.9-2.4-1.3-4-1.3c-1.3,0-2.5,0.4-3.5,1.1
			c-1.4,1-2.4,2.3-2.9,3.8c-0.5,1.6-0.8,3.2-0.9,4.8c-0.1,0.4-0.1,0.9-0.1,1.4c0,0.5,0,1,0,1.7L448.5,32v-3.2c0-0.7,0.1-1.5,0.2-2.3
			c0.1-0.8,0.2-1.6,0.4-2.5c0.4-1.8,0.9-3.7,1.7-5.6c0.8-1.9,1.9-3.9,3.4-5.7c0.9-1.1,1.9-2.2,3.2-3.4c1.3-1.2,2.8-2.3,4.7-3.3
			c1.8-1,4-1.8,6.4-2.5c2.4-0.7,5.2-1,8.5-1c0.6,0,1.5,0,2.7,0.1c1.1,0.1,2.4,0.2,3.8,0.5c1.4,0.3,2.9,0.7,4.5,1.2
			c1.6,0.6,3.2,1.4,4.9,2.4c0.8,0.7,1.7,1.5,2.9,2.5c1.1,1,2.2,2.3,3.2,3.8c1,1.6,1.9,3.4,2.7,5.4c0.7,2.1,1.1,4.4,1.1,7.1V27
			c0,0.3,0,0.6-0.1,0.9c0,0.3-0.1,0.6-0.2,1c-0.1,0.8-0.3,1.6-0.4,2.4c-0.1,0.8-0.4,1.7-0.8,2.7c-0.6,1.7-1.5,3.4-2.5,5.1
			c-1,1.7-2.2,3.3-3.4,4.9c-1.2,1.6-2.5,3.1-3.8,4.6c-1.3,1.5-2.7,2.9-4,4.3l-9.3,9.6h25.2v17.9H449.3z"/>
		<path class="st5" d="M575.4,68.5c-3.8,4.3-8.3,7.7-13.6,10c-5.3,2.3-10.8,3.5-16.5,3.5c-5.2,0-10.3-1-15.2-3.1
			c-4.9-2.1-9.3-4.9-12.9-8.6c-3.7-3.7-6.5-8-8.6-12.9c-2.1-4.9-3.1-10.1-3.1-15.3c0-5,0.9-9.8,2.7-14.3c1.8-4.6,4.3-8.7,7.6-12.4
			c3.8-4.2,8.2-7.4,13.4-9.7c5.2-2.3,10.6-3.5,16.2-3.5c1.2,0,2.7,0.1,4.6,0.3c1.9,0.2,4,0.6,6.3,1.3c2.3,0.7,4.8,1.7,7.4,2.9
			c2.6,1.3,5.2,3,7.7,5.1c4.4,3.8,7.8,8.3,10.3,13.6c2.5,5.3,3.7,10.9,3.7,16.8c0,4.8-0.8,9.4-2.5,14
			C581.1,60.7,578.6,64.8,575.4,68.5z M561.8,28.5c-1.4-1.7-3-3.1-4.5-4.1c-1.6-1-3.1-1.8-4.7-2.3c-1.5-0.5-2.9-0.9-4.2-1
			c-1.3-0.1-2.3-0.2-3-0.2c-3,0-6,0.6-8.8,1.9c-3.8,1.7-6.8,4.2-9.1,7.7c-2.3,3.5-3.5,7.4-3.5,11.6c0,0.7,0.1,1.6,0.2,2.7
			c0.1,1.2,0.4,2.4,0.8,3.7c0.4,1.3,1.1,2.8,1.9,4.3c0.8,1.5,2,3,3.4,4.4c2.1,2,4.4,3.6,7,4.6c2.6,1,5.3,1.6,8,1.6
			c0.6,0,1.5-0.1,2.4-0.2c1-0.1,2.1-0.3,3.3-0.7c1.2-0.3,2.5-0.8,3.9-1.5c1.4-0.7,2.7-1.6,4-2.7c1.7-1.4,3.1-2.9,4.1-4.5
			c1-1.6,1.8-3.2,2.3-4.7c0.5-1.5,0.9-2.9,1-4.2c0.1-1.3,0.2-2.3,0.2-3.1C566.7,36.9,565.1,32.4,561.8,28.5z"/>
		<path class="st5" d="M590.8,80.3V18.5h-8.8V3.8H610v76.4H590.8z"/>
		<path class="st5" d="M661.5,54.6l-16.9,25.7h-23.7l18-23.2c-2,0.1-3.7,0.2-5.1,0.1c-1.4-0.1-2.8-0.3-4.3-0.8
			c-2.7-0.7-5.2-1.9-7.3-3.7c-2.1-1.7-4-3.8-5.5-6.1c-1.5-2.3-2.7-4.8-3.5-7.5c-0.8-2.7-1.2-5.5-1.2-8.3c0-4,0.8-7.7,2.3-11.2
			c1.6-3.5,3.6-6.5,6.2-9.1c2.6-2.6,5.6-4.6,9.1-6.1c3.5-1.5,7.2-2.2,11.1-2.2c1.6,0,3.9,0.3,6.8,0.8c3,0.5,6.1,2,9.4,4.3
			c1.1,0.8,2.3,1.9,3.8,3.2c1.4,1.3,2.8,3,4.1,5c1.3,2,2.4,4.3,3.2,7c0.9,2.7,1.3,5.8,1.3,9.4c0,2.3-0.2,4.4-0.5,6.4
			c-0.4,1.9-0.9,3.8-1.6,5.6c-0.7,1.8-1.6,3.6-2.5,5.3C663.9,51,662.8,52.8,661.5,54.6z M647.8,24.1c-0.5-0.5-1.3-1.1-2.5-1.8
			c-1.2-0.7-2.7-1.1-4.5-1.1c-1.4,0-2.7,0.3-3.9,0.8c-1.2,0.5-2.3,1.3-3.2,2.2c-0.9,0.9-1.6,1.9-2.1,3.1c-0.5,1.2-0.8,2.5-0.8,3.8
			c0,1.4,0.3,2.8,0.8,4c0.5,1.2,1.3,2.3,2.2,3.1c0.9,0.9,2,1.6,3.2,2.1c1.2,0.5,2.5,0.8,3.9,0.8c2.9,0,5.3-1,7.1-2.9
			c1.9-1.9,2.8-4.3,2.8-7.1c0-0.6-0.1-1.6-0.4-3C650.1,26.7,649.2,25.4,647.8,24.1z"/>
	</g>
</g>
<g id="Layer_2">
</g>
</svg>
