<?xml version="1.0" encoding="utf-8"?>
<!-- Generator: Adobe Illustrator 22.1.0, SVG Export Plug-In . SVG Version: 6.00 Build 0)  -->
<svg version="1.1" xmlns="http://www.w3.org/2000/svg" xmlns:xlink="http://www.w3.org/1999/xlink" x="0px" y="0px"
	 viewBox="0 0 524.5 342.4" style="enable-background:new 0 0 524.5 342.4;" xml:space="preserve">
<style type="text/css">
	.st0{fill:#FFFFFF;}
	.st1{fill:#FFD12B;}
	.st2{fill:#F22442;}
	.st3{fill:#1D2452;}
	.st4{fill:#FFD800;}
</style>
<g id="Layer_1">
	<g>
		<path class="st0" d="M516.3,41.8c0,21-17.2,37.9-38.1,37.9l-26.9,0V3.9l27.1,0C499.3,3.8,516.3,20.8,516.3,41.8 M495.9,41.6
			c0-11.5-9-19.9-20.1-20l-4.5,0v40l4.5,0C486.9,61.7,495.9,53.2,495.9,41.6"/>
		<path class="st0" d="M128.4,41.6c0,22.1-18.1,40.1-40.2,40.1l-1.1,0V60.8h1.9c10.3,0,18.6-8.5,18.6-19.2
			c0-10.6-8.3-19.2-18.6-19.3l-1.9,0V1.6h1.2C110.4,1.6,128.4,19.5,128.4,41.6"/>
		<polygon class="st0" points="174.4,20.7 151.3,20.7 151.3,32.1 174.4,32.1 174.4,50 151.4,50 151.4,62.4 174.6,62.4 174.6,79.7 
			131.3,79.7 131.3,3.8 174.4,3.8 		"/>
		<polygon class="st0" points="223,20.9 198.3,20.9 198.3,33.1 222.9,33.1 222.9,50.8 198.3,50.8 198.3,79.7 179,79.7 179,3.8 
			223,3.8 		"/>
		<polygon class="st0" points="270.9,20.7 247.7,20.7 247.7,32.1 270.9,32.1 270.9,50 247.9,50 247.9,62.4 271.1,62.4 271.1,79.7 
			227.7,79.7 227.7,3.8 270.9,3.8 		"/>
		<path class="st0" d="M330.5,32.2c-0.5-1.1-1.2-1.9-1.8-2.9c-3.7-4.8-9.1-7.5-15.3-7.5c-4,0-6.8,1.1-8.2,1.7
			c-7.4,3.1-11.9,10.3-11.9,18.3c0.1,3.7,1,6.1,1.5,7.4c1.5,3.6,6.9,12.4,18.6,12.4c3.1,0,5.3-0.6,6.6-1.1c1.2-0.4,5.4-2.4,8.3-5.8
			c0.8-1,1.2-1.6,2.4-3.5h21.1c-1.6,4.9-2.6,7.1-3.8,9.4c-7.3,13.5-19.5,18.3-24.8,19.6c-1.6,0.4-5.1,1.1-9.5,1.1
			c-19.3,0-29.5-11.8-33.3-17.4c-2.5-3.5-6.6-10.5-6.6-21.4c0-20.6,13.5-31.3,19.7-34.9c3.1-1.8,10.1-5.2,19.8-5.2
			c4.9,0,15,0.9,25,9c9.4,7.6,12,16.6,13.3,21H330.5z"/>
		<polygon class="st0" points="398.3,20.9 383.1,20.9 383.1,79.7 363.9,79.7 363.9,20.8 349.1,20.8 349.1,3.8 398.3,3.8 		"/>
		<polygon class="st0" points="446.1,20.7 423,20.7 423,32.1 446.1,32.1 446.1,50 423.1,50 423.1,62.4 446.3,62.4 446.3,79.7 
			403,79.7 403,3.8 446.1,3.8 		"/>
		<polygon class="st0" points="507.6,5.6 507.6,3.8 514.6,3.8 514.6,5.6 512.2,5.6 512.2,12.1 510,12.1 510,5.6 		"/>
		<path class="st0" d="M522.4,6.3L522.4,6.3l-1.6,5.8h-1.8l-1.6-5.8l-0.1-0.4c0,0.2,0,6.2,0,6.2h-2V3.8h3l1.3,4.9
			c0.1,0.3,0.2,0.7,0.2,1.3c0,0.1,0,0.3,0,0.4c0-0.3,0-0.6,0-0.9c0-0.4,0.1-0.6,0.1-0.8l1.3-4.9h3v8.3h-2.1V6.3z"/>
	</g>
	<rect class="st1" width="83.1" height="83.1"/>
	<g>
		<path class="st0" d="M123.5,147.9c-1.9,3.4-4,6.3-6.3,8.6c-2.3,2.3-4.6,4.3-6.9,5.8c-2.3,1.6-4.5,2.7-6.6,3.6
			c-2.1,0.8-3.8,1.4-5.2,1.7c-0.8,0.1-2,0.4-3.7,0.6c-1.7,0.3-3.6,0.4-5.8,0.4c-4.8,0-9.1-0.7-12.9-1.9c-3.8-1.3-7-2.9-9.7-4.7
			c-2.7-1.8-5-3.8-6.8-5.7c-1.8-2-3.2-3.7-4.1-5.1c-0.6-0.9-1.4-2-2.1-3.3c-0.8-1.3-1.5-2.9-2.2-4.7c-0.7-1.8-1.2-3.8-1.7-6.1
			c-0.4-2.2-0.6-4.7-0.6-7.5c0-5.2,0.7-9.8,2.2-13.7c1.5-4,3.3-7.4,5.4-10.3c2.1-2.9,4.3-5.2,6.5-7c2.3-1.8,4.2-3.2,5.7-4.1
			c0.8-0.5,1.8-1,3.1-1.6c1.3-0.6,2.7-1.1,4.4-1.7c1.7-0.5,3.5-1,5.6-1.4c2.1-0.4,4.3-0.5,6.9-0.5c1.2,0,2.8,0.1,4.6,0.3
			c1.8,0.2,3.9,0.6,6.1,1.2c2.2,0.6,4.5,1.5,7,2.8c2.5,1.2,5,2.9,7.5,4.9c2.4,1.9,4.4,3.9,6,6c1.6,2,2.9,4,3.9,6
			c0.9,1.8,1.7,3.7,2.4,5.6c0.2,0.7,0.4,1.3,0.6,1.8c0.2,0.6,0.4,1.2,0.5,1.7h-21.3c-0.4-0.6-0.7-1.1-1-1.6
			c-0.3-0.5-0.5-0.9-0.8-1.2c-1.9-2.5-4.1-4.4-6.8-5.7c-2.6-1.3-5.5-1.9-8.6-1.9c-2,0-3.7,0.2-5.1,0.5c-1.4,0.4-2.4,0.7-3.1,1.1
			c-3.7,1.7-6.6,4.1-8.8,7.4c-2.2,3.3-3.3,6.9-3.2,11c0,1.9,0.2,3.4,0.5,4.7c0.4,1.2,0.7,2.2,1,2.8c0.4,0.9,1,2,1.8,3.4
			c0.9,1.4,2.1,2.8,3.6,4.1c1.5,1.3,3.4,2.5,5.6,3.4c2.2,0.9,4.8,1.4,7.7,1.4c1.6,0,2.9-0.1,4-0.4c1.1-0.3,1.9-0.5,2.6-0.7
			c0.7-0.1,1.8-0.7,3.5-1.6c1.7-0.9,3.3-2.3,4.7-4.1c0.2-0.2,0.4-0.5,0.6-0.7c0.2-0.3,0.3-0.5,0.5-0.7l1.4-2.2h21.2
			c-0.9,2.7-1.7,4.7-2.2,6C124.6,145.7,124.1,146.9,123.5,147.9z"/>
		<path class="st0" d="M164.8,167.3l-15.6-24.5v24.5h-19.4V90.8h28.4c3.6,0,7,0.3,10.1,0.8c3.1,0.5,6.2,1.9,9.2,4.2
			c0.9,0.7,1.9,1.7,3,2.9c1.1,1.2,2.1,2.7,3.1,4.4c1,1.7,1.8,3.7,2.4,6c0.6,2.3,1,4.9,1,7.8c0,3-0.4,5.7-1.1,8
			c-0.7,2.3-1.6,4.3-2.7,6c-1,1.7-2.2,3.1-3.4,4.2c-1.2,1.1-2.3,2-3.2,2.7c-0.8,0.6-1.6,1.1-2.5,1.5c-0.9,0.4-2.3,1-4.3,1.8
			l18.5,26.1H164.8z M166.2,112.1c-1.2-1.9-2.8-3.1-4.6-3.5c-1.8-0.4-3.8-0.6-5.9-0.6h-6.5v21h6.2c0.2-0.1,0.5-0.1,0.9-0.1
			c0.5,0,0.9,0,1.2-0.1c0.6-0.1,1.1-0.1,1.6-0.2c0.5-0.1,1-0.2,1.6-0.3c0.6-0.2,1.4-0.6,2.2-1c0.8-0.5,1.5-1.1,2.2-1.9
			c0.7-0.8,1.3-1.9,1.8-3.1c0.5-1.2,0.8-2.7,0.8-4.3c0-1-0.1-2-0.3-2.9C167.1,113.9,166.7,113,166.2,112.1z"/>
		<path class="st0" d="M258.9,154.6c-3.7,4.5-8.2,8-13.6,10.4c-5.4,2.4-11,3.6-16.8,3.6c-5.2,0-10.3-1-15.2-3.1
			c-4.9-2.1-9.3-4.9-12.9-8.6c-3.7-3.7-6.5-8-8.6-12.9c-2.1-4.9-3.1-10-3.1-15.2c0-1.2,0.1-2.7,0.3-4.5c0.2-1.9,0.6-4,1.2-6.3
			c0.6-2.3,1.6-4.8,2.9-7.4c1.3-2.6,3-5.1,5.1-7.6c1.8-2.2,3.9-4.1,6.2-5.8c2.3-1.7,4.8-3.2,7.4-4.4s5.3-2.1,8.2-2.8
			c2.8-0.6,5.7-1,8.5-1c3.2,0,6.3,0.4,9,1.1c2.8,0.7,5.3,1.6,7.5,2.6c2.2,1,4.1,2.1,5.7,3.1c1.6,1.1,2.8,2,3.7,2.7
			c4.4,3.8,7.8,8.3,10.3,13.6c2.5,5.3,3.7,10.9,3.7,16.8c0,1.2-0.1,2.7-0.3,4.5c-0.2,1.9-0.6,4-1.2,6.2c-0.7,2.3-1.6,4.7-2.9,7.3
			C262.7,149.5,261,152.1,258.9,154.6z M248.7,121.4c-0.8-2.1-1.9-4-3.2-5.7c-1.3-1.7-2.9-3.2-4.7-4.4c-1.8-1.2-3.7-2.2-5.8-2.8
			c-2.1-0.6-4.3-1-6.5-1c-0.6,0-1.6,0.1-2.7,0.2c-1.2,0.1-2.4,0.4-3.7,0.9c-1.3,0.4-2.8,1-4.3,1.8c-1.5,0.8-3,1.8-4.3,3.1
			c-2.1,2-3.7,4.4-4.8,7c-1.1,2.7-1.6,5.5-1.6,8.3c0,0.6,0.1,1.6,0.2,2.7c0.1,1.2,0.4,2.4,0.8,3.8c0.4,1.4,1.1,2.8,1.9,4.3
			c0.8,1.5,2,3,3.4,4.3c1.9,2,4.3,3.6,7,4.7c2.7,1.1,5.4,1.6,8.2,1.6c2.1,0,4-0.3,5.7-0.8c1.7-0.5,3.2-1.1,4.5-1.8
			c1.3-0.7,2.4-1.5,3.3-2.2c0.9-0.8,1.6-1.4,2.1-1.9c0.5-0.5,1.1-1.2,1.8-2.1c0.7-0.9,1.3-1.9,1.9-3.2c0.6-1.3,1.1-2.7,1.5-4.2
			c0.4-1.6,0.6-3.3,0.6-5.2C250,126.3,249.5,123.7,248.7,121.4z"/>
		<path class="st0" d="M314.7,167.3l-3.8-10.7h-25.7l-3.6,10.7h-22l30.6-76.9h15.9l31,76.9H314.7z M297.8,116.9l-7.6,23.7h15.6
			L297.8,116.9z"/>
		<path class="st0" d="M359.6,108.2v59.1h-19.4v-59.2h-14.9V90.8h49.6v17.3H359.6z"/>
		<path class="st0" d="M378.1,167.3V90.8h19.5v76.4H378.1z"/>
		<path class="st0" d="M453.1,167.3l-3.8-10.7h-25.7l-3.6,10.7h-22l30.6-76.9h15.9l31,76.9H453.1z M436.3,116.9l-7.6,23.7h15.6
			L436.3,116.9z"/>
	</g>
	<g>
		<path class="st0" d="M152.5,253.3V239c2.6-2.4,5.1-4.7,7.5-6.9c2.4-2.2,4.7-4.4,7-6.7l6.2-6c2.1-2,3.9-3.9,5.4-5.6
			c1.5-1.7,2.7-3.3,3.7-4.8c1-1.5,1.7-2.9,2.2-4.4c0.5-1.4,0.7-2.9,0.7-4.4c0-0.4,0-0.8-0.1-1.1c0-0.3-0.1-0.6-0.2-0.9
			c-0.1-0.2-0.1-0.4-0.2-0.6c0-0.2-0.1-0.4-0.2-0.7c-0.5-1.4-1.3-2.5-2.4-3.4c-1.1-0.9-2.4-1.3-4-1.3c-1.3,0-2.5,0.4-3.5,1.1
			c-1.4,1-2.4,2.3-2.9,3.8c-0.5,1.6-0.8,3.2-0.9,4.8c-0.1,0.4-0.1,0.9-0.1,1.4c0,0.5,0,1,0,1.7l-19.1-0.1v-3.2
			c0-0.7,0.1-1.5,0.2-2.3c0.1-0.8,0.2-1.6,0.4-2.5c0.4-1.8,0.9-3.7,1.7-5.6c0.8-1.9,1.9-3.9,3.4-5.7c0.9-1.1,1.9-2.2,3.2-3.4
			c1.3-1.2,2.8-2.3,4.7-3.3c1.8-1,4-1.8,6.4-2.5c2.4-0.7,5.2-1,8.5-1c0.6,0,1.5,0,2.7,0.1c1.1,0.1,2.4,0.2,3.8,0.5
			c1.4,0.3,2.9,0.7,4.5,1.2c1.6,0.6,3.2,1.4,4.9,2.4c0.8,0.7,1.7,1.5,2.9,2.5c1.1,1,2.2,2.3,3.2,3.8c1,1.6,1.9,3.4,2.7,5.4
			c0.7,2.1,1.1,4.4,1.1,7.1v1.5c0,0.3,0,0.6-0.1,0.9c0,0.3-0.1,0.6-0.2,1c-0.1,0.8-0.3,1.6-0.4,2.4c-0.1,0.8-0.4,1.7-0.8,2.7
			c-0.6,1.7-1.5,3.4-2.5,5.1c-1,1.7-2.2,3.3-3.4,4.9c-1.2,1.6-2.5,3.1-3.8,4.6c-1.3,1.5-2.7,2.9-4,4.3l-9.3,9.6h25.2v17.9H152.5z"/>
		<path class="st0" d="M278.6,241.5c-3.8,4.3-8.3,7.7-13.6,10c-5.3,2.3-10.8,3.5-16.5,3.5c-5.2,0-10.3-1-15.2-3.1
			c-4.9-2.1-9.3-4.9-12.9-8.6c-3.7-3.7-6.5-8-8.6-12.9c-2.1-4.9-3.1-10.1-3.1-15.3c0-5,0.9-9.8,2.7-14.3c1.8-4.6,4.3-8.7,7.6-12.4
			c3.8-4.2,8.2-7.4,13.4-9.7c5.2-2.3,10.6-3.5,16.2-3.5c1.2,0,2.7,0.1,4.6,0.3c1.9,0.2,4,0.6,6.3,1.3c2.3,0.7,4.8,1.7,7.4,2.9
			c2.6,1.3,5.2,3,7.7,5.1c4.4,3.8,7.8,8.3,10.3,13.6c2.5,5.3,3.7,10.9,3.7,16.8c0,4.8-0.8,9.4-2.5,14
			C284.3,233.7,281.8,237.8,278.6,241.5z M265.1,201.5c-1.4-1.7-3-3.1-4.5-4.1c-1.6-1-3.1-1.8-4.7-2.3c-1.5-0.5-2.9-0.9-4.2-1
			c-1.3-0.1-2.3-0.2-3-0.2c-3,0-6,0.6-8.8,1.9c-3.8,1.7-6.8,4.2-9.1,7.7c-2.3,3.5-3.5,7.4-3.5,11.6c0,0.7,0.1,1.6,0.2,2.7
			c0.1,1.2,0.4,2.4,0.8,3.7c0.4,1.3,1.1,2.8,1.9,4.3c0.8,1.5,2,3,3.4,4.4c2.1,2,4.4,3.6,7,4.6c2.6,1,5.3,1.6,8,1.6
			c0.6,0,1.5-0.1,2.4-0.2c1-0.1,2.1-0.3,3.3-0.7c1.2-0.3,2.5-0.8,3.9-1.5c1.4-0.7,2.7-1.6,4-2.7c1.7-1.4,3.1-2.9,4.1-4.5
			c1-1.6,1.8-3.2,2.3-4.7c0.5-1.5,0.9-2.9,1-4.2c0.1-1.3,0.2-2.3,0.2-3.1C269.9,209.9,268.3,205.4,265.1,201.5z"/>
		<path class="st0" d="M294.1,253.3v-61.8h-8.8v-14.6h27.9v76.4H294.1z"/>
		<path class="st0" d="M364.8,227.6l-16.9,25.7h-23.7l18-23.2c-2,0.1-3.7,0.2-5.1,0.1c-1.4-0.1-2.8-0.3-4.3-0.8
			c-2.7-0.7-5.2-1.9-7.3-3.7c-2.1-1.7-4-3.8-5.5-6.1c-1.5-2.3-2.7-4.8-3.5-7.5c-0.8-2.7-1.2-5.5-1.2-8.3c0-4,0.8-7.7,2.3-11.2
			c1.6-3.5,3.6-6.5,6.2-9.1c2.6-2.6,5.6-4.6,9.1-6.1c3.5-1.5,7.2-2.2,11.1-2.2c1.6,0,3.9,0.3,6.8,0.8c3,0.5,6.1,2,9.4,4.3
			c1.1,0.8,2.3,1.9,3.8,3.2c1.4,1.3,2.8,3,4.1,5c1.3,2,2.4,4.3,3.2,7c0.9,2.7,1.3,5.8,1.3,9.4c0,2.3-0.2,4.4-0.5,6.4
			c-0.4,1.9-0.9,3.8-1.6,5.6c-0.7,1.8-1.6,3.6-2.5,5.3C367.1,224,366,225.8,364.8,227.6z M351,197.1c-0.5-0.5-1.3-1.1-2.5-1.8
			c-1.2-0.7-2.7-1.1-4.5-1.1c-1.4,0-2.7,0.3-3.9,0.8c-1.2,0.5-2.3,1.3-3.2,2.2c-0.9,0.9-1.6,1.9-2.1,3.1c-0.5,1.2-0.8,2.5-0.8,3.8
			c0,1.4,0.3,2.8,0.8,4c0.5,1.2,1.3,2.3,2.2,3.1c0.9,0.9,2,1.6,3.2,2.1c1.2,0.5,2.5,0.8,3.9,0.8c2.9,0,5.3-1,7.1-2.9
			c1.9-1.9,2.8-4.3,2.8-7.1c0-0.6-0.1-1.6-0.4-3C353.3,199.7,352.5,198.4,351,197.1z"/>
	</g>
	<g>
		<path class="st1" d="M65.8,292.4v19.8h-6.5v-19.9h-5v-5.8h16.6v5.8H65.8z"/>
		<path class="st1" d="M86.4,312.3v-9.7h-7.8v9.7H72v-25.6h6.6v9.7h7.8v-9.7h6.5v25.6H86.4z"/>
		<path class="st1" d="M94,312.3v-25.6h14.6v5.7h-7.8v3.8h7.8v6.1h-7.8v4.1h7.8v5.9H94z"/>
		<path class="st1" d="M138.2,307.7c-1.3,1.6-2.9,2.8-4.7,3.7c-1.8,0.9-3.8,1.3-5.8,1.3c-0.4,0-0.9,0-1.5-0.1
			c-0.6-0.1-1.2-0.2-2-0.4c-0.7-0.2-1.5-0.5-2.3-0.9c-0.8-0.4-1.6-0.9-2.4-1.5c-0.4-0.3-0.9-0.8-1.5-1.4c-0.6-0.6-1.1-1.3-1.7-2.2
			c-0.5-0.9-1-1.9-1.3-3c-0.4-1.1-0.5-2.4-0.5-3.8c0-1.5,0.2-2.9,0.6-4.1c0.4-1.2,0.9-2.2,1.5-3.1c0.6-0.9,1.2-1.6,1.8-2.2
			c0.6-0.6,1.2-1,1.6-1.4c2.3-1.7,4.9-2.6,7.8-2.6c1.6,0,3,0.2,4.2,0.6c1.2,0.4,2.3,0.9,3.2,1.5c0.9,0.6,1.7,1.2,2.3,1.9
			c0.6,0.7,1,1.2,1.4,1.7c0.1,0.2,0.3,0.4,0.4,0.6c0.1,0.2,0.2,0.4,0.4,0.7s0.2,0.5,0.4,0.9c0.1,0.3,0.3,0.7,0.5,1.2h-7.4l-0.3-0.4
			l-0.1-0.1l-0.1-0.1l-0.3-0.3c-0.6-0.6-1.3-1-2.1-1.2c-0.8-0.2-1.5-0.4-2.3-0.4c-0.3,0-0.6,0-1.1,0.1c-0.5,0-1,0.2-1.6,0.5
			c-0.6,0.3-1.2,0.6-1.7,1c-0.5,0.4-0.9,0.9-1.3,1.5c-0.4,0.5-0.6,1.1-0.8,1.8c-0.2,0.7-0.3,1.3-0.3,2c0,0.5,0.1,1.1,0.2,1.8
			c0.2,0.7,0.6,1.5,1.3,2.4c0.1,0.2,0.4,0.4,0.7,0.7c0.3,0.3,0.7,0.6,1.1,0.8c0.4,0.3,1,0.5,1.5,0.7s1.2,0.3,1.9,0.3
			c0.6,0,1.2-0.1,1.7-0.2s1-0.3,1.3-0.5c0.4-0.2,0.7-0.4,1-0.6c0.3-0.2,0.5-0.4,0.6-0.5c0.1-0.1,0.2-0.2,0.3-0.4
			c0.1-0.1,0.2-0.4,0.4-0.7h-7.1v-5.4h15.1c0,1-0.1,1.9-0.2,2.8c-0.1,0.9-0.3,1.7-0.5,2.5c-0.2,0.8-0.5,1.6-0.9,2.3
			C139.2,306.2,138.8,307,138.2,307.7z"/>
		<path class="st1" d="M156.8,312.3l-1.3-3.6h-8.6l-1.2,3.6h-7.4l10.3-25.8h5.3l10.4,25.8H156.8z M151.1,295.4l-2.5,8h5.2
			L151.1,295.4z"/>
		<path class="st1" d="M176.2,312.3l-5.2-8.2v8.2h-6.5v-25.6h9.5c1.2,0,2.3,0.1,3.4,0.3c1,0.2,2.1,0.6,3.1,1.4c0.3,0.2,0.7,0.6,1,1
			c0.4,0.4,0.7,0.9,1,1.5c0.3,0.6,0.6,1.3,0.8,2c0.2,0.8,0.3,1.6,0.3,2.6c0,1-0.1,1.9-0.4,2.7c-0.2,0.8-0.5,1.4-0.9,2
			c-0.4,0.6-0.7,1-1.1,1.4c-0.4,0.4-0.8,0.7-1.1,0.9c-0.3,0.2-0.5,0.4-0.8,0.5c-0.3,0.1-0.8,0.4-1.5,0.6l6.2,8.8H176.2z
			 M176.7,293.7c-0.4-0.7-0.9-1-1.5-1.2c-0.6-0.1-1.3-0.2-2-0.2H171v7h2.1c0.1,0,0.2,0,0.3,0c0.2,0,0.3,0,0.4,0c0.2,0,0.4,0,0.5-0.1
			c0.2,0,0.4-0.1,0.5-0.1c0.2-0.1,0.5-0.2,0.7-0.3c0.3-0.2,0.5-0.4,0.7-0.7c0.2-0.3,0.4-0.6,0.6-1c0.2-0.4,0.3-0.9,0.3-1.5
			c0-0.3,0-0.7-0.1-1C177,294.4,176.9,294.1,176.7,293.7z"/>
		<path class="st1" d="M194.4,312.3h-9.9v-25.6h10c1.8,0,3.5,0.3,5,1c1.6,0.7,2.9,1.6,4.1,2.7c1.2,1.2,2.1,2.5,2.7,4.1
			c0.7,1.6,1,3.2,1,5c0,1.8-0.3,3.5-1,5c-0.7,1.5-1.6,2.9-2.8,4.1c-1.2,1.2-2.5,2.1-4.1,2.7C197.8,311.9,196.1,312.3,194.4,312.3z
			 M194,292.4h-3v13.9h3c0.9,0,1.8-0.2,2.6-0.5c0.8-0.4,1.5-0.9,2.1-1.5c0.6-0.6,1.1-1.4,1.4-2.2c0.4-0.8,0.5-1.7,0.5-2.7
			c0-0.9-0.2-1.8-0.5-2.7c-0.4-0.8-0.8-1.6-1.4-2.2c-0.6-0.6-1.3-1.1-2.1-1.5S194.9,292.4,194,292.4z"/>
		<path class="st1" d="M208,312.3v-25.6h14.6v5.7h-7.8v3.8h7.8v6.1h-7.8v4.1h7.8v5.9H208z"/>
		<path class="st1" d="M239.8,312.3l-9.6-14v14h-6.4v-25.6h5.7c1.1,1.6,2.3,3.2,3.3,4.7c1.1,1.5,2.2,3.1,3.3,4.8l3,4.6v-14.1h6.5
			v25.6H239.8z"/>
		<path class="st1" d="M264.9,312.3l-5.2-8.2v8.2h-6.5v-25.6h9.5c1.2,0,2.3,0.1,3.4,0.3c1,0.2,2.1,0.6,3.1,1.4c0.3,0.2,0.7,0.6,1,1
			s0.7,0.9,1,1.5c0.3,0.6,0.6,1.3,0.8,2c0.2,0.8,0.3,1.6,0.3,2.6c0,1-0.1,1.9-0.4,2.7c-0.2,0.8-0.5,1.4-0.9,2
			c-0.4,0.6-0.7,1-1.1,1.4s-0.8,0.7-1.1,0.9c-0.3,0.2-0.5,0.4-0.8,0.5c-0.3,0.1-0.8,0.4-1.5,0.6l6.2,8.8H264.9z M265.4,293.7
			c-0.4-0.7-0.9-1-1.5-1.2c-0.6-0.1-1.3-0.2-2-0.2h-2.2v7h2.1c0.1,0,0.2,0,0.3,0c0.2,0,0.3,0,0.4,0c0.2,0,0.4,0,0.5-0.1
			c0.2,0,0.4-0.1,0.5-0.1c0.2-0.1,0.5-0.2,0.7-0.3c0.3-0.2,0.5-0.4,0.7-0.7c0.2-0.3,0.4-0.6,0.6-1c0.2-0.4,0.3-0.9,0.3-1.5
			c0-0.3,0-0.7-0.1-1C265.7,294.4,265.6,294.1,265.4,293.7z"/>
		<path class="st1" d="M273.1,312.3v-25.6h14.6v5.7h-7.8v3.8h7.8v6.1h-7.8v4.1h7.8v5.9H273.1z"/>
		<path class="st1" d="M302.7,311c-0.6,0.4-1.1,0.8-1.7,1c-0.5,0.2-1.1,0.4-1.5,0.5c-0.5,0.1-0.9,0.2-1.3,0.2c-0.4,0-0.7,0-1,0
			c-1.3,0-2.4-0.2-3.3-0.5c-0.9-0.3-1.7-0.8-2.4-1.3c-0.6-0.5-1.2-1-1.5-1.6c-0.4-0.6-0.7-1.1-0.8-1.6c-0.2-0.6-0.4-1.3-0.4-1.9
			s-0.1-1.3-0.1-2.1h6.2c0,0.6,0.1,1.2,0.2,1.8c0.1,0.5,0.4,1,1,1.3c0.1,0.1,0.3,0.1,0.5,0.2c0.2,0.1,0.4,0.1,0.8,0.1
			c0.7,0,1.2-0.2,1.6-0.6c0.4-0.4,0.6-0.9,0.6-1.6c0-0.8-0.2-1.4-0.7-1.8c-0.5-0.4-1-0.8-1.6-1.1l-1.2-0.5c-0.5-0.2-1-0.4-1.4-0.6
			c-0.4-0.2-0.9-0.4-1.4-0.7c-0.3-0.2-0.7-0.4-1.1-0.7c-0.5-0.3-0.9-0.8-1.4-1.3s-0.8-1.2-1.1-2c-0.3-0.8-0.5-1.7-0.5-2.7
			c0-0.3,0-0.6,0.1-1c0-0.4,0.1-0.8,0.3-1.3c0.2-0.5,0.4-1,0.7-1.5s0.7-1,1.3-1.5c0.6-0.6,1.2-1,1.8-1.3c0.6-0.3,1.2-0.6,1.8-0.7
			c0.6-0.2,1.1-0.3,1.6-0.3c0.5,0,0.9-0.1,1.1-0.1c0.3,0,0.7,0,1.2,0.1c0.5,0,1.1,0.2,1.7,0.4c0.8,0.3,1.4,0.6,2,1
			c0.6,0.4,1,0.8,1.4,1.2c0.4,0.4,0.7,0.9,0.9,1.3c0.2,0.4,0.4,0.8,0.5,1.1c0,0.1,0.1,0.3,0.1,0.4c0,0.1,0.1,0.2,0.1,0.4
			c0,0.1,0.1,0.2,0.1,0.4c0,0.1,0,0.3,0.1,0.4c0,0.3,0.1,0.5,0.1,0.7c0,0.2,0,0.5,0.1,0.9h-6.1c0-0.3,0-0.6,0-0.7
			c0-0.1,0-0.3-0.1-0.4c-0.1-0.4-0.4-0.8-0.7-1c-0.4-0.2-0.8-0.4-1.2-0.4c-0.6,0-1.1,0.2-1.5,0.5c-0.4,0.4-0.5,0.9-0.5,1.5
			c0,0.3,0,0.5,0.1,0.7c0.1,0.2,0.2,0.3,0.2,0.4c0.3,0.4,0.7,0.7,1.2,1c0.3,0.1,0.6,0.3,0.9,0.4c0.3,0.1,0.7,0.3,1.2,0.5
			c1.1,0.5,2,1,2.7,1.4s1.2,0.8,1.5,1.1c0.2,0.1,0.4,0.3,0.5,0.5c0.2,0.2,0.4,0.4,0.7,0.8c0.6,0.8,1,1.6,1.1,2.3
			c0.1,0.7,0.2,1.3,0.2,1.7c0,0.4,0,0.8-0.1,1.4c-0.1,0.5-0.2,1.1-0.4,1.7c-0.2,0.6-0.6,1.2-1,1.8C304,309.8,303.4,310.4,302.7,311z
			"/>
		<path class="st1" d="M330,308c-1.2,1.5-2.8,2.7-4.6,3.5c-1.8,0.8-3.7,1.2-5.6,1.2c-1.7,0-3.4-0.3-5.1-1c-1.7-0.7-3.1-1.7-4.3-2.9
			c-1.2-1.2-2.2-2.7-2.9-4.3c-0.7-1.7-1-3.4-1-5.1c0-0.4,0-0.9,0.1-1.5c0.1-0.6,0.2-1.3,0.4-2.1c0.2-0.8,0.5-1.6,1-2.5
			c0.4-0.9,1-1.7,1.7-2.6c0.6-0.7,1.3-1.4,2.1-2c0.8-0.6,1.6-1.1,2.5-1.5c0.9-0.4,1.8-0.7,2.7-0.9c1-0.2,1.9-0.3,2.9-0.3
			c1.1,0,2.1,0.1,3,0.4c0.9,0.2,1.8,0.5,2.5,0.9c0.7,0.3,1.4,0.7,1.9,1.1c0.5,0.4,0.9,0.7,1.2,0.9c1.5,1.3,2.6,2.8,3.4,4.6
			c0.8,1.8,1.2,3.7,1.2,5.6c0,0.4,0,0.9-0.1,1.5c-0.1,0.6-0.2,1.3-0.4,2.1c-0.2,0.8-0.5,1.6-1,2.4C331.2,306.3,330.7,307.2,330,308z
			 M326.5,296.9c-0.3-0.7-0.6-1.3-1.1-1.9c-0.4-0.6-1-1.1-1.6-1.5c-0.6-0.4-1.2-0.7-1.9-0.9c-0.7-0.2-1.4-0.3-2.2-0.3
			c-0.2,0-0.5,0-0.9,0.1c-0.4,0-0.8,0.1-1.3,0.3c-0.4,0.1-0.9,0.4-1.4,0.6c-0.5,0.3-1,0.6-1.5,1.1c-0.7,0.7-1.2,1.5-1.6,2.4
			c-0.4,0.9-0.5,1.8-0.5,2.8c0,0.2,0,0.5,0.1,0.9c0,0.4,0.1,0.8,0.3,1.3c0.1,0.5,0.4,0.9,0.6,1.5c0.3,0.5,0.7,1,1.1,1.5
			c0.7,0.7,1.4,1.2,2.3,1.6c0.9,0.4,1.8,0.5,2.7,0.5c0.7,0,1.3-0.1,1.9-0.3c0.6-0.2,1.1-0.4,1.5-0.6c0.4-0.2,0.8-0.5,1.1-0.7
			c0.3-0.3,0.5-0.5,0.7-0.6c0.2-0.2,0.4-0.4,0.6-0.7c0.2-0.3,0.4-0.6,0.6-1.1c0.2-0.4,0.4-0.9,0.5-1.4c0.1-0.5,0.2-1.1,0.2-1.8
			C327,298.5,326.8,297.7,326.5,296.9z"/>
		<path class="st1" d="M345.6,312.3l-5.2-8.2v8.2h-6.5v-25.6h9.5c1.2,0,2.3,0.1,3.4,0.3c1,0.2,2.1,0.6,3.1,1.4c0.3,0.2,0.7,0.6,1,1
			c0.4,0.4,0.7,0.9,1,1.5c0.3,0.6,0.6,1.3,0.8,2c0.2,0.8,0.3,1.6,0.3,2.6c0,1-0.1,1.9-0.4,2.7c-0.2,0.8-0.5,1.4-0.9,2
			c-0.4,0.6-0.7,1-1.1,1.4c-0.4,0.4-0.8,0.7-1.1,0.9c-0.3,0.2-0.5,0.4-0.8,0.5c-0.3,0.1-0.8,0.4-1.5,0.6l6.2,8.8H345.6z
			 M346.1,293.7c-0.4-0.7-0.9-1-1.5-1.2c-0.6-0.1-1.3-0.2-2-0.2h-2.2v7h2.1c0.1,0,0.2,0,0.3,0c0.2,0,0.3,0,0.4,0
			c0.2,0,0.4,0,0.5-0.1c0.2,0,0.4-0.1,0.5-0.1c0.2-0.1,0.5-0.2,0.7-0.3c0.3-0.2,0.5-0.4,0.7-0.7c0.2-0.3,0.4-0.6,0.6-1
			c0.2-0.4,0.3-0.9,0.3-1.5c0-0.3,0-0.7-0.1-1C346.4,294.4,346.2,294.1,346.1,293.7z"/>
		<path class="st1" d="M364.8,292.4v19.8h-6.5v-19.9h-5v-5.8h16.6v5.8H364.8z"/>
		<path class="st1" d="M372.2,310.7c-0.4,0.5-0.9,0.8-1.4,1.1c-0.5,0.2-1.1,0.3-1.8,0.4h-0.7h-1.1v-3c1.1,0,1.8-0.2,2.1-0.6
			c0.3-0.4,0.4-1.2,0.4-2.2h-2.4v-6.1h6v6.5c0,0.7-0.1,1.4-0.2,2.1C373.1,309.5,372.7,310.1,372.2,310.7z"/>
		<path class="st1" d="M389.2,292.4v19.8h-6.5v-19.9h-5v-5.8h16.6v5.8H389.2z"/>
		<path class="st1" d="M395.4,312.3v-25.6h6.5v25.6H395.4z"/>
		<path class="st1" d="M416.9,311c-0.6,0.4-1.1,0.8-1.7,1c-0.5,0.2-1.1,0.4-1.5,0.5c-0.5,0.1-0.9,0.2-1.3,0.2c-0.4,0-0.7,0-1,0
			c-1.3,0-2.4-0.2-3.3-0.5c-0.9-0.3-1.7-0.8-2.4-1.3c-0.6-0.5-1.2-1-1.5-1.6c-0.4-0.6-0.7-1.1-0.8-1.6c-0.2-0.6-0.4-1.3-0.4-1.9
			c-0.1-0.6-0.1-1.3-0.1-2.1h6.2c0,0.6,0.1,1.2,0.2,1.8c0.1,0.5,0.4,1,1,1.3c0.1,0.1,0.3,0.1,0.5,0.2c0.2,0.1,0.4,0.1,0.8,0.1
			c0.7,0,1.2-0.2,1.6-0.6c0.4-0.4,0.6-0.9,0.6-1.6c0-0.8-0.2-1.4-0.7-1.8c-0.5-0.4-1-0.8-1.6-1.1l-1.2-0.5c-0.5-0.2-1-0.4-1.4-0.6
			c-0.4-0.2-0.9-0.4-1.4-0.7c-0.3-0.2-0.7-0.4-1.1-0.7c-0.5-0.3-0.9-0.8-1.4-1.3s-0.8-1.2-1.1-2c-0.3-0.8-0.5-1.7-0.5-2.7
			c0-0.3,0-0.6,0.1-1c0-0.4,0.1-0.8,0.3-1.3c0.2-0.5,0.4-1,0.7-1.5s0.7-1,1.3-1.5c0.6-0.6,1.2-1,1.8-1.3c0.6-0.3,1.2-0.6,1.8-0.7
			c0.6-0.2,1.1-0.3,1.6-0.3c0.5,0,0.9-0.1,1.1-0.1c0.3,0,0.7,0,1.2,0.1c0.5,0,1.1,0.2,1.7,0.4c0.8,0.3,1.4,0.6,2,1
			c0.6,0.4,1,0.8,1.4,1.2c0.4,0.4,0.7,0.9,0.9,1.3c0.2,0.4,0.4,0.8,0.5,1.1c0,0.1,0.1,0.3,0.1,0.4c0,0.1,0.1,0.2,0.1,0.4
			c0,0.1,0.1,0.2,0.1,0.4c0,0.1,0,0.3,0.1,0.4c0,0.3,0.1,0.5,0.1,0.7c0,0.2,0,0.5,0.1,0.9H414c0-0.3,0-0.6,0-0.7
			c0-0.1,0-0.3-0.1-0.4c-0.1-0.4-0.4-0.8-0.7-1c-0.4-0.2-0.8-0.4-1.2-0.4c-0.6,0-1.1,0.2-1.5,0.5c-0.4,0.4-0.5,0.9-0.5,1.5
			c0,0.3,0,0.5,0.1,0.7c0.1,0.2,0.2,0.3,0.2,0.4c0.3,0.4,0.7,0.7,1.2,1c0.3,0.1,0.6,0.3,0.9,0.4c0.3,0.1,0.7,0.3,1.2,0.5
			c1.1,0.5,2,1,2.7,1.4s1.2,0.8,1.5,1.1c0.2,0.1,0.4,0.3,0.5,0.5c0.2,0.2,0.4,0.4,0.7,0.8c0.6,0.8,1,1.6,1.1,2.3
			c0.1,0.7,0.2,1.3,0.2,1.7c0,0.4,0,0.8-0.1,1.4c-0.1,0.5-0.2,1.1-0.4,1.7c-0.2,0.6-0.6,1.2-1,1.8
			C418.3,309.8,417.6,310.4,416.9,311z"/>
		<path class="st1" d="M437,312.3l-9.6-14v14H421v-25.6h5.7c1.1,1.6,2.3,3.2,3.3,4.7c1.1,1.5,2.2,3.1,3.3,4.8l3,4.6v-14.1h6.5v25.6
			H437z"/>
		<path class="st1" d="M467.1,308c-1.2,1.5-2.8,2.7-4.6,3.5c-1.8,0.8-3.7,1.2-5.6,1.2c-1.7,0-3.4-0.3-5.1-1
			c-1.7-0.7-3.1-1.7-4.3-2.9c-1.2-1.2-2.2-2.7-2.9-4.3c-0.7-1.7-1-3.4-1-5.1c0-0.4,0-0.9,0.1-1.5c0.1-0.6,0.2-1.3,0.4-2.1
			c0.2-0.8,0.5-1.6,1-2.5c0.4-0.9,1-1.7,1.7-2.6c0.6-0.7,1.3-1.4,2.1-2c0.8-0.6,1.6-1.1,2.5-1.5c0.9-0.4,1.8-0.7,2.7-0.9
			c1-0.2,1.9-0.3,2.9-0.3c1.1,0,2.1,0.1,3,0.4c0.9,0.2,1.8,0.5,2.5,0.9c0.7,0.3,1.4,0.7,1.9,1.1c0.5,0.4,0.9,0.7,1.2,0.9
			c1.5,1.3,2.6,2.8,3.4,4.6c0.8,1.8,1.2,3.7,1.2,5.6c0,0.4,0,0.9-0.1,1.5c-0.1,0.6-0.2,1.3-0.4,2.1c-0.2,0.8-0.5,1.6-1,2.4
			C468.3,306.3,467.8,307.2,467.1,308z M463.6,296.9c-0.3-0.7-0.6-1.3-1.1-1.9c-0.4-0.6-1-1.1-1.6-1.5c-0.6-0.4-1.2-0.7-1.9-0.9
			c-0.7-0.2-1.4-0.3-2.2-0.3c-0.2,0-0.5,0-0.9,0.1c-0.4,0-0.8,0.1-1.3,0.3c-0.4,0.1-0.9,0.4-1.4,0.6c-0.5,0.3-1,0.6-1.5,1.1
			c-0.7,0.7-1.2,1.5-1.6,2.4c-0.4,0.9-0.5,1.8-0.5,2.8c0,0.2,0,0.5,0.1,0.9c0,0.4,0.1,0.8,0.3,1.3c0.1,0.5,0.4,0.9,0.6,1.5
			c0.3,0.5,0.7,1,1.1,1.5c0.7,0.7,1.4,1.2,2.3,1.6c0.9,0.4,1.8,0.5,2.7,0.5c0.7,0,1.3-0.1,1.9-0.3c0.6-0.2,1.1-0.4,1.5-0.6
			c0.4-0.2,0.8-0.5,1.1-0.7c0.3-0.3,0.5-0.5,0.7-0.6c0.2-0.2,0.4-0.4,0.6-0.7c0.2-0.3,0.4-0.6,0.6-1.1c0.2-0.4,0.4-0.9,0.5-1.4
			c0.1-0.5,0.2-1.1,0.2-1.8C464,298.5,463.9,297.7,463.6,296.9z"/>
		<path class="st1" d="M129.3,337.9c-1.3,1.5-2.8,2.6-4.6,3.4c-1.8,0.8-3.6,1.2-5.5,1.2c-1.7,0-3.4-0.3-5.1-1
			c-1.7-0.7-3.1-1.7-4.3-2.9c-1.2-1.2-2.2-2.7-2.9-4.3c-0.7-1.7-1-3.4-1-5.1c0-1.7,0.3-3.3,0.9-4.8c0.6-1.5,1.5-2.9,2.5-4.2
			c1.3-1.4,2.8-2.5,4.5-3.3c1.7-0.8,3.6-1.2,5.4-1.2c0.4,0,0.9,0,1.5,0.1c0.6,0.1,1.3,0.2,2.1,0.4c0.8,0.2,1.6,0.6,2.5,1
			c0.9,0.4,1.7,1,2.6,1.7c1.5,1.3,2.6,2.8,3.4,4.6c0.8,1.8,1.2,3.7,1.2,5.6c0,1.6-0.3,3.2-0.9,4.7
			C131.2,335.2,130.4,336.6,129.3,337.9z M124.7,324.5c-0.5-0.6-1-1-1.5-1.4c-0.5-0.3-1.1-0.6-1.6-0.8c-0.5-0.2-1-0.3-1.4-0.3
			c-0.4,0-0.8-0.1-1-0.1c-1,0-2,0.2-2.9,0.7c-1.3,0.6-2.3,1.4-3.1,2.6c-0.8,1.2-1.2,2.5-1.2,3.9c0,0.2,0,0.5,0.1,0.9
			c0,0.4,0.1,0.8,0.3,1.3c0.1,0.4,0.4,0.9,0.6,1.4c0.3,0.5,0.7,1,1.1,1.5c0.7,0.7,1.5,1.2,2.4,1.5c0.9,0.4,1.8,0.5,2.7,0.5
			c0.2,0,0.5,0,0.8-0.1c0.3,0,0.7-0.1,1.1-0.2c0.4-0.1,0.8-0.3,1.3-0.5c0.5-0.2,0.9-0.5,1.3-0.9c0.6-0.5,1-1,1.4-1.5
			c0.3-0.5,0.6-1.1,0.8-1.6c0.2-0.5,0.3-1,0.3-1.4c0-0.4,0.1-0.8,0.1-1C126.4,327.3,125.8,325.8,124.7,324.5z"/>
		<path class="st1" d="M148.1,340.8c-0.5,0.3-1.2,0.7-2.2,1.1c-1,0.4-2.2,0.5-3.6,0.5c-0.3,0-0.8,0-1.5-0.1
			c-0.7-0.1-1.4-0.2-2.3-0.5c-0.8-0.3-1.5-0.7-2.2-1.2c-0.7-0.5-1.3-1.1-1.8-1.7c-0.5-0.7-0.9-1.4-1.2-2.2c-0.3-0.8-0.4-1.6-0.4-2.5
			c0-0.8,0.1-1.6,0.3-2.2c0.2-0.6,0.5-1.2,0.8-1.7c0.3-0.5,0.6-0.9,1-1.2c0.3-0.3,0.6-0.5,0.8-0.7l0.9-0.6c-0.4-0.3-0.8-0.6-1-0.9
			s-0.5-0.5-0.6-0.7c-0.3-0.4-0.5-0.8-0.6-1.3c-0.2-0.5-0.3-1.2-0.3-1.9c0-0.8,0.1-1.4,0.3-1.9c0.2-0.5,0.3-0.9,0.5-1.1
			c0.2-0.4,0.5-0.8,0.9-1.3c0.4-0.5,0.9-1,1.5-1.4c0.6-0.4,1.4-0.8,2.2-1.1c0.9-0.3,1.9-0.5,3-0.5c0.2,0,0.5,0,0.8,0
			c0.3,0,0.7,0.1,1.1,0.2c0.4,0.1,0.9,0.2,1.4,0.4c0.5,0.2,1,0.5,1.5,0.8c0.8,0.6,1.6,1.4,2.1,2.4c0.6,1,0.9,2,0.9,3.1
			c0,1-0.2,1.9-0.5,2.6c-0.3,0.7-0.6,1.2-0.9,1.4c-0.1,0.2-0.3,0.3-0.4,0.5c-0.2,0.1-0.4,0.4-0.8,0.6c0.3,0.2,0.6,0.3,0.7,0.4
			c0.1,0.1,0.2,0.1,0.3,0.2c0.1,0,0.1,0.1,0.2,0.2c0.1,0.1,0.2,0.1,0.3,0.2c0.6,0.4,1,0.9,1.3,1.5c0.3,0.5,0.6,1.1,0.7,1.6
			c0.2,0.5,0.3,1,0.3,1.4c0,0.4,0.1,0.8,0.1,1c0,0.9-0.2,1.8-0.5,2.5c-0.3,0.7-0.7,1.4-1.1,1.9c-0.4,0.6-0.8,1-1.2,1.4
			C148.7,340.4,148.4,340.6,148.1,340.8z M142.4,330.7c-0.4,0-0.8,0.1-1.2,0.2c-0.4,0.2-0.7,0.4-1,0.7c-0.3,0.3-0.5,0.6-0.7,1
			c-0.2,0.4-0.2,0.8-0.2,1.2c0,0.2,0.1,0.4,0.1,0.5c0,0.1,0,0.3,0.1,0.4c0.1,0.5,0.4,0.9,0.8,1.3c0.4,0.4,0.8,0.6,1.2,0.7
			c0.4,0.1,0.7,0.1,0.9,0.1c0.8,0,1.6-0.3,2.1-0.9c0.6-0.6,0.9-1.3,0.9-2.1c0-0.4-0.1-0.8-0.2-1.2c-0.2-0.4-0.4-0.7-0.7-0.9
			c-0.3-0.3-0.6-0.5-1-0.6C143.2,330.8,142.8,330.7,142.4,330.7z M142.4,321.1c-0.7,0-1.2,0.2-1.7,0.7c-0.4,0.5-0.7,1-0.7,1.7
			c0,0.1,0,0.4,0.1,0.7c0.1,0.3,0.3,0.6,0.6,0.9c0.3,0.3,0.7,0.5,1,0.6c0.3,0.1,0.5,0.1,0.7,0.1c0.7,0,1.2-0.2,1.7-0.7
			c0.4-0.4,0.7-1,0.7-1.7c0-0.7-0.2-1.2-0.7-1.7C143.6,321.3,143,321.1,142.4,321.1z"/>
		<path class="st1" d="M155.5,335v-6h17.2v6H155.5z"/>
		<path class="st1" d="M176.4,341.8v-20.7h-2.9v-4.9h9.4v25.6H176.4z"/>
		<path class="st1" d="M198.9,340.2c-0.9,0.8-1.9,1.3-2.9,1.6c-1,0.3-2.1,0.5-3.3,0.5c-0.9,0-1.8-0.1-2.7-0.3
			c-0.9-0.2-1.7-0.5-2.4-0.9c-0.8-0.4-1.4-0.9-2-1.6c-0.6-0.6-1.1-1.4-1.4-2.3c-0.1-0.3-0.2-0.5-0.2-0.8c-0.1-0.3-0.1-0.5-0.2-0.8
			c0-0.2-0.1-0.4-0.1-0.7c0-0.3,0-0.6-0.1-0.9h6.5c0,0.1,0,0.3,0,0.4s0,0.2,0,0.3c0,0.1,0,0.2,0.1,0.2c0,0.1,0,0.1,0.1,0.2
			c0.2,0.5,0.5,0.9,1,1.1c0.4,0.3,0.9,0.4,1.5,0.4c0.8,0,1.4-0.3,1.8-0.8c0.4-0.5,0.7-1.1,0.7-1.9c0-0.2,0-0.5-0.1-1
			c-0.1-0.4-0.4-0.8-0.9-1.2c-0.4-0.3-0.8-0.4-1.2-0.5c-0.4,0-0.8-0.1-1.3-0.1h-1.7v-4.9h0.9c0.6,0,1.2-0.1,1.7-0.2
			c0.5-0.2,1-0.5,1.3-1.1c0.1-0.2,0.2-0.4,0.3-0.7c0.1-0.3,0.1-0.6,0.1-1.1c0-0.6-0.1-1.1-0.4-1.5c-0.3-0.5-0.7-0.7-1.3-0.7
			c-0.6,0-1,0.2-1.3,0.6c-0.3,0.4-0.5,0.8-0.6,1.3v0.5h-6.3c0.1-0.6,0.2-1.2,0.2-1.7c0.1-0.5,0.2-1,0.4-1.5c0.2-0.4,0.4-0.9,0.7-1.3
			c0.3-0.4,0.6-0.8,1.1-1.2c0.1-0.1,0.4-0.4,0.8-0.7c0.4-0.3,0.9-0.6,1.4-0.8c0.2-0.1,0.4-0.1,0.6-0.2c0.2-0.1,0.5-0.2,0.9-0.3
			c0.2,0,0.5-0.1,0.9-0.2c0.4-0.1,0.8-0.1,1.4-0.1c0.7,0,1.4,0.1,1.9,0.2c0.6,0.1,1,0.2,1.2,0.3c1.4,0.5,2.5,1.3,3.4,2.5
			c0.9,1.1,1.3,2.5,1.3,4c0,1.8-0.7,3.3-2,4.5c-0.1,0.1-0.3,0.2-0.4,0.3c-0.1,0.1-0.4,0.3-0.8,0.5l1.2,0.7c0.9,0.5,1.6,1,1.9,1.6
			c0.4,0.6,0.6,1.1,0.8,1.5c0.1,0.2,0.2,0.5,0.3,0.9c0.1,0.4,0.2,0.9,0.2,1.6c0,0.3,0,0.7-0.1,1.2c-0.1,0.5-0.2,1-0.4,1.5
			c-0.2,0.5-0.5,1.1-0.9,1.7C200,339.1,199.5,339.7,198.9,340.2z"/>
		<path class="st1" d="M227.1,341.8l-1.3-3.6h-8.6l-1.2,3.6h-7.4L219,316h5.3l10.4,25.8H227.1z M221.5,324.9l-2.5,8h5.2L221.5,324.9
			z"/>
		<path class="st1" d="M252.1,335.4c-0.1,0.3-0.2,0.6-0.3,1c-0.1,0.4-0.3,0.8-0.6,1.3c-0.3,0.5-0.6,0.9-1,1.4
			c-0.4,0.5-0.9,1-1.6,1.4c-0.6,0.4-1.3,0.8-2.2,1.2c-0.9,0.4-2.2,0.6-3.7,0.6c-1.5,0-2.8-0.2-3.8-0.6c-1-0.4-1.9-0.9-2.6-1.5
			c-0.7-0.6-1.3-1.2-1.7-1.9c-0.4-0.7-0.7-1.3-0.9-1.9c-0.1-0.3-0.2-0.6-0.2-0.9c-0.1-0.3-0.1-0.6-0.1-1c0-0.4-0.1-0.8-0.1-1.2
			c0-0.5,0-1,0-1.6v-15.5h6.5v16.3c0,0.6,0.1,1.2,0.2,1.7c0.2,0.5,0.5,1,1.1,1.4c0.2,0.1,0.3,0.2,0.5,0.3c0.2,0.1,0.3,0.1,0.5,0.1
			c0.1,0,0.3,0,0.4,0c0.1,0,0.2,0,0.3,0c0.9,0,1.6-0.3,2.2-0.8c0.6-0.5,0.9-1.2,0.9-2.1v-0.8v-16.1h6.5v14.6c0,0.8,0,1.5,0,2.3
			C252.4,333.9,252.3,334.7,252.1,335.4z"/>
		<path class="st1" d="M276.9,337.3c-1.3,1.6-2.9,2.8-4.7,3.7c-1.8,0.9-3.8,1.3-5.8,1.3c-0.4,0-0.9,0-1.5-0.1
			c-0.6-0.1-1.2-0.2-2-0.4c-0.7-0.2-1.5-0.5-2.3-0.9c-0.8-0.4-1.6-0.9-2.4-1.5c-0.4-0.3-0.9-0.8-1.5-1.4c-0.6-0.6-1.1-1.3-1.7-2.2
			c-0.5-0.9-1-1.9-1.3-3c-0.4-1.1-0.5-2.4-0.5-3.8c0-1.5,0.2-2.9,0.6-4.1c0.4-1.2,0.9-2.2,1.5-3.1c0.6-0.9,1.2-1.6,1.8-2.2
			c0.6-0.6,1.2-1,1.6-1.4c2.3-1.7,4.9-2.6,7.8-2.6c1.6,0,3,0.2,4.2,0.6c1.2,0.4,2.3,0.9,3.2,1.5c0.9,0.6,1.7,1.2,2.3,1.9
			c0.6,0.7,1,1.2,1.4,1.7c0.1,0.2,0.3,0.4,0.4,0.6c0.1,0.2,0.2,0.4,0.4,0.7c0.1,0.2,0.2,0.5,0.4,0.9s0.3,0.7,0.5,1.2h-7.4l-0.3-0.4
			l-0.1-0.1l-0.1-0.1l-0.3-0.3c-0.6-0.6-1.3-1-2.1-1.2c-0.8-0.2-1.6-0.4-2.3-0.4c-0.3,0-0.6,0-1.1,0.1c-0.5,0-1,0.2-1.6,0.5
			c-0.6,0.3-1.2,0.6-1.7,1c-0.5,0.4-0.9,0.9-1.3,1.5c-0.4,0.5-0.6,1.1-0.8,1.8c-0.2,0.7-0.3,1.3-0.3,2c0,0.5,0.1,1.1,0.2,1.8
			c0.2,0.7,0.6,1.5,1.3,2.4c0.1,0.2,0.4,0.4,0.7,0.7c0.3,0.3,0.7,0.6,1.1,0.8c0.4,0.3,1,0.5,1.5,0.7s1.2,0.3,1.9,0.3
			c0.6,0,1.2-0.1,1.7-0.2c0.5-0.1,1-0.3,1.3-0.5c0.4-0.2,0.7-0.4,1-0.6c0.3-0.2,0.5-0.4,0.6-0.5c0.1-0.1,0.2-0.2,0.3-0.4
			c0.1-0.1,0.2-0.4,0.4-0.7h-7.1v-5.4H280c0,1-0.1,1.9-0.2,2.8c-0.1,0.9-0.3,1.7-0.5,2.5c-0.2,0.8-0.5,1.6-0.9,2.3
			C278,335.8,277.5,336.5,276.9,337.3z"/>
		<path class="st1" d="M299.6,335.4c-0.1,0.3-0.2,0.6-0.3,1c-0.1,0.4-0.3,0.8-0.6,1.3c-0.3,0.5-0.6,0.9-1,1.4
			c-0.4,0.5-0.9,1-1.6,1.4c-0.6,0.4-1.3,0.8-2.2,1.2c-0.9,0.4-2.2,0.6-3.7,0.6c-1.5,0-2.8-0.2-3.8-0.6c-1-0.4-1.9-0.9-2.6-1.5
			c-0.7-0.6-1.3-1.2-1.7-1.9c-0.4-0.7-0.7-1.3-0.9-1.9c-0.1-0.3-0.2-0.6-0.2-0.9c-0.1-0.3-0.1-0.6-0.1-1c0-0.4-0.1-0.8-0.1-1.2
			c0-0.5,0-1,0-1.6v-15.5h6.5v16.3c0,0.6,0.1,1.2,0.2,1.7c0.2,0.5,0.5,1,1.1,1.4c0.2,0.1,0.3,0.2,0.5,0.3c0.2,0.1,0.3,0.1,0.5,0.1
			c0.1,0,0.3,0,0.4,0c0.1,0,0.2,0,0.3,0c0.9,0,1.6-0.3,2.2-0.8c0.6-0.5,0.9-1.2,0.9-2.1v-0.8v-16.1h6.5v14.6c0,0.8,0,1.5,0,2.3
			S299.8,334.7,299.6,335.4z"/>
		<path class="st1" d="M314.9,340.6c-0.6,0.4-1.1,0.8-1.7,1c-0.5,0.2-1.1,0.4-1.5,0.5c-0.5,0.1-0.9,0.2-1.3,0.2c-0.4,0-0.7,0-1,0
			c-1.3,0-2.4-0.2-3.3-0.5c-0.9-0.3-1.7-0.8-2.4-1.3c-0.6-0.5-1.2-1-1.5-1.6c-0.4-0.6-0.7-1.1-0.8-1.6c-0.2-0.6-0.4-1.3-0.4-1.9
			s-0.1-1.3-0.1-2.1h6.2c0,0.6,0.1,1.2,0.2,1.8c0.1,0.5,0.4,1,1,1.3c0.1,0.1,0.3,0.1,0.5,0.2s0.4,0.1,0.8,0.1c0.7,0,1.2-0.2,1.6-0.6
			c0.4-0.4,0.6-0.9,0.6-1.6c0-0.8-0.2-1.4-0.7-1.8c-0.5-0.4-1-0.8-1.6-1.1l-1.2-0.5c-0.5-0.2-1-0.4-1.4-0.6
			c-0.4-0.2-0.9-0.4-1.4-0.7c-0.3-0.2-0.7-0.4-1.1-0.7c-0.5-0.3-0.9-0.8-1.4-1.3s-0.8-1.2-1.1-2c-0.3-0.8-0.5-1.7-0.5-2.7
			c0-0.3,0-0.6,0.1-1c0-0.4,0.1-0.8,0.3-1.3c0.2-0.5,0.4-1,0.7-1.5s0.7-1,1.3-1.5c0.6-0.6,1.2-1,1.8-1.3c0.6-0.3,1.2-0.6,1.8-0.7
			c0.6-0.2,1.1-0.3,1.6-0.3c0.5,0,0.9-0.1,1.1-0.1c0.3,0,0.7,0,1.2,0.1c0.5,0,1.1,0.2,1.7,0.4c0.8,0.3,1.4,0.6,2,1
			c0.6,0.4,1,0.8,1.4,1.2c0.4,0.4,0.7,0.9,0.9,1.3c0.2,0.4,0.4,0.8,0.5,1.1c0,0.1,0.1,0.3,0.1,0.4c0,0.1,0.1,0.2,0.1,0.4
			c0,0.1,0.1,0.2,0.1,0.4c0,0.1,0,0.3,0.1,0.4c0,0.3,0.1,0.5,0.1,0.7c0,0.2,0,0.5,0.1,0.9H312c0-0.3,0-0.6,0-0.7s0-0.3-0.1-0.4
			c-0.1-0.4-0.4-0.8-0.7-1c-0.4-0.2-0.8-0.4-1.2-0.4c-0.6,0-1.1,0.2-1.5,0.5c-0.4,0.4-0.5,0.9-0.5,1.5c0,0.3,0,0.5,0.1,0.7
			c0.1,0.2,0.2,0.3,0.2,0.4c0.3,0.4,0.7,0.7,1.2,1c0.3,0.1,0.6,0.3,0.9,0.4c0.3,0.1,0.7,0.3,1.2,0.5c1.1,0.5,2,1,2.7,1.4
			c0.7,0.4,1.2,0.8,1.5,1.1c0.2,0.1,0.4,0.3,0.5,0.5c0.2,0.2,0.4,0.4,0.7,0.8c0.6,0.8,1,1.6,1.1,2.3c0.1,0.7,0.2,1.3,0.2,1.7
			c0,0.4,0,0.8-0.1,1.4c-0.1,0.5-0.2,1.1-0.4,1.7c-0.2,0.6-0.6,1.2-1,1.8C316.3,339.4,315.7,340,314.9,340.6z"/>
		<path class="st1" d="M330,322v19.8h-6.5V322h-5v-5.8h16.6v5.8H330z"/>
		<path class="st1" d="M342.9,341.8V337c0.9-0.8,1.7-1.6,2.5-2.3c0.8-0.7,1.6-1.5,2.4-2.2l2.1-2c0.7-0.7,1.3-1.3,1.8-1.9
			c0.5-0.6,0.9-1.1,1.2-1.6c0.3-0.5,0.6-1,0.7-1.5c0.2-0.5,0.2-1,0.2-1.5c0-0.1,0-0.3,0-0.4c0-0.1,0-0.2-0.1-0.3
			c0-0.1,0-0.1-0.1-0.2c0-0.1,0-0.1-0.1-0.2c-0.2-0.5-0.4-0.8-0.8-1.1c-0.4-0.3-0.8-0.4-1.3-0.4c-0.4,0-0.8,0.1-1.2,0.4
			c-0.5,0.3-0.8,0.8-1,1.3c-0.2,0.5-0.3,1.1-0.3,1.6c0,0.1,0,0.3,0,0.5c0,0.2,0,0.3,0,0.6l-6.4,0v-1.1c0-0.2,0-0.5,0.1-0.8
			c0-0.3,0.1-0.5,0.1-0.8c0.1-0.6,0.3-1.2,0.6-1.9c0.3-0.7,0.6-1.3,1.1-1.9c0.3-0.4,0.6-0.7,1.1-1.1c0.4-0.4,0.9-0.8,1.6-1.1
			c0.6-0.3,1.3-0.6,2.1-0.8c0.8-0.2,1.8-0.3,2.9-0.3c0.2,0,0.5,0,0.9,0c0.4,0,0.8,0.1,1.3,0.2c0.5,0.1,1,0.2,1.5,0.4
			c0.5,0.2,1.1,0.5,1.6,0.8c0.3,0.2,0.6,0.5,1,0.8c0.4,0.3,0.7,0.8,1.1,1.3c0.4,0.5,0.6,1.1,0.9,1.8c0.2,0.7,0.4,1.5,0.4,2.4v0.5
			c0,0.1,0,0.2,0,0.3c0,0.1,0,0.2-0.1,0.3c0,0.3-0.1,0.5-0.1,0.8c0,0.3-0.1,0.6-0.3,0.9c-0.2,0.6-0.5,1.2-0.9,1.7
			c-0.4,0.6-0.7,1.1-1.1,1.6c-0.4,0.5-0.8,1-1.3,1.5c-0.4,0.5-0.9,1-1.3,1.4l-3.1,3.2h8.5v6H342.9z"/>
		<path class="st1" d="M385.3,337.9c-1.3,1.5-2.8,2.6-4.6,3.4c-1.8,0.8-3.6,1.2-5.5,1.2c-1.7,0-3.4-0.3-5.1-1
			c-1.7-0.7-3.1-1.7-4.3-2.9c-1.2-1.2-2.2-2.7-2.9-4.3c-0.7-1.7-1-3.4-1-5.1c0-1.7,0.3-3.3,0.9-4.8c0.6-1.5,1.5-2.9,2.5-4.2
			c1.3-1.4,2.8-2.5,4.5-3.3c1.7-0.8,3.6-1.2,5.4-1.2c0.4,0,0.9,0,1.5,0.1c0.6,0.1,1.3,0.2,2.1,0.4c0.8,0.2,1.6,0.6,2.5,1
			c0.9,0.4,1.7,1,2.6,1.7c1.5,1.3,2.6,2.8,3.4,4.6c0.8,1.8,1.2,3.7,1.2,5.6c0,1.6-0.3,3.2-0.9,4.7
			C387.2,335.2,386.3,336.6,385.3,337.9z M380.7,324.5c-0.5-0.6-1-1-1.5-1.4c-0.5-0.3-1.1-0.6-1.6-0.8c-0.5-0.2-1-0.3-1.4-0.3
			c-0.4,0-0.8-0.1-1-0.1c-1,0-2,0.2-2.9,0.7c-1.3,0.6-2.3,1.4-3,2.6c-0.8,1.2-1.2,2.5-1.2,3.9c0,0.2,0,0.5,0.1,0.9
			c0,0.4,0.1,0.8,0.3,1.3c0.1,0.4,0.4,0.9,0.6,1.4c0.3,0.5,0.7,1,1.1,1.5c0.7,0.7,1.5,1.2,2.4,1.5c0.9,0.4,1.8,0.5,2.7,0.5
			c0.2,0,0.5,0,0.8-0.1c0.3,0,0.7-0.1,1.1-0.2c0.4-0.1,0.8-0.3,1.3-0.5c0.5-0.2,0.9-0.5,1.3-0.9c0.6-0.5,1-1,1.4-1.5
			c0.3-0.5,0.6-1.1,0.8-1.6c0.2-0.5,0.3-1,0.3-1.4c0-0.4,0.1-0.8,0.1-1C382.4,327.3,381.8,325.8,380.7,324.5z"/>
		<path class="st1" d="M391.9,341.8v-20.7H389v-4.9h9.4v25.6H391.9z"/>
		<path class="st1" d="M415.6,333.2l-5.7,8.6h-8l6-7.8c-0.7,0-1.3,0.1-1.7,0c-0.5,0-1-0.1-1.4-0.3c-0.9-0.2-1.7-0.7-2.5-1.2
			c-0.7-0.6-1.3-1.3-1.8-2c-0.5-0.8-0.9-1.6-1.2-2.5c-0.3-0.9-0.4-1.8-0.4-2.8c0-1.3,0.3-2.6,0.8-3.7c0.5-1.2,1.2-2.2,2.1-3
			c0.9-0.9,1.9-1.6,3.1-2.1c1.2-0.5,2.4-0.7,3.7-0.7c0.5,0,1.3,0.1,2.3,0.3c1,0.2,2,0.7,3.2,1.4c0.4,0.3,0.8,0.6,1.3,1.1
			c0.5,0.4,0.9,1,1.4,1.7c0.4,0.7,0.8,1.5,1.1,2.4c0.3,0.9,0.4,2,0.4,3.1c0,0.8-0.1,1.5-0.2,2.1c-0.1,0.7-0.3,1.3-0.5,1.9
			c-0.2,0.6-0.5,1.2-0.9,1.8C416.4,332,416,332.6,415.6,333.2z M411,323c-0.2-0.2-0.4-0.4-0.8-0.6c-0.4-0.2-0.9-0.4-1.5-0.4
			c-0.5,0-0.9,0.1-1.3,0.3c-0.4,0.2-0.8,0.4-1.1,0.7c-0.3,0.3-0.5,0.7-0.7,1.1c-0.2,0.4-0.3,0.8-0.3,1.3c0,0.5,0.1,0.9,0.3,1.3
			c0.2,0.4,0.4,0.8,0.7,1.1c0.3,0.3,0.7,0.5,1.1,0.7c0.4,0.2,0.8,0.3,1.3,0.3c1,0,1.8-0.3,2.4-1c0.6-0.7,0.9-1.5,0.9-2.4
			c0-0.2,0-0.6-0.1-1C411.8,323.8,411.5,323.4,411,323z"/>
	</g>
</g>
<g id="Layer_2">
</g>
</svg>
