<?xml version="1.0" encoding="utf-8"?>
<!-- Generator: Adobe Illustrator 22.1.0, SVG Export Plug-In . SVG Version: 6.00 Build 0)  -->
<svg version="1.1" xmlns="http://www.w3.org/2000/svg" xmlns:xlink="http://www.w3.org/1999/xlink" x="0px" y="0px"
	 viewBox="0 0 669.5 268.8" style="enable-background:new 0 0 669.5 268.8;" xml:space="preserve">
<style type="text/css">
	.st0{fill:#FFFFFF;}
	.st1{fill:#FFD12B;}
	.st2{fill:#F22442;}
	.st3{fill:#1D2452;}
	.st4{fill:#FFD800;}
</style>
<g id="Layer_1">
	<g>
		<path class="st0" d="M588.8,41.8c0,21-17.2,37.9-38.1,37.9l-26.9,0V3.9l27.1,0C571.8,3.8,588.8,20.8,588.8,41.8 M568.4,41.6
			c0-11.5-9-19.9-20.1-20l-4.5,0v40l4.5,0C559.4,61.7,568.4,53.2,568.4,41.6"/>
		<path class="st0" d="M200.9,41.6c0,22.1-18.1,40.1-40.2,40.1l-1.1,0V60.8h1.9c10.3,0,18.6-8.5,18.6-19.2
			c0-10.6-8.3-19.2-18.6-19.3l-1.9,0V1.6h1.2C182.9,1.6,200.9,19.5,200.9,41.6"/>
		<polygon class="st0" points="246.9,20.7 223.8,20.7 223.8,32.1 246.9,32.1 246.9,50 223.9,50 223.9,62.4 247.1,62.4 247.1,79.7 
			203.8,79.7 203.8,3.8 246.9,3.8 		"/>
		<polygon class="st0" points="295.6,20.9 270.8,20.9 270.8,33.1 295.4,33.1 295.4,50.8 270.8,50.8 270.8,79.7 251.6,79.7 
			251.6,3.8 295.6,3.8 		"/>
		<polygon class="st0" points="343.4,20.7 320.3,20.7 320.3,32.1 343.4,32.1 343.4,50 320.4,50 320.4,62.4 343.6,62.4 343.6,79.7 
			300.3,79.7 300.3,3.8 343.4,3.8 		"/>
		<path class="st0" d="M403,32.2c-0.5-1.1-1.2-1.9-1.8-2.9c-3.7-4.8-9.1-7.5-15.3-7.5c-4,0-6.8,1.1-8.2,1.7
			c-7.4,3.1-11.9,10.3-11.9,18.3c0.1,3.7,1,6.1,1.5,7.4c1.5,3.6,6.9,12.4,18.6,12.4c3.1,0,5.3-0.6,6.6-1.1c1.2-0.4,5.4-2.4,8.3-5.8
			c0.8-1,1.2-1.6,2.4-3.5h21.1c-1.6,4.9-2.6,7.1-3.8,9.4C413.1,74,401,78.8,395.6,80.1c-1.6,0.4-5.1,1.1-9.5,1.1
			c-19.3,0-29.5-11.8-33.3-17.4c-2.5-3.5-6.6-10.5-6.6-21.4c0-20.6,13.5-31.3,19.7-34.9c3.1-1.8,10.1-5.2,19.8-5.2
			c4.9,0,15,0.9,25,9c9.4,7.6,12,16.6,13.3,21H403z"/>
		<polygon class="st0" points="470.8,20.9 455.7,20.9 455.7,79.7 436.4,79.7 436.4,20.8 421.6,20.8 421.6,3.8 470.8,3.8 		"/>
		<polygon class="st0" points="518.6,20.7 495.5,20.7 495.5,32.1 518.6,32.1 518.6,50 495.6,50 495.6,62.4 518.8,62.4 518.8,79.7 
			475.5,79.7 475.5,3.8 518.6,3.8 		"/>
		<polygon class="st0" points="580.1,5.6 580.1,3.8 587.1,3.8 587.1,5.6 584.7,5.6 584.7,12.1 582.5,12.1 582.5,5.6 		"/>
		<path class="st0" d="M595,6.3L595,6.3l-1.6,5.8h-1.8L590,6.3l-0.1-0.4c0,0.2,0,6.2,0,6.2h-2V3.8h3l1.3,4.9
			c0.1,0.3,0.2,0.7,0.2,1.3c0,0.1,0,0.3,0,0.4c0-0.3,0-0.6,0-0.9c0-0.4,0.1-0.6,0.1-0.8l1.3-4.9h3v8.3H595V6.3z"/>
	</g>
	<rect x="72.5" class="st1" width="83.1" height="83.1"/>
	<g>
		<path class="st0" d="M74.7,147.9c-1.9,3.4-4,6.3-6.3,8.6c-2.3,2.3-4.6,4.3-6.9,5.8c-2.3,1.6-4.5,2.7-6.6,3.6
			c-2.1,0.8-3.8,1.4-5.2,1.7c-0.8,0.1-2,0.4-3.7,0.6c-1.7,0.3-3.6,0.4-5.8,0.4c-4.8,0-9.1-0.7-12.9-1.9c-3.8-1.3-7-2.9-9.7-4.7
			c-2.7-1.8-5-3.8-6.8-5.7c-1.8-2-3.2-3.7-4.1-5.1c-0.6-0.9-1.4-2-2.1-3.3c-0.8-1.3-1.5-2.9-2.2-4.7c-0.7-1.8-1.2-3.8-1.7-6.1
			c-0.4-2.2-0.6-4.7-0.6-7.5c0-5.2,0.7-9.8,2.2-13.7c1.5-4,3.3-7.4,5.4-10.3c2.1-2.9,4.3-5.2,6.5-7c2.3-1.8,4.2-3.2,5.7-4.1
			c0.8-0.5,1.8-1,3.1-1.6c1.3-0.6,2.7-1.1,4.4-1.7c1.7-0.5,3.5-1,5.6-1.4c2.1-0.4,4.3-0.5,6.9-0.5c1.2,0,2.8,0.1,4.6,0.3
			c1.8,0.2,3.9,0.6,6.1,1.2c2.2,0.6,4.5,1.5,7,2.8c2.5,1.2,5,2.9,7.5,4.9c2.4,1.9,4.4,3.9,6,6c1.6,2,2.9,4,3.9,6
			c0.9,1.8,1.7,3.7,2.4,5.6c0.2,0.7,0.4,1.3,0.6,1.8c0.2,0.6,0.4,1.2,0.5,1.7H57.1c-0.4-0.6-0.7-1.1-1-1.6c-0.3-0.5-0.5-0.9-0.8-1.2
			c-1.9-2.5-4.1-4.4-6.8-5.7c-2.6-1.3-5.5-1.9-8.6-1.9c-2,0-3.7,0.2-5.1,0.5c-1.4,0.4-2.4,0.7-3.1,1.1c-3.7,1.7-6.6,4.1-8.8,7.4
			c-2.2,3.3-3.3,6.9-3.2,11c0,1.9,0.2,3.4,0.5,4.7c0.4,1.2,0.7,2.2,1,2.8c0.4,0.9,1,2,1.8,3.4c0.9,1.4,2.1,2.8,3.6,4.1
			c1.5,1.3,3.4,2.5,5.6,3.4c2.2,0.9,4.8,1.4,7.7,1.4c1.6,0,2.9-0.1,4-0.4c1.1-0.3,1.9-0.5,2.6-0.7c0.7-0.1,1.8-0.7,3.5-1.6
			c1.7-0.9,3.3-2.3,4.7-4.1c0.2-0.2,0.4-0.5,0.6-0.7c0.2-0.3,0.3-0.5,0.5-0.7l1.4-2.2h21.2c-0.9,2.7-1.7,4.7-2.2,6
			C75.8,145.7,75.3,146.9,74.7,147.9z"/>
		<path class="st0" d="M115.9,167.3l-15.6-24.5v24.5H81V90.8h28.4c3.6,0,7,0.3,10.1,0.8c3.1,0.5,6.2,1.9,9.2,4.2
			c0.9,0.7,1.9,1.7,3,2.9c1.1,1.2,2.1,2.7,3.1,4.4c1,1.7,1.8,3.7,2.4,6c0.6,2.3,1,4.9,1,7.8c0,3-0.4,5.7-1.1,8
			c-0.7,2.3-1.6,4.3-2.7,6c-1,1.7-2.2,3.1-3.4,4.2c-1.2,1.1-2.3,2-3.2,2.7c-0.8,0.6-1.6,1.1-2.5,1.5c-0.9,0.4-2.3,1-4.3,1.8
			l18.5,26.1H115.9z M117.3,112.1c-1.2-1.9-2.8-3.1-4.6-3.5c-1.8-0.4-3.8-0.6-5.9-0.6h-6.5v21h6.2c0.2-0.1,0.5-0.1,0.9-0.1
			c0.5,0,0.9,0,1.2-0.1c0.6-0.1,1.1-0.1,1.6-0.2c0.5-0.1,1-0.2,1.6-0.3c0.6-0.2,1.4-0.6,2.2-1c0.8-0.5,1.5-1.1,2.2-1.9
			c0.7-0.8,1.3-1.9,1.8-3.1c0.5-1.2,0.8-2.7,0.8-4.3c0-1-0.1-2-0.3-2.9C118.3,113.9,117.9,113,117.3,112.1z"/>
		<path class="st0" d="M210.1,154.6c-3.7,4.5-8.2,8-13.6,10.4c-5.4,2.4-11,3.6-16.8,3.6c-5.2,0-10.3-1-15.2-3.1
			c-4.9-2.1-9.3-4.9-12.9-8.6c-3.7-3.7-6.5-8-8.6-12.9c-2.1-4.9-3.1-10-3.1-15.2c0-1.2,0.1-2.7,0.3-4.5c0.2-1.9,0.6-4,1.2-6.3
			c0.6-2.3,1.6-4.8,2.9-7.4c1.3-2.6,3-5.1,5.1-7.6c1.8-2.2,3.9-4.1,6.2-5.8c2.3-1.7,4.8-3.2,7.4-4.4s5.3-2.1,8.2-2.8
			c2.8-0.6,5.7-1,8.5-1c3.2,0,6.3,0.4,9,1.1c2.8,0.7,5.3,1.6,7.5,2.6c2.2,1,4.1,2.1,5.7,3.1c1.6,1.1,2.8,2,3.7,2.7
			c4.4,3.8,7.8,8.3,10.3,13.6c2.5,5.3,3.7,10.9,3.7,16.8c0,1.2-0.1,2.7-0.3,4.5c-0.2,1.9-0.6,4-1.2,6.2c-0.7,2.3-1.6,4.7-2.9,7.3
			C213.9,149.5,212.2,152.1,210.1,154.6z M199.8,121.4c-0.8-2.1-1.9-4-3.2-5.7c-1.3-1.7-2.9-3.2-4.7-4.4c-1.8-1.2-3.7-2.2-5.8-2.8
			c-2.1-0.6-4.3-1-6.5-1c-0.6,0-1.6,0.1-2.7,0.2c-1.2,0.1-2.4,0.4-3.7,0.9c-1.3,0.4-2.8,1-4.3,1.8c-1.5,0.8-3,1.8-4.3,3.1
			c-2.1,2-3.7,4.4-4.8,7c-1.1,2.7-1.6,5.5-1.6,8.3c0,0.6,0.1,1.6,0.2,2.7c0.1,1.2,0.4,2.4,0.8,3.8c0.4,1.4,1.1,2.8,1.9,4.3
			c0.8,1.5,2,3,3.4,4.3c1.9,2,4.3,3.6,7,4.7c2.7,1.1,5.4,1.6,8.2,1.6c2.1,0,4-0.3,5.7-0.8c1.7-0.5,3.2-1.1,4.5-1.8
			c1.3-0.7,2.4-1.5,3.3-2.2c0.9-0.8,1.6-1.4,2.1-1.9c0.5-0.5,1.1-1.2,1.8-2.1c0.7-0.9,1.3-1.9,1.9-3.2c0.6-1.3,1.1-2.7,1.5-4.2
			c0.4-1.6,0.6-3.3,0.6-5.2C201.1,126.3,200.7,123.7,199.8,121.4z"/>
		<path class="st0" d="M265.9,167.3l-3.8-10.7h-25.7l-3.6,10.7h-22l30.6-76.9h15.9l31,76.9H265.9z M249,116.9l-7.6,23.7H257
			L249,116.9z"/>
		<path class="st0" d="M310.8,108.2v59.1h-19.4v-59.2h-14.9V90.8h49.6v17.3H310.8z"/>
		<path class="st0" d="M329.3,167.3V90.8h19.5v76.4H329.3z"/>
		<path class="st0" d="M404.3,167.3l-3.8-10.7h-25.7l-3.6,10.7h-22L380,90.4h15.9l31,76.9H404.3z M387.4,116.9l-7.6,23.7h15.6
			L387.4,116.9z"/>
		<path class="st0" d="M449.3,167.3V153c2.6-2.4,5.1-4.7,7.5-6.9c2.4-2.2,4.7-4.4,7-6.7l6.2-6c2.1-2,3.9-3.9,5.4-5.6
			c1.5-1.7,2.7-3.3,3.7-4.8c1-1.5,1.7-2.9,2.2-4.4c0.5-1.4,0.7-2.9,0.7-4.4c0-0.4,0-0.8-0.1-1.1c0-0.3-0.1-0.6-0.2-0.9
			c-0.1-0.2-0.1-0.4-0.2-0.6c0-0.2-0.1-0.4-0.2-0.7c-0.5-1.4-1.3-2.5-2.4-3.4c-1.1-0.9-2.4-1.3-4-1.3c-1.3,0-2.5,0.4-3.5,1.1
			c-1.4,1-2.4,2.3-2.9,3.8c-0.5,1.6-0.8,3.2-0.9,4.8c-0.1,0.4-0.1,0.9-0.1,1.4c0,0.5,0,1,0,1.7l-19.1-0.1v-3.2
			c0-0.7,0.1-1.5,0.2-2.3c0.1-0.8,0.2-1.6,0.4-2.5c0.4-1.8,0.9-3.7,1.7-5.6c0.8-1.9,1.9-3.9,3.4-5.7c0.9-1.1,1.9-2.2,3.2-3.4
			c1.3-1.2,2.8-2.3,4.7-3.3c1.8-1,4-1.8,6.4-2.5c2.4-0.7,5.2-1,8.5-1c0.6,0,1.5,0,2.7,0.1c1.1,0.1,2.4,0.2,3.8,0.5
			c1.4,0.3,2.9,0.7,4.5,1.2c1.6,0.6,3.2,1.4,4.9,2.4c0.8,0.7,1.7,1.5,2.9,2.5c1.1,1,2.2,2.3,3.2,3.8c1,1.6,1.9,3.4,2.7,5.4
			c0.7,2.1,1.1,4.4,1.1,7.1v1.5c0,0.3,0,0.6-0.1,0.9c0,0.3-0.1,0.6-0.2,1c-0.1,0.8-0.3,1.6-0.4,2.4c-0.1,0.8-0.4,1.7-0.8,2.7
			c-0.6,1.7-1.5,3.4-2.5,5.1c-1,1.7-2.2,3.3-3.4,4.9c-1.2,1.6-2.5,3.1-3.8,4.6c-1.3,1.5-2.7,2.9-4,4.3l-9.3,9.6h25.2v17.9H449.3z"/>
		<path class="st0" d="M575.4,155.5c-3.8,4.3-8.3,7.7-13.6,10c-5.3,2.3-10.8,3.5-16.5,3.5c-5.2,0-10.3-1-15.2-3.1
			c-4.9-2.1-9.3-4.9-12.9-8.6c-3.7-3.7-6.5-8-8.6-12.9c-2.1-4.9-3.1-10.1-3.1-15.3c0-5,0.9-9.8,2.7-14.3c1.8-4.6,4.3-8.7,7.6-12.4
			c3.8-4.2,8.2-7.4,13.4-9.7c5.2-2.3,10.6-3.5,16.2-3.5c1.2,0,2.7,0.1,4.6,0.3c1.9,0.2,4,0.6,6.3,1.3c2.3,0.7,4.8,1.7,7.4,2.9
			c2.6,1.3,5.2,3,7.7,5.1c4.4,3.8,7.8,8.3,10.3,13.6c2.5,5.3,3.7,10.9,3.7,16.8c0,4.8-0.8,9.4-2.5,14
			C581.1,147.7,578.6,151.8,575.4,155.5z M561.8,115.5c-1.4-1.7-3-3.1-4.5-4.1c-1.6-1-3.1-1.8-4.7-2.3c-1.5-0.5-2.9-0.9-4.2-1
			c-1.3-0.1-2.3-0.2-3-0.2c-3,0-6,0.6-8.8,1.9c-3.8,1.7-6.8,4.2-9.1,7.7c-2.3,3.5-3.5,7.4-3.5,11.6c0,0.7,0.1,1.6,0.2,2.7
			c0.1,1.2,0.4,2.4,0.8,3.7c0.4,1.3,1.1,2.8,1.9,4.3c0.8,1.5,2,3,3.4,4.4c2.1,2,4.4,3.6,7,4.6c2.6,1,5.3,1.6,8,1.6
			c0.6,0,1.5-0.1,2.4-0.2c1-0.1,2.1-0.3,3.3-0.7c1.2-0.3,2.5-0.8,3.9-1.5c1.4-0.7,2.7-1.6,4-2.7c1.7-1.4,3.1-2.9,4.1-4.5
			c1-1.6,1.8-3.2,2.3-4.7c0.5-1.5,0.9-2.9,1-4.2c0.1-1.3,0.2-2.3,0.2-3.1C566.7,123.9,565.1,119.4,561.8,115.5z"/>
		<path class="st0" d="M590.8,167.3v-61.8h-8.8V90.8H610v76.4H590.8z"/>
		<path class="st0" d="M661.5,141.6l-16.9,25.7h-23.7l18-23.2c-2,0.1-3.7,0.2-5.1,0.1c-1.4-0.1-2.8-0.3-4.3-0.8
			c-2.7-0.7-5.2-1.9-7.3-3.7c-2.1-1.7-4-3.8-5.5-6.1c-1.5-2.3-2.7-4.8-3.5-7.5c-0.8-2.7-1.2-5.5-1.2-8.3c0-4,0.8-7.7,2.3-11.2
			c1.6-3.5,3.6-6.5,6.2-9.1c2.6-2.6,5.6-4.6,9.1-6.1c3.5-1.5,7.2-2.2,11.1-2.2c1.6,0,3.9,0.3,6.8,0.8c3,0.5,6.1,2,9.4,4.3
			c1.1,0.8,2.3,1.9,3.8,3.2c1.4,1.3,2.8,3,4.1,5c1.3,2,2.4,4.3,3.2,7c0.9,2.7,1.3,5.8,1.3,9.4c0,2.3-0.2,4.4-0.5,6.4
			c-0.4,1.9-0.9,3.8-1.6,5.6c-0.7,1.8-1.6,3.6-2.5,5.3C663.9,138,662.8,139.8,661.5,141.6z M647.8,111.1c-0.5-0.5-1.3-1.1-2.5-1.8
			c-1.2-0.7-2.7-1.1-4.5-1.1c-1.4,0-2.7,0.3-3.9,0.8c-1.2,0.5-2.3,1.3-3.2,2.2c-0.9,0.9-1.6,1.9-2.1,3.1c-0.5,1.2-0.8,2.5-0.8,3.8
			c0,1.4,0.3,2.8,0.8,4c0.5,1.2,1.3,2.3,2.2,3.1c0.9,0.9,2,1.6,3.2,2.1c1.2,0.5,2.5,0.8,3.9,0.8c2.9,0,5.3-1,7.1-2.9
			c1.9-1.9,2.8-4.3,2.8-7.1c0-0.6-0.1-1.6-0.4-3C650.1,113.7,649.2,112.4,647.8,111.1z"/>
	</g>
	<g>
		<path class="st1" d="M102.1,209.6v23.5h-7.7v-23.5h-5.9v-6.8h19.7v6.9H102.1z"/>
		<path class="st1" d="M126.6,233.1v-11.4h-9.3v11.4h-7.8v-30.4h7.8v11.5h9.2v-11.5h7.7v30.4H126.6z"/>
		<path class="st1" d="M135.6,233.1v-30.4h17.2v6.8h-9.2v4.5h9.2v7.2h-9.2v4.9h9.3v7H135.6z"/>
		<path class="st1" d="M187.8,227.7c-1.5,1.9-3.4,3.4-5.6,4.4c-2.2,1-4.5,1.5-6.9,1.5c-0.5,0-1.1,0-1.8-0.1
			c-0.7-0.1-1.5-0.2-2.3-0.5c-0.8-0.2-1.7-0.6-2.7-1c-0.9-0.4-1.9-1.1-2.9-1.8c-0.5-0.4-1.1-0.9-1.8-1.6c-0.7-0.7-1.3-1.6-2-2.6
			c-0.6-1-1.1-2.2-1.6-3.5c-0.4-1.3-0.6-2.9-0.6-4.6c0-1.8,0.2-3.4,0.7-4.8c0.5-1.4,1-2.6,1.7-3.7c0.7-1,1.4-1.9,2.1-2.6
			c0.7-0.7,1.4-1.2,1.9-1.6c2.7-2,5.8-3,9.2-3c1.9,0,3.5,0.2,5,0.7c1.4,0.5,2.7,1.1,3.8,1.8c1.1,0.7,2,1.5,2.7,2.2
			c0.7,0.8,1.2,1.4,1.6,2c0.2,0.3,0.3,0.5,0.5,0.7c0.1,0.2,0.3,0.5,0.4,0.8s0.3,0.6,0.5,1c0.2,0.4,0.4,0.9,0.6,1.4h-8.8l-0.3-0.5
			l-0.1-0.1l-0.1-0.2l-0.3-0.3c-0.7-0.7-1.5-1.1-2.5-1.4c-0.9-0.3-1.8-0.4-2.8-0.4c-0.3,0-0.7,0-1.3,0.1c-0.5,0.1-1.2,0.2-1.9,0.6
			c-0.7,0.3-1.4,0.7-2,1.2c-0.6,0.5-1.1,1.1-1.5,1.7c-0.4,0.6-0.8,1.4-1,2.1c-0.2,0.8-0.3,1.6-0.3,2.4c0,0.5,0.1,1.3,0.3,2.1
			c0.2,0.9,0.7,1.8,1.5,2.8c0.2,0.2,0.4,0.5,0.8,0.9c0.4,0.3,0.8,0.7,1.4,1c0.5,0.3,1.1,0.6,1.8,0.8s1.4,0.3,2.3,0.3
			c0.7,0,1.4-0.1,2-0.2s1.1-0.3,1.6-0.6c0.5-0.2,0.9-0.5,1.2-0.7c0.3-0.3,0.6-0.5,0.8-0.6c0.1-0.1,0.3-0.3,0.4-0.5
			c0.1-0.2,0.3-0.4,0.5-0.8h-8.4v-6.4h17.9c-0.1,1.2-0.2,2.3-0.3,3.3c-0.1,1-0.3,2-0.6,3c-0.3,0.9-0.6,1.9-1,2.7
			C189.1,226,188.6,226.8,187.8,227.7z"/>
		<path class="st1" d="M209.9,233.1l-1.5-4.3h-10.2l-1.4,4.3H188l12.2-30.5h6.3l12.3,30.5H209.9z M203.2,213.1l-3,9.4h6.2
			L203.2,213.1z"/>
		<path class="st1" d="M232.9,233.1l-6.2-9.7v9.7H219v-30.4h11.3c1.4,0,2.8,0.1,4,0.3c1.2,0.2,2.5,0.8,3.7,1.7
			c0.4,0.3,0.8,0.7,1.2,1.1s0.8,1.1,1.2,1.7c0.4,0.7,0.7,1.5,1,2.4c0.3,0.9,0.4,1.9,0.4,3.1c0,1.2-0.1,2.3-0.4,3.2
			c-0.3,0.9-0.6,1.7-1.1,2.4c-0.4,0.7-0.9,1.2-1.3,1.7c-0.5,0.4-0.9,0.8-1.3,1.1c-0.3,0.2-0.6,0.4-1,0.6c-0.3,0.2-0.9,0.4-1.7,0.7
			l7.4,10.4H232.9z M233.5,211.2c-0.5-0.8-1.1-1.2-1.8-1.4c-0.7-0.2-1.5-0.2-2.3-0.2h-2.6v8.3h2.5c0.1,0,0.2,0,0.3,0
			c0.2,0,0.4,0,0.5,0c0.2,0,0.4-0.1,0.6-0.1c0.2,0,0.4-0.1,0.6-0.1c0.3-0.1,0.5-0.2,0.9-0.4c0.3-0.2,0.6-0.4,0.9-0.8
			c0.3-0.3,0.5-0.7,0.7-1.2c0.2-0.5,0.3-1.1,0.3-1.7c0-0.4,0-0.8-0.1-1.2C233.8,211.9,233.7,211.5,233.5,211.2z"/>
		<path class="st1" d="M254.4,233.1h-11.8v-30.4h11.9c2.1,0,4.1,0.4,6,1.2c1.8,0.8,3.5,1.9,4.8,3.2s2.5,3,3.2,4.8
			c0.8,1.8,1.2,3.8,1.2,5.9c0,2.1-0.4,4.1-1.2,5.9c-0.8,1.8-1.9,3.4-3.3,4.8c-1.4,1.4-3,2.5-4.9,3.2
			C258.5,232.7,256.5,233.1,254.4,233.1z M253.9,209.6h-3.5v16.5h3.5c1.1,0,2.2-0.2,3.1-0.6c1-0.4,1.8-1,2.5-1.8
			c0.7-0.7,1.3-1.6,1.7-2.6c0.4-1,0.6-2.1,0.6-3.2c0-1.1-0.2-2.2-0.6-3.2c-0.4-1-1-1.9-1.7-2.6c-0.7-0.7-1.6-1.3-2.5-1.8
			S255.1,209.6,253.9,209.6z"/>
		<path class="st1" d="M270.6,233.1v-30.4h17.2v6.8h-9.2v4.5h9.2v7.2h-9.2v4.9h9.3v7H270.6z"/>
		<path class="st1" d="M308.2,233.1l-11.4-16.6v16.6h-7.6v-30.4h6.8c1.3,1.9,2.7,3.8,4,5.6s2.6,3.7,3.9,5.7l3.6,5.5v-16.7h7.7v30.4
			H308.2z"/>
		<path class="st1" d="M337.9,233.1l-6.2-9.7v9.7H324v-30.4h11.3c1.4,0,2.8,0.1,4,0.3c1.2,0.2,2.5,0.8,3.7,1.7
			c0.4,0.3,0.8,0.7,1.2,1.1s0.8,1.1,1.2,1.7c0.4,0.7,0.7,1.5,1,2.4c0.3,0.9,0.4,1.9,0.4,3.1c0,1.2-0.1,2.3-0.4,3.2
			c-0.3,0.9-0.6,1.7-1.1,2.4c-0.4,0.7-0.9,1.2-1.3,1.7s-0.9,0.8-1.3,1.1c-0.3,0.2-0.6,0.4-1,0.6s-0.9,0.4-1.7,0.7l7.4,10.4H337.9z
			 M338.5,211.2c-0.5-0.8-1.1-1.2-1.8-1.4c-0.7-0.2-1.5-0.2-2.3-0.2h-2.6v8.3h2.5c0.1,0,0.2,0,0.3,0c0.2,0,0.4,0,0.5,0
			c0.2,0,0.4-0.1,0.6-0.1c0.2,0,0.4-0.1,0.6-0.1c0.3-0.1,0.5-0.2,0.9-0.4c0.3-0.2,0.6-0.4,0.9-0.8c0.3-0.3,0.5-0.7,0.7-1.2
			c0.2-0.5,0.3-1.1,0.3-1.7c0-0.4,0-0.8-0.1-1.2C338.9,211.9,338.7,211.5,338.5,211.2z"/>
		<path class="st1" d="M347.6,233.1v-30.4h17.2v6.8h-9.2v4.5h9.2v7.2h-9.2v4.9h9.3v7H347.6z"/>
		<path class="st1" d="M382.6,231.6c-0.7,0.5-1.4,0.9-2,1.2c-0.6,0.3-1.2,0.5-1.8,0.6c-0.6,0.1-1.1,0.2-1.5,0.2c-0.5,0-0.9,0-1.2,0
			c-1.5,0-2.8-0.2-3.9-0.6c-1.1-0.4-2-0.9-2.8-1.5c-0.8-0.6-1.4-1.2-1.8-1.9c-0.5-0.7-0.8-1.3-1-1.9c-0.3-0.7-0.4-1.5-0.5-2.2
			s-0.1-1.6-0.2-2.5h7.4c0,0.7,0.1,1.4,0.2,2.1c0.1,0.6,0.5,1.2,1.2,1.5c0.1,0.1,0.3,0.2,0.6,0.3s0.5,0.1,0.9,0.1
			c0.8,0,1.4-0.2,1.9-0.7c0.5-0.5,0.7-1.1,0.7-1.8c0-0.9-0.3-1.6-0.8-2.1c-0.6-0.5-1.2-0.9-1.9-1.3l-1.4-0.6
			c-0.6-0.2-1.1-0.5-1.7-0.7c-0.5-0.2-1.1-0.5-1.6-0.8c-0.3-0.2-0.8-0.5-1.4-0.9c-0.6-0.4-1.1-0.9-1.6-1.5s-1-1.4-1.4-2.3
			c-0.4-0.9-0.6-2-0.6-3.2c0-0.3,0-0.8,0.1-1.2c0-0.5,0.2-1,0.3-1.5c0.2-0.6,0.5-1.1,0.8-1.7s0.9-1.2,1.5-1.8
			c0.7-0.7,1.4-1.2,2.1-1.6c0.7-0.4,1.5-0.7,2.2-0.9c0.7-0.2,1.3-0.3,1.9-0.4c0.6-0.1,1-0.1,1.4-0.1s0.8,0,1.4,0.1s1.3,0.2,2,0.5
			c0.9,0.3,1.7,0.7,2.4,1.2c0.7,0.5,1.2,0.9,1.7,1.5c0.4,0.5,0.8,1,1.1,1.5c0.3,0.5,0.5,0.9,0.6,1.3c0.1,0.2,0.1,0.3,0.2,0.5
			c0.1,0.1,0.1,0.3,0.1,0.4c0.1,0.1,0.1,0.3,0.1,0.5c0,0.2,0,0.3,0.1,0.5c0.1,0.3,0.1,0.6,0.1,0.9s0,0.6,0.1,1h-7.2
			c0-0.4,0-0.7,0-0.9s0-0.3-0.1-0.5c-0.1-0.5-0.4-0.9-0.9-1.2c-0.4-0.3-0.9-0.4-1.5-0.4c-0.7,0-1.3,0.2-1.7,0.6
			c-0.4,0.4-0.6,1-0.6,1.8c0,0.3,0,0.6,0.2,0.8c0.1,0.2,0.2,0.4,0.3,0.5c0.3,0.4,0.8,0.8,1.4,1.2c0.3,0.2,0.7,0.3,1.1,0.5
			c0.4,0.2,0.9,0.4,1.4,0.6c1.3,0.6,2.4,1.1,3.2,1.6s1.4,0.9,1.8,1.3c0.2,0.2,0.4,0.4,0.6,0.6c0.3,0.2,0.5,0.5,0.8,0.9
			c0.7,1,1.2,1.9,1.3,2.8c0.1,0.8,0.2,1.5,0.2,2c0,0.5,0,1-0.1,1.6c-0.1,0.6-0.2,1.3-0.5,2c-0.3,0.7-0.7,1.4-1.2,2.2
			C384.3,230.2,383.6,231,382.6,231.6z"/>
		<path class="st1" d="M415,228.1c-1.5,1.8-3.3,3.2-5.4,4.1c-2.1,1-4.4,1.4-6.7,1.4c-2.1,0-4.1-0.4-6-1.2s-3.7-2-5.1-3.4
			c-1.5-1.5-2.6-3.2-3.4-5.1s-1.2-4-1.2-6c0-0.5,0-1.1,0.1-1.8c0.1-0.7,0.2-1.6,0.5-2.5c0.3-0.9,0.6-1.9,1.1-2.9c0.5-1,1.2-2,2-3
			c0.7-0.9,1.5-1.6,2.5-2.3c0.9-0.7,1.9-1.3,2.9-1.7c1-0.5,2.1-0.8,3.2-1.1s2.3-0.4,3.4-0.4c1.3,0,2.5,0.1,3.6,0.4
			c1.1,0.3,2.1,0.6,3,1c0.9,0.4,1.6,0.8,2.3,1.2c0.6,0.4,1.1,0.8,1.5,1.1c1.7,1.5,3.1,3.3,4.1,5.4c1,2.1,1.5,4.3,1.5,6.7
			c0,0.5,0,1.1-0.1,1.8c-0.1,0.7-0.2,1.6-0.5,2.5c-0.3,0.9-0.6,1.9-1.1,2.9C416.5,226.1,415.8,227.1,415,228.1z M410.9,214.9
			c-0.3-0.8-0.7-1.6-1.3-2.3c-0.5-0.7-1.1-1.3-1.8-1.7c-0.7-0.5-1.5-0.9-2.3-1.1c-0.8-0.3-1.7-0.4-2.6-0.4c-0.3,0-0.6,0-1.1,0.1
			c-0.5,0.1-1,0.2-1.5,0.3c-0.5,0.2-1.1,0.4-1.7,0.7c-0.6,0.3-1.2,0.7-1.7,1.2c-0.8,0.8-1.5,1.7-1.9,2.8c-0.4,1.1-0.6,2.2-0.6,3.3
			c0,0.3,0,0.6,0.1,1.1c0,0.5,0.2,1,0.3,1.5c0.2,0.5,0.4,1.1,0.8,1.7c0.3,0.6,0.8,1.2,1.4,1.7c0.8,0.8,1.7,1.4,2.8,1.8
			c1.1,0.4,2.2,0.6,3.2,0.6c0.8,0,1.6-0.1,2.3-0.3c0.7-0.2,1.3-0.4,1.8-0.7c0.5-0.3,1-0.6,1.3-0.9s0.6-0.6,0.8-0.8
			c0.2-0.2,0.4-0.5,0.7-0.8c0.3-0.3,0.5-0.8,0.8-1.3c0.2-0.5,0.4-1.1,0.6-1.7c0.2-0.6,0.3-1.3,0.3-2.1
			C411.4,216.8,411.2,215.8,410.9,214.9z"/>
		<path class="st1" d="M433.5,233.1l-6.2-9.7v9.7h-7.7v-30.4h11.3c1.4,0,2.8,0.1,4,0.3c1.2,0.2,2.5,0.8,3.7,1.7
			c0.4,0.3,0.8,0.7,1.2,1.1c0.4,0.5,0.8,1.1,1.2,1.7c0.4,0.7,0.7,1.5,1,2.4c0.3,0.9,0.4,1.9,0.4,3.1c0,1.2-0.1,2.3-0.4,3.2
			c-0.3,0.9-0.6,1.7-1.1,2.4c-0.4,0.7-0.9,1.2-1.3,1.7c-0.5,0.4-0.9,0.8-1.3,1.1c-0.3,0.2-0.6,0.4-1,0.6c-0.3,0.2-0.9,0.4-1.7,0.7
			l7.4,10.4H433.5z M434,211.2c-0.5-0.8-1.1-1.2-1.8-1.4c-0.7-0.2-1.5-0.2-2.3-0.2h-2.6v8.3h2.5c0.1,0,0.2,0,0.3,0
			c0.2,0,0.4,0,0.5,0c0.2,0,0.4-0.1,0.6-0.1c0.2,0,0.4-0.1,0.6-0.1c0.3-0.1,0.5-0.2,0.9-0.4c0.3-0.2,0.6-0.4,0.9-0.8
			c0.3-0.3,0.5-0.7,0.7-1.2s0.3-1.1,0.3-1.7c0-0.4,0-0.8-0.1-1.2C434.4,211.9,434.2,211.5,434,211.2z"/>
		<path class="st1" d="M456.2,209.6v23.5h-7.7v-23.5h-5.9v-6.8h19.7v6.9H456.2z"/>
		<path class="st1" d="M465,231.3c-0.5,0.6-1.1,1-1.7,1.2c-0.6,0.3-1.3,0.4-2.1,0.5h-0.8h-1.2v-3.6c1.3,0,2.1-0.2,2.5-0.8
			c0.4-0.5,0.5-1.4,0.4-2.6h-2.9v-7.2h7.1v7.7c0,0.9-0.1,1.7-0.2,2.4C466,229.8,465.6,230.6,465,231.3z"/>
		<path class="st1" d="M485.1,209.6v23.5h-7.7v-23.5h-5.9v-6.8h19.7v6.9H485.1z"/>
		<path class="st1" d="M492.5,233.1v-30.4h7.7v30.4H492.5z"/>
		<path class="st1" d="M517.9,231.6c-0.7,0.5-1.4,0.9-2,1.2c-0.6,0.3-1.2,0.5-1.8,0.6c-0.6,0.1-1.1,0.2-1.5,0.2c-0.5,0-0.9,0-1.2,0
			c-1.5,0-2.8-0.2-3.9-0.6c-1.1-0.4-2-0.9-2.8-1.5c-0.8-0.6-1.4-1.2-1.8-1.9c-0.5-0.7-0.8-1.3-1-1.9c-0.3-0.7-0.4-1.5-0.5-2.2
			s-0.1-1.6-0.2-2.5h7.4c0,0.7,0.1,1.4,0.2,2.1c0.1,0.6,0.5,1.2,1.2,1.5c0.1,0.1,0.3,0.2,0.6,0.3s0.5,0.1,0.9,0.1
			c0.8,0,1.4-0.2,1.9-0.7c0.5-0.5,0.7-1.1,0.7-1.8c0-0.9-0.3-1.6-0.8-2.1c-0.6-0.5-1.2-0.9-1.9-1.3l-1.4-0.6
			c-0.6-0.2-1.1-0.5-1.7-0.7c-0.5-0.2-1.1-0.5-1.6-0.8c-0.3-0.2-0.8-0.5-1.4-0.9c-0.6-0.4-1.1-0.9-1.6-1.5s-1-1.4-1.4-2.3
			c-0.4-0.9-0.6-2-0.6-3.2c0-0.3,0-0.8,0.1-1.2c0-0.5,0.2-1,0.3-1.5c0.2-0.6,0.5-1.1,0.8-1.7s0.9-1.2,1.5-1.8
			c0.7-0.7,1.4-1.2,2.1-1.6c0.7-0.4,1.5-0.7,2.2-0.9c0.7-0.2,1.3-0.3,1.9-0.4c0.6-0.1,1-0.1,1.4-0.1s0.8,0,1.4,0.1s1.3,0.2,2,0.5
			c0.9,0.3,1.7,0.7,2.4,1.2c0.7,0.5,1.2,0.9,1.7,1.5c0.4,0.5,0.8,1,1.1,1.5c0.3,0.5,0.5,0.9,0.6,1.3c0.1,0.2,0.1,0.3,0.2,0.5
			c0.1,0.1,0.1,0.3,0.1,0.4c0.1,0.1,0.1,0.3,0.1,0.5c0,0.2,0,0.3,0.1,0.5c0.1,0.3,0.1,0.6,0.1,0.9s0,0.6,0.1,1h-7.2
			c0-0.4,0-0.7,0-0.9s0-0.3-0.1-0.5c-0.1-0.5-0.4-0.9-0.9-1.2c-0.4-0.3-0.9-0.4-1.5-0.4c-0.7,0-1.3,0.2-1.7,0.6
			c-0.4,0.4-0.6,1-0.6,1.8c0,0.3,0,0.6,0.2,0.8c0.1,0.2,0.2,0.4,0.3,0.5c0.3,0.4,0.8,0.8,1.4,1.2c0.3,0.2,0.7,0.3,1.1,0.5
			c0.4,0.2,0.9,0.4,1.4,0.6c1.3,0.6,2.4,1.1,3.2,1.6s1.4,0.9,1.8,1.3c0.2,0.2,0.4,0.4,0.6,0.6c0.3,0.2,0.5,0.5,0.8,0.9
			c0.7,1,1.2,1.9,1.3,2.8c0.1,0.8,0.2,1.5,0.2,2c0,0.5,0,1-0.1,1.6c-0.1,0.6-0.2,1.3-0.5,2c-0.3,0.7-0.7,1.4-1.2,2.2
			C519.5,230.2,518.8,231,517.9,231.6z"/>
		<path class="st1" d="M541.7,233.1l-11.4-16.6v16.6h-7.6v-30.4h6.8c1.3,1.9,2.7,3.8,4,5.6s2.6,3.7,3.9,5.7l3.6,5.5v-16.7h7.7v30.4
			H541.7z"/>
		<path class="st1" d="M577.3,228.1c-1.5,1.8-3.3,3.2-5.4,4.1c-2.1,1-4.4,1.4-6.7,1.4c-2.1,0-4.1-0.4-6-1.2s-3.7-2-5.1-3.4
			c-1.5-1.5-2.6-3.2-3.4-5.1s-1.2-4-1.2-6c0-0.5,0-1.1,0.1-1.8c0.1-0.7,0.2-1.6,0.5-2.5c0.3-0.9,0.6-1.9,1.1-2.9c0.5-1,1.2-2,2-3
			c0.7-0.9,1.5-1.6,2.5-2.3c0.9-0.7,1.9-1.3,2.9-1.7c1-0.5,2.1-0.8,3.2-1.1s2.3-0.4,3.4-0.4c1.3,0,2.5,0.1,3.6,0.4
			c1.1,0.3,2.1,0.6,3,1c0.9,0.4,1.6,0.8,2.3,1.2c0.6,0.4,1.1,0.8,1.5,1.1c1.7,1.5,3.1,3.3,4.1,5.4c1,2.1,1.5,4.3,1.5,6.7
			c0,0.5,0,1.1-0.1,1.8c-0.1,0.7-0.2,1.6-0.5,2.5c-0.3,0.9-0.6,1.9-1.1,2.9C578.8,226.1,578.1,227.1,577.3,228.1z M573.2,214.9
			c-0.3-0.8-0.7-1.6-1.3-2.3c-0.5-0.7-1.1-1.3-1.8-1.7c-0.7-0.5-1.5-0.9-2.3-1.1c-0.8-0.3-1.7-0.4-2.6-0.4c-0.3,0-0.6,0-1.1,0.1
			c-0.5,0.1-1,0.2-1.5,0.3c-0.5,0.2-1.1,0.4-1.7,0.7c-0.6,0.3-1.2,0.7-1.7,1.2c-0.8,0.8-1.5,1.7-1.9,2.8c-0.4,1.1-0.6,2.2-0.6,3.3
			c0,0.3,0,0.6,0.1,1.1c0,0.5,0.2,1,0.3,1.5c0.2,0.5,0.4,1.1,0.8,1.7c0.3,0.6,0.8,1.2,1.4,1.7c0.8,0.8,1.7,1.4,2.8,1.8
			c1.1,0.4,2.2,0.6,3.2,0.6c0.8,0,1.6-0.1,2.3-0.3c0.7-0.2,1.3-0.4,1.8-0.7c0.5-0.3,1-0.6,1.3-0.9s0.6-0.6,0.8-0.8
			c0.2-0.2,0.4-0.5,0.7-0.8c0.3-0.3,0.5-0.8,0.8-1.3c0.2-0.5,0.4-1.1,0.6-1.7c0.2-0.6,0.3-1.3,0.3-2.1
			C573.7,216.8,573.6,215.8,573.2,214.9z"/>
		<path class="st1" d="M177.3,263.4c-1.5,1.7-3.3,3-5.4,4c-2.1,0.9-4.3,1.4-6.6,1.4c-2.1,0-4.1-0.4-6-1.2c-2-0.8-3.7-2-5.1-3.4
			c-1.5-1.5-2.6-3.2-3.4-5.1c-0.8-2-1.2-4-1.2-6.1c0-2,0.4-3.9,1.1-5.7c0.7-1.8,1.7-3.5,3-4.9c1.5-1.7,3.3-3,5.3-3.9
			c2.1-0.9,4.2-1.4,6.5-1.4c0.5,0,1.1,0,1.8,0.1c0.8,0.1,1.6,0.2,2.5,0.5s1.9,0.7,2.9,1.2c1,0.5,2,1.2,3.1,2
			c1.7,1.5,3.1,3.3,4.1,5.4c1,2.1,1.5,4.3,1.5,6.7c0,1.9-0.3,3.7-1,5.5C179.6,260.3,178.6,262,177.3,263.4z M172,247.5
			c-0.6-0.7-1.2-1.2-1.8-1.6c-0.6-0.4-1.2-0.7-1.8-0.9c-0.6-0.2-1.2-0.4-1.7-0.4c-0.5-0.1-0.9-0.1-1.2-0.1c-1.2,0-2.4,0.3-3.5,0.8
			c-1.5,0.7-2.7,1.7-3.6,3.1s-1.4,2.9-1.4,4.6c0,0.3,0,0.6,0.1,1.1c0,0.5,0.2,1,0.3,1.5s0.4,1.1,0.8,1.7c0.3,0.6,0.8,1.2,1.4,1.8
			c0.8,0.8,1.8,1.4,2.8,1.8c1,0.4,2.1,0.6,3.2,0.6c0.3,0,0.6,0,1-0.1c0.4,0,0.8-0.1,1.3-0.3c0.5-0.1,1-0.3,1.5-0.6
			c0.5-0.3,1.1-0.6,1.6-1.1c0.7-0.5,1.2-1.1,1.6-1.8c0.4-0.6,0.7-1.3,0.9-1.9c0.2-0.6,0.4-1.2,0.4-1.7c0.1-0.5,0.1-0.9,0.1-1.2
			C173.9,250.9,173.2,249.1,172,247.5z"/>
		<path class="st1" d="M199.6,266.9c-0.6,0.4-1.4,0.8-2.6,1.2c-1.1,0.4-2.6,0.6-4.3,0.6c-0.4,0-1,0-1.8-0.1
			c-0.8-0.1-1.7-0.3-2.7-0.6c-0.9-0.3-1.8-0.8-2.6-1.4c-0.8-0.6-1.5-1.3-2.1-2.1c-0.6-0.8-1-1.6-1.4-2.6c-0.3-0.9-0.5-1.9-0.5-2.9
			c0-1,0.1-1.8,0.4-2.6c0.3-0.8,0.6-1.4,1-2c0.4-0.6,0.8-1,1.2-1.4c0.4-0.4,0.7-0.6,1-0.8l1.1-0.7c-0.5-0.4-0.9-0.7-1.2-1
			s-0.5-0.5-0.7-0.8c-0.3-0.4-0.6-1-0.8-1.6c-0.2-0.6-0.3-1.4-0.3-2.3c0-0.9,0.1-1.7,0.3-2.2c0.2-0.6,0.4-1,0.6-1.3
			c0.3-0.5,0.6-1,1-1.6c0.4-0.6,1-1.2,1.8-1.7c0.7-0.5,1.6-1,2.6-1.3c1-0.4,2.2-0.5,3.6-0.5c0.3,0,0.6,0,1,0c0.4,0,0.9,0.1,1.4,0.2
			c0.5,0.1,1,0.3,1.6,0.5c0.6,0.2,1.1,0.5,1.7,0.9c1,0.7,1.8,1.7,2.5,2.8c0.7,1.1,1,2.4,1,3.7c0,1.2-0.2,2.2-0.6,3s-0.7,1.4-1,1.7
			c-0.1,0.2-0.3,0.4-0.5,0.6c-0.2,0.2-0.5,0.4-0.9,0.7c0.4,0.2,0.7,0.4,0.8,0.5c0.2,0.1,0.3,0.2,0.4,0.3c0.1,0.1,0.2,0.1,0.3,0.2
			c0.1,0.1,0.2,0.2,0.3,0.2c0.7,0.5,1.2,1.1,1.6,1.7c0.4,0.6,0.7,1.3,0.9,1.9c0.2,0.6,0.3,1.2,0.4,1.7c0.1,0.5,0.1,0.9,0.1,1.2
			c0,1.1-0.2,2.1-0.5,3c-0.4,0.9-0.8,1.6-1.2,2.3c-0.5,0.7-1,1.2-1.4,1.6C200.3,266.4,199.9,266.7,199.6,266.9z M192.9,255
			c-0.5,0-1,0.1-1.4,0.3c-0.4,0.2-0.8,0.4-1.1,0.8c-0.3,0.3-0.6,0.7-0.8,1.1c-0.2,0.4-0.3,0.9-0.3,1.4c0.1,0.2,0.1,0.4,0.1,0.6
			c0,0.2,0,0.3,0.1,0.4c0.1,0.6,0.4,1.1,0.9,1.5c0.5,0.5,0.9,0.7,1.4,0.9c0.5,0.1,0.8,0.2,1.1,0.2c1,0,1.8-0.4,2.5-1.1
			c0.7-0.7,1-1.5,1-2.5c0-0.5-0.1-1-0.3-1.4c-0.2-0.4-0.4-0.8-0.8-1.1c-0.3-0.3-0.7-0.6-1.1-0.8S193.3,255,192.9,255z M192.8,243.6
			c-0.8,0-1.5,0.3-2,0.8c-0.5,0.5-0.8,1.2-0.8,2c0,0.2,0,0.4,0.1,0.8c0.1,0.4,0.3,0.7,0.7,1.1c0.4,0.4,0.8,0.6,1.1,0.7
			c0.4,0.1,0.6,0.1,0.8,0.1c0.8,0,1.5-0.3,2-0.8c0.5-0.5,0.8-1.2,0.8-2c0-0.8-0.3-1.5-0.8-2C194.3,243.9,193.6,243.6,192.8,243.6z"
			/>
		<path class="st1" d="M208.3,260.1v-7.1h20.4v7.1H208.3z"/>
		<path class="st1" d="M233.1,268.1v-24.6h-3.5v-5.8h11.1v30.4H233.1z"/>
		<path class="st1" d="M259.7,266.2c-1.1,0.9-2.2,1.6-3.4,1.9c-1.2,0.4-2.5,0.6-3.9,0.6c-1.1,0-2.1-0.1-3.1-0.3
			c-1-0.2-2-0.6-2.9-1.1c-0.9-0.5-1.7-1.1-2.4-1.8c-0.7-0.8-1.3-1.7-1.7-2.7c-0.1-0.3-0.2-0.6-0.3-0.9c-0.1-0.3-0.1-0.6-0.2-0.9
			c-0.1-0.2-0.1-0.5-0.1-0.8c0-0.3-0.1-0.7-0.1-1.1h7.7c0,0.2,0,0.3,0,0.5s0,0.2,0,0.3c0,0.1,0,0.2,0.1,0.3c0,0.1,0,0.2,0.1,0.3
			c0.2,0.6,0.6,1,1.1,1.4c0.5,0.3,1.1,0.5,1.7,0.5c0.9,0,1.6-0.3,2.2-0.9c0.5-0.6,0.8-1.4,0.8-2.2c0-0.3-0.1-0.6-0.2-1.2
			c-0.1-0.5-0.5-1-1-1.4c-0.5-0.3-1-0.5-1.4-0.6c-0.5-0.1-1-0.1-1.5-0.1h-2V250h1.1c0.7,0,1.4-0.1,2-0.3c0.6-0.2,1.1-0.6,1.5-1.3
			c0.1-0.2,0.2-0.5,0.3-0.8c0.1-0.3,0.1-0.8,0.1-1.3c0-0.7-0.2-1.3-0.5-1.8s-0.8-0.8-1.6-0.8c-0.7,0-1.2,0.2-1.6,0.7
			c-0.4,0.5-0.6,1-0.7,1.5v0.6h-7.4c0.1-0.7,0.2-1.4,0.3-2c0.1-0.6,0.2-1.2,0.4-1.7c0.2-0.5,0.4-1,0.8-1.5c0.3-0.5,0.8-1,1.3-1.5
			c0.1-0.1,0.5-0.4,0.9-0.8c0.5-0.4,1.1-0.7,1.7-1c0.2-0.1,0.5-0.2,0.7-0.3c0.3-0.1,0.6-0.2,1.1-0.3c0.2-0.1,0.6-0.1,1-0.2
			c0.5-0.1,1-0.1,1.6-0.1c0.9,0,1.6,0.1,2.3,0.2c0.7,0.2,1.2,0.3,1.4,0.4c1.6,0.6,3,1.6,4,2.9c1,1.3,1.5,2.9,1.5,4.7
			c0,2.1-0.8,3.9-2.3,5.3c-0.1,0.1-0.3,0.2-0.5,0.4c-0.2,0.1-0.5,0.4-0.9,0.6l1.5,0.8c1.1,0.6,1.9,1.2,2.3,1.9
			c0.4,0.7,0.8,1.3,1,1.7c0.1,0.2,0.2,0.6,0.3,1.1c0.1,0.5,0.2,1.1,0.2,1.8c0,0.4,0,0.8-0.1,1.4c-0.1,0.5-0.3,1.1-0.5,1.8
			c-0.2,0.6-0.6,1.3-1.1,2C261.1,264.9,260.5,265.6,259.7,266.2z"/>
		<path class="st1" d="M293.2,268.1l-1.5-4.3h-10.2l-1.4,4.3h-8.7l12.2-30.5h6.3l12.3,30.5H293.2z M286.5,248.1l-3,9.4h6.2
			L286.5,248.1z"/>
		<path class="st1" d="M322.8,260.5c-0.1,0.3-0.2,0.7-0.3,1.2c-0.1,0.5-0.4,1-0.7,1.5c-0.3,0.5-0.7,1.1-1.2,1.7
			c-0.5,0.6-1.1,1.2-1.9,1.7c-0.7,0.5-1.5,1-2.6,1.4c-1.1,0.5-2.6,0.7-4.4,0.7c-1.8,0-3.3-0.2-4.5-0.7c-1.2-0.5-2.3-1.1-3.1-1.8
			c-0.8-0.7-1.5-1.5-2-2.3c-0.5-0.8-0.8-1.6-1-2.3c-0.1-0.3-0.2-0.7-0.3-1.1c-0.1-0.4-0.1-0.7-0.2-1.2c0-0.4-0.1-0.9-0.1-1.4
			c0-0.5,0-1.2,0-1.9v-18.3h7.7V257c0,0.7,0.1,1.4,0.3,2.1c0.2,0.6,0.6,1.2,1.3,1.7c0.2,0.1,0.4,0.2,0.6,0.3
			c0.2,0.1,0.4,0.1,0.6,0.2c0.2,0,0.3,0,0.5,0c0.2,0,0.3,0,0.4,0c1,0,1.9-0.3,2.6-1c0.7-0.6,1.1-1.5,1.1-2.5v-1v-19.1h7.7V255
			c0,0.9,0,1.8,0,2.8C323.2,258.7,323,259.6,322.8,260.5z"/>
		<path class="st1" d="M352.2,262.7c-1.5,1.9-3.4,3.4-5.6,4.4c-2.2,1-4.5,1.5-6.9,1.5c-0.5,0-1.1,0-1.8-0.1
			c-0.7-0.1-1.5-0.2-2.3-0.5c-0.8-0.2-1.7-0.6-2.7-1c-0.9-0.4-1.9-1.1-2.9-1.8c-0.5-0.4-1.1-0.9-1.8-1.6c-0.7-0.7-1.3-1.6-2-2.6
			c-0.6-1-1.1-2.2-1.6-3.5c-0.4-1.3-0.6-2.9-0.6-4.6c0-1.8,0.2-3.4,0.7-4.8c0.5-1.4,1-2.6,1.7-3.7c0.7-1,1.4-1.9,2.1-2.6
			c0.7-0.7,1.4-1.2,1.9-1.6c2.7-2,5.8-3,9.2-3c1.9,0,3.5,0.2,5,0.7c1.4,0.5,2.7,1.1,3.8,1.8c1.1,0.7,2,1.5,2.7,2.2
			c0.7,0.8,1.2,1.4,1.6,2c0.2,0.3,0.3,0.5,0.5,0.7c0.1,0.2,0.3,0.5,0.4,0.8c0.1,0.3,0.3,0.6,0.5,1s0.4,0.9,0.6,1.4H346l-0.3-0.5
			l-0.1-0.1l-0.1-0.2l-0.3-0.3c-0.7-0.7-1.5-1.1-2.5-1.4c-0.9-0.3-1.8-0.4-2.8-0.4c-0.3,0-0.7,0-1.3,0.1c-0.5,0.1-1.2,0.2-1.9,0.6
			c-0.7,0.3-1.4,0.7-2,1.2c-0.6,0.5-1.1,1.1-1.5,1.7c-0.4,0.6-0.8,1.4-1,2.1c-0.2,0.8-0.3,1.6-0.3,2.4c0,0.5,0.1,1.3,0.3,2.1
			c0.2,0.9,0.7,1.8,1.5,2.8c0.2,0.2,0.4,0.5,0.8,0.9c0.4,0.3,0.8,0.7,1.4,1c0.5,0.3,1.1,0.6,1.8,0.8s1.4,0.3,2.3,0.3
			c0.7,0,1.4-0.1,2-0.2s1.1-0.3,1.6-0.6c0.5-0.2,0.9-0.5,1.2-0.7c0.3-0.3,0.6-0.5,0.8-0.6c0.1-0.1,0.3-0.3,0.4-0.5
			c0.1-0.2,0.3-0.4,0.5-0.8h-8.4v-6.4h17.9c-0.1,1.2-0.2,2.3-0.3,3.3c-0.1,1-0.3,2-0.6,3c-0.3,0.9-0.6,1.9-1,2.7
			C353.5,261,352.9,261.8,352.2,262.7z"/>
		<path class="st1" d="M379,260.5c-0.1,0.3-0.2,0.7-0.3,1.2c-0.1,0.5-0.4,1-0.7,1.5c-0.3,0.5-0.7,1.1-1.2,1.7
			c-0.5,0.6-1.1,1.2-1.9,1.7c-0.7,0.5-1.5,1-2.6,1.4c-1.1,0.5-2.6,0.7-4.4,0.7c-1.8,0-3.3-0.2-4.5-0.7c-1.2-0.5-2.3-1.1-3.1-1.8
			c-0.8-0.7-1.5-1.5-2-2.3c-0.5-0.8-0.8-1.6-1-2.3c-0.1-0.3-0.2-0.7-0.3-1.1c-0.1-0.4-0.1-0.7-0.2-1.2c0-0.4-0.1-0.9-0.1-1.4
			c0-0.5,0-1.2,0-1.9v-18.3h7.7V257c0,0.7,0.1,1.4,0.3,2.1s0.6,1.2,1.3,1.7c0.2,0.1,0.4,0.2,0.6,0.3c0.2,0.1,0.4,0.1,0.6,0.2
			c0.2,0,0.3,0,0.5,0c0.2,0,0.3,0,0.4,0c1,0,1.9-0.3,2.6-1c0.7-0.6,1.1-1.5,1.1-2.5v-1v-19.1h7.7V255c0,0.9,0,1.8,0,2.8
			S379.2,259.6,379,260.5z"/>
		<path class="st1" d="M397.1,266.6c-0.7,0.5-1.4,0.9-2,1.2c-0.6,0.3-1.2,0.5-1.8,0.6c-0.6,0.1-1.1,0.2-1.5,0.2c-0.5,0-0.9,0-1.2,0
			c-1.5,0-2.8-0.2-3.9-0.6c-1.1-0.4-2-0.9-2.8-1.5c-0.8-0.6-1.4-1.2-1.8-1.9c-0.5-0.7-0.8-1.3-1-1.9c-0.3-0.7-0.4-1.5-0.5-2.2
			s-0.1-1.6-0.2-2.5h7.4c0,0.7,0.1,1.4,0.2,2.1c0.1,0.6,0.5,1.2,1.2,1.5c0.1,0.1,0.3,0.2,0.6,0.3s0.5,0.1,0.9,0.1
			c0.8,0,1.4-0.2,1.9-0.7c0.5-0.5,0.7-1.1,0.7-1.8c0-0.9-0.3-1.6-0.8-2.1c-0.6-0.5-1.2-0.9-1.9-1.3l-1.4-0.6
			c-0.6-0.2-1.1-0.5-1.7-0.7c-0.5-0.2-1.1-0.5-1.6-0.8c-0.3-0.2-0.8-0.5-1.4-0.9c-0.6-0.4-1.1-0.9-1.6-1.5s-1-1.4-1.4-2.3
			c-0.4-0.9-0.6-2-0.6-3.2c0-0.3,0-0.8,0.1-1.2c0-0.5,0.2-1,0.3-1.5c0.2-0.6,0.5-1.1,0.8-1.7s0.9-1.2,1.5-1.8
			c0.7-0.7,1.4-1.2,2.1-1.6c0.7-0.4,1.5-0.7,2.2-0.9c0.7-0.2,1.3-0.3,1.9-0.4c0.6-0.1,1-0.1,1.4-0.1s0.8,0,1.4,0.1s1.3,0.2,2,0.5
			c0.9,0.3,1.7,0.7,2.4,1.2c0.7,0.5,1.2,0.9,1.7,1.5c0.4,0.5,0.8,1,1.1,1.5c0.3,0.5,0.5,0.9,0.6,1.3c0.1,0.2,0.1,0.3,0.2,0.5
			c0.1,0.1,0.1,0.3,0.1,0.4c0.1,0.1,0.1,0.3,0.1,0.5c0,0.2,0,0.3,0.1,0.5c0.1,0.3,0.1,0.6,0.1,0.9s0,0.6,0.1,1h-7.2
			c0-0.4,0-0.7,0-0.9s0-0.3-0.1-0.5c-0.1-0.5-0.4-0.9-0.9-1.2c-0.4-0.3-0.9-0.4-1.5-0.4c-0.7,0-1.3,0.2-1.7,0.6
			c-0.4,0.4-0.6,1-0.6,1.8c0,0.3,0,0.6,0.2,0.8c0.1,0.2,0.2,0.4,0.3,0.5c0.3,0.4,0.8,0.8,1.4,1.2c0.3,0.2,0.7,0.3,1.1,0.5
			c0.4,0.2,0.9,0.4,1.4,0.6c1.3,0.6,2.4,1.1,3.2,1.6s1.4,0.9,1.8,1.3c0.2,0.2,0.4,0.4,0.6,0.6c0.3,0.2,0.5,0.5,0.8,0.9
			c0.7,1,1.2,1.9,1.3,2.8c0.1,0.8,0.2,1.5,0.2,2c0,0.5,0,1-0.1,1.6c-0.1,0.6-0.2,1.3-0.5,2c-0.3,0.7-0.7,1.4-1.2,2.2
			C398.7,265.2,398,266,397.1,266.6z"/>
		<path class="st1" d="M414.9,244.6v23.5h-7.7v-23.5h-5.9v-6.8H421v6.9H414.9z"/>
		<path class="st1" d="M430.3,268.1v-5.7c1-0.9,2-1.9,3-2.7c0.9-0.9,1.9-1.8,2.8-2.6l2.5-2.4c0.8-0.8,1.5-1.5,2.1-2.2
			c0.6-0.7,1.1-1.3,1.5-1.9c0.4-0.6,0.7-1.2,0.9-1.7c0.2-0.6,0.3-1.2,0.3-1.8c0-0.2,0-0.3,0-0.5s0-0.2-0.1-0.4c0-0.1,0-0.2-0.1-0.2
			c0-0.1,0-0.2-0.1-0.3c-0.2-0.5-0.5-1-1-1.3c-0.4-0.3-1-0.5-1.6-0.5c-0.5,0-1,0.1-1.4,0.4c-0.6,0.4-1,0.9-1.2,1.5
			c-0.2,0.6-0.3,1.3-0.3,1.9c0,0.2,0,0.4,0,0.5s0,0.4,0,0.7l-7.6,0v-1.3c0-0.3,0-0.6,0.1-0.9c0-0.3,0.1-0.6,0.2-1
			c0.1-0.7,0.4-1.5,0.7-2.2c0.3-0.8,0.8-1.5,1.4-2.3c0.3-0.4,0.8-0.9,1.3-1.4c0.5-0.5,1.1-0.9,1.8-1.3c0.7-0.4,1.6-0.7,2.5-1
			c1-0.3,2.1-0.4,3.4-0.4c0.3,0,0.6,0,1.1,0c0.4,0,0.9,0.1,1.5,0.2c0.6,0.1,1.2,0.3,1.8,0.5c0.6,0.2,1.3,0.5,1.9,0.9
			c0.3,0.3,0.7,0.6,1.1,1c0.4,0.4,0.9,0.9,1.3,1.5c0.4,0.6,0.8,1.3,1.1,2.2c0.3,0.8,0.4,1.8,0.4,2.8v0.6c0,0.1,0,0.2,0,0.3
			s0,0.2-0.1,0.4c-0.1,0.3-0.1,0.6-0.2,1c-0.1,0.3-0.2,0.7-0.3,1.1c-0.3,0.7-0.6,1.4-1,2c-0.4,0.7-0.9,1.3-1.4,1.9s-1,1.2-1.5,1.8
			c-0.5,0.6-1.1,1.2-1.6,1.7l-3.7,3.8h10v7.1H430.3z"/>
		<path class="st1" d="M480.4,263.4c-1.5,1.7-3.3,3-5.4,4c-2.1,0.9-4.3,1.4-6.6,1.4c-2.1,0-4.1-0.4-6-1.2s-3.7-2-5.1-3.4
			c-1.5-1.5-2.6-3.2-3.4-5.1c-0.8-2-1.2-4-1.2-6.1c0-2,0.4-3.9,1.1-5.7c0.7-1.8,1.7-3.5,3-4.9c1.5-1.7,3.3-3,5.3-3.9
			c2.1-0.9,4.2-1.4,6.5-1.4c0.5,0,1.1,0,1.8,0.1c0.8,0.1,1.6,0.2,2.5,0.5c0.9,0.3,1.9,0.7,2.9,1.2c1,0.5,2,1.2,3.1,2
			c1.7,1.5,3.1,3.3,4.1,5.4c1,2.1,1.5,4.3,1.5,6.7c0,1.9-0.3,3.7-1,5.5C482.7,260.3,481.7,262,480.4,263.4z M475.1,247.5
			c-0.6-0.7-1.2-1.2-1.8-1.6c-0.6-0.4-1.2-0.7-1.8-0.9c-0.6-0.2-1.2-0.4-1.7-0.4c-0.5-0.1-0.9-0.1-1.2-0.1c-1.2,0-2.4,0.3-3.5,0.8
			c-1.5,0.7-2.7,1.7-3.6,3.1c-0.9,1.4-1.4,2.9-1.4,4.6c0,0.3,0,0.6,0.1,1.1c0,0.5,0.2,1,0.3,1.5s0.4,1.1,0.8,1.7
			c0.3,0.6,0.8,1.2,1.4,1.8c0.8,0.8,1.8,1.4,2.8,1.8c1,0.4,2.1,0.6,3.2,0.6c0.3,0,0.6,0,1-0.1c0.4,0,0.8-0.1,1.3-0.3
			c0.5-0.1,1-0.3,1.5-0.6c0.5-0.3,1.1-0.6,1.6-1.1c0.7-0.5,1.2-1.1,1.6-1.8c0.4-0.6,0.7-1.3,0.9-1.9c0.2-0.6,0.4-1.2,0.4-1.7
			c0.1-0.5,0.1-0.9,0.1-1.2C477,250.9,476.4,249.1,475.1,247.5z"/>
		<path class="st1" d="M488.3,268.1v-24.6h-3.5v-5.8h11.1v30.4H488.3z"/>
		<path class="st1" d="M516.4,257.9l-6.7,10.2h-9.4l7.1-9.2c-0.8,0.1-1.5,0.1-2,0c-0.6,0-1.1-0.1-1.7-0.3c-1.1-0.3-2.1-0.8-2.9-1.5
			c-0.8-0.7-1.6-1.5-2.2-2.4c-0.6-0.9-1.1-1.9-1.4-3c-0.3-1.1-0.5-2.2-0.5-3.3c0-1.6,0.3-3.1,0.9-4.4c0.6-1.4,1.4-2.6,2.5-3.6
			c1-1,2.2-1.8,3.6-2.4c1.4-0.6,2.9-0.9,4.4-0.9c0.6,0,1.5,0.1,2.7,0.3c1.2,0.2,2.4,0.8,3.7,1.7c0.4,0.3,0.9,0.7,1.5,1.3
			c0.6,0.5,1.1,1.2,1.6,2c0.5,0.8,0.9,1.7,1.3,2.8c0.3,1.1,0.5,2.3,0.5,3.7c0,0.9-0.1,1.8-0.2,2.5s-0.4,1.5-0.6,2.2
			c-0.3,0.7-0.6,1.4-1,2.1C517.3,256.5,516.9,257.2,516.4,257.9z M510.9,245.8c-0.2-0.2-0.5-0.4-1-0.7c-0.5-0.3-1.1-0.4-1.8-0.4
			c-0.5,0-1.1,0.1-1.5,0.3c-0.5,0.2-0.9,0.5-1.3,0.9c-0.4,0.4-0.6,0.8-0.8,1.2c-0.2,0.5-0.3,1-0.3,1.5c0,0.6,0.1,1.1,0.3,1.6
			s0.5,0.9,0.9,1.2c0.4,0.3,0.8,0.6,1.3,0.8c0.5,0.2,1,0.3,1.5,0.3c1.1,0,2.1-0.4,2.8-1.2c0.7-0.8,1.1-1.7,1.1-2.8
			c0-0.3-0.1-0.7-0.2-1.2S511.5,246.3,510.9,245.8z"/>
	</g>
</g>
<g id="Layer_2">
</g>
</svg>
