<?xml version="1.0" encoding="utf-8"?>
<!-- Generator: Adobe Illustrator 22.1.0, SVG Export Plug-In . SVG Version: 6.00 Build 0)  -->
<svg version="1.1" xmlns="http://www.w3.org/2000/svg" xmlns:xlink="http://www.w3.org/1999/xlink" x="0px" y="0px"
	 viewBox="0 0 524.5 83.1" style="enable-background:new 0 0 524.5 83.1;" xml:space="preserve">
<style type="text/css">
	.st0{fill:#FFFFFF;}
	.st1{fill:#FFE843;}
	.st2{fill:#FAE945;}
	.st3{fill:#F22442;}
	.st4{fill:#1D2452;}
	.st5{fill:#FFD800;}
</style>
<g id="Layer_1">
	<g>
		<g>
			<path class="st0" d="M516.3,41.8c0,21-17.2,37.9-38.1,37.9l-26.9,0V3.9l27.1,0C499.3,3.8,516.3,20.8,516.3,41.8 M495.9,41.6
				c0-11.5-9-19.9-20.1-20l-4.5,0v40l4.5,0C486.9,61.7,495.9,53.2,495.9,41.6"/>
			<path class="st0" d="M128.4,41.6c0,22.1-18.1,40.1-40.2,40.1l-1.1,0V60.8h1.9c10.3,0,18.6-8.5,18.6-19.2
				c0-10.6-8.3-19.2-18.6-19.3l-1.9,0V1.6h1.2C110.4,1.6,128.4,19.5,128.4,41.6"/>
			<polygon class="st0" points="174.4,20.7 151.3,20.7 151.3,32.1 174.4,32.1 174.4,50 151.4,50 151.4,62.4 174.6,62.4 174.6,79.7 
				131.3,79.7 131.3,3.8 174.4,3.8 			"/>
			<polygon class="st0" points="223,20.9 198.3,20.9 198.3,33.1 222.9,33.1 222.9,50.8 198.3,50.8 198.3,79.7 179,79.7 179,3.8 
				223,3.8 			"/>
			<polygon class="st0" points="270.9,20.7 247.7,20.7 247.7,32.1 270.9,32.1 270.9,50 247.9,50 247.9,62.4 271.1,62.4 271.1,79.7 
				227.7,79.7 227.7,3.8 270.9,3.8 			"/>
			<path class="st0" d="M330.5,32.2c-0.5-1.1-1.2-1.9-1.8-2.9c-3.7-4.8-9.1-7.5-15.3-7.5c-4,0-6.8,1.1-8.2,1.7
				c-7.4,3.1-11.9,10.3-11.9,18.3c0.1,3.7,1,6.1,1.5,7.4c1.5,3.6,6.9,12.4,18.6,12.4c3.1,0,5.3-0.6,6.6-1.1c1.2-0.4,5.4-2.4,8.3-5.8
				c0.8-1,1.2-1.6,2.4-3.5h21.1c-1.6,4.9-2.6,7.1-3.8,9.4c-7.3,13.5-19.5,18.3-24.8,19.6c-1.6,0.4-5.1,1.1-9.5,1.1
				c-19.3,0-29.5-11.8-33.3-17.4c-2.5-3.5-6.6-10.5-6.6-21.4c0-20.6,13.5-31.3,19.7-34.9c3.1-1.8,10.1-5.2,19.8-5.2
				c4.9,0,15,0.9,25,9c9.4,7.6,12,16.6,13.3,21H330.5z"/>
			<polygon class="st0" points="398.3,20.9 383.1,20.9 383.1,79.7 363.9,79.7 363.9,20.8 349.1,20.8 349.1,3.8 398.3,3.8 			"/>
			<polygon class="st0" points="446.1,20.7 423,20.7 423,32.1 446.1,32.1 446.1,50 423.1,50 423.1,62.4 446.3,62.4 446.3,79.7 
				403,79.7 403,3.8 446.1,3.8 			"/>
			<polygon class="st0" points="507.6,5.6 507.6,3.8 514.6,3.8 514.6,5.6 512.2,5.6 512.2,12.1 510,12.1 510,5.6 			"/>
			<path class="st0" d="M522.4,6.3L522.4,6.3l-1.6,5.8h-1.8l-1.6-5.8l-0.1-0.4c0,0.2,0,6.2,0,6.2h-2V3.8h3l1.3,4.9
				c0.1,0.3,0.2,0.7,0.2,1.3c0,0.1,0,0.3,0,0.4c0-0.3,0-0.6,0-0.9c0-0.4,0.1-0.6,0.1-0.8l1.3-4.9h3v8.3h-2.1V6.3z"/>
		</g>
		<rect class="st5" width="83.1" height="83.1"/>
	</g>
</g>
<g id="Layer_2">
</g>
</svg>
