<?xml version="1.0" encoding="utf-8"?>
<!-- Generator: Adobe Illustrator 23.0.1, SVG Export Plug-In . SVG Version: 6.00 Build 0)  -->
<svg version="1.1" id="Layer_1" xmlns="http://www.w3.org/2000/svg" xmlns:xlink="http://www.w3.org/1999/xlink" x="0px" y="0px"
	 viewBox="0 0 496.91 159.14" style="enable-background:new 0 0 496.91 159.14;" xml:space="preserve">
<style type="text/css">
	.st0{fill:#FFFFFF;}
	.st1{clip-path:url(#SVGID_2_);fill:#FFFFFF;}
</style>
<path class="st0" d="M460.7,101.94c-3.41,4.17-7.85,6.25-13.31,6.25c-6.43,0-11.17-2.08-14.22-6.25c-3.05-4.16-4.58-9.97-4.58-17.41
	c0-4.4,0.52-8.12,1.56-11.17c1.04-3.04,2.45-5.52,4.22-7.45c1.77-1.92,3.78-3.32,6.02-4.2c2.25-0.88,4.58-1.32,6.99-1.32
	c0.56,0,1.59,0.08,3.07,0.24c1.49,0.16,3.07,0.64,4.76,1.44c1.69,0.8,3.35,2,5,3.61c1.65,1.6,3,3.88,4.04,6.85
	c0.64,1.68,1.06,3.44,1.26,5.28c0.2,1.84,0.3,3.8,0.3,5.88C465.82,91.69,464.11,97.78,460.7,101.94 M494.29,68.12
	c-1.75-5.77-4.57-11.01-8.46-15.73c-3.89-4.72-8.98-8.59-15.28-11.6c-6.29-3.02-14.03-4.52-23.2-4.52c-8.39,0-15.69,1.36-21.89,4.06
	c-6.21,2.71-11.39,6.36-15.54,10.95c-4.15,4.59-7.26,9.88-9.31,15.86c-2.05,5.99-3.08,12.31-3.08,18.95
	c0,5.24,0.79,10.77,2.36,16.58c1.57,5.81,4.26,11.12,8.06,15.93c3.8,4.81,8.87,8.78,15.21,11.93c6.34,3.15,14.23,4.72,23.66,4.72
	c9.09,0,16.8-1.51,23.14-4.52c6.33-3.01,11.51-6.93,15.53-11.73c4.02-4.8,6.93-10.2,8.72-16.19c1.79-5.99,2.69-11.91,2.69-17.76
	C496.91,79.52,496.03,73.89,494.29,68.12"/>
<polyline class="st0" points="139.28,130.99 167.19,130.99 167.19,39.39 141.39,39.39 141.39,80.17 112.75,39.39 82,39.39 
	82,130.99 107.81,130.99 107.81,86.87 "/>
<polygon class="st0" points="29.06,92.98 69.67,92.98 69.67,73.13 29.06,73.13 29.06,62.31 76.42,62.31 76.42,39.39 0,39.39 
	0,130.99 76.42,130.99 76.42,108.3 29.06,108.3 "/>
<polygon class="st0" points="173.02,61.97 196.25,61.97 196.25,130.99 225.31,130.99 225.31,61.97 248.54,61.97 248.54,39.26 
	173.02,39.26 "/>
<path class="st0" d="M304.81,75.27c-0.99,1.43-2.22,2.49-3.68,3.18c-1.46,0.69-2.99,1.1-4.58,1.23c-1.59,0.13-2.99,0.2-4.2,0.2
	h-8.27V58.47h8.14c1.29,0,2.73,0.06,4.32,0.19c1.59,0.13,3.12,0.54,4.58,1.23c1.46,0.69,2.69,1.78,3.68,3.25
	c0.99,1.47,1.48,3.5,1.48,6.1C306.29,71.83,305.8,73.84,304.81,75.27 M316.46,94.02c2.17-0.86,4.23-1.75,6.19-2.66
	c1.96-0.91,3.85-2.36,5.67-4.35c1.65-1.64,2.96-3.38,3.91-5.19c0.95-1.82,1.65-3.57,2.08-5.26c0.43-1.69,0.72-3.22,0.85-4.61
	c0.13-1.38,0.2-2.51,0.2-3.37c0-2.16-0.26-4.52-0.78-7.07c-0.52-2.55-1.38-5.06-2.6-7.52c-1.21-2.47-2.83-4.74-4.86-6.81
	c-2.03-2.07-4.56-3.76-7.59-5.06c-2.77-1.21-6.12-1.99-10.06-2.34c-3.94-0.34-8.11-0.52-12.52-0.52h-41.93v91.73h29.06V98.69h11.27
	l11.2,32.31h32.3L316.46,94.02z"/>
<polygon class="st0" points="376.87,29.06 376.87,39.04 387.6,39.04 381.22,131.17 386.58,131.17 398.14,28.89 "/>
<g>
	<defs>
		<path id="SVGID_1_" d="M365.74,85.35c-0.49-0.73-0.74-1.64-0.74-2.74s0.24-2.01,0.72-2.71c0.57-0.83,1.39-1.25,2.45-1.25
			c1.07,0,1.88,0.42,2.45,1.25c0.48,0.71,0.72,1.61,0.72,2.71s-0.25,2.01-0.75,2.74c-0.57,0.82-1.37,1.22-2.42,1.22
			C367.12,86.57,366.31,86.16,365.74,85.35 M336.35,29.53l10.19,101.49l28.32,13.53h0.21l2.43-129.96L336.35,29.53z"/>
	</defs>
	<use xlink:href="#SVGID_1_"  style="overflow:visible;fill:#FFFFFF;"/>
	<clipPath id="SVGID_2_">
		<use xlink:href="#SVGID_1_"  style="overflow:visible;"/>
	</clipPath>
	<rect x="336.35" y="14.59" class="st1" width="41.16" height="129.96"/>
</g>
</svg>
