<?xml version="1.0" encoding="utf-8"?>
<!-- Generator: Adobe Illustrator 22.1.0, SVG Export Plug-In . SVG Version: 6.00 Build 0)  -->
<svg version="1.1" id="Logo" xmlns="http://www.w3.org/2000/svg" xmlns:xlink="http://www.w3.org/1999/xlink" x="0px" y="0px"
	 viewBox="0 0 259.3 55.6" style="enable-background:new 0 0 259.3 55.6;" xml:space="preserve">
<style type="text/css">
	.st0{fill:#FFFFFF;}
</style>
<g>
	<path class="st0" d="M127.3,49.8V27.9h-4.6v-7.2h4.6V10.5l7.8-1.8v12h5.9v7.2h-5.9v21.8L127.3,49.8L127.3,49.8z"/>
	<path class="st0" d="M44.4,49.8L32.8,20.7H41l7.4,19.8l7.4-19.8H64L52.3,49.8H44.4z"/>
	<path class="st0" d="M143.5,49.8v-43L151,5v17.8c2.4-1.9,5.1-2.7,8.1-2.7c8.6,0,15.4,6.8,15.4,15.2c0,8.4-6.8,15.2-15.4,15.2
		c-3,0-5.8-0.8-8.1-2.7v1.9H143.5z M150.9,35.6c0.2,4.3,3.8,7.8,8.2,7.8c4.5,0,8.2-3.7,8.2-8.2c0-4.3-3.6-8.1-8.2-8.1
		c-4.4,0-8.1,3.6-8.2,7.8V35.6z"/>
	<path class="st0" d="M194.3,10.5c0-2.9,2.2-5,5.1-5c2.9,0,5,2.1,5,5s-2.1,5.1-5,5.1C196.5,15.5,194.3,13.3,194.3,10.5z M195.6,49.8
		V20.7h7.5v29.1H195.6z"/>
	<path class="st0" d="M193,20.7c-3.9,0.2-6.1,0.8-8.4,2.5v-2.6H177v29.1h7.5V35.5c0-4.5,1.1-7.1,8.4-7.3V20.7z"/>
	<path class="st0" d="M210.3,49.8V28h-4.6v-7.4h4.6V10.5h7.8v10.2h5.9V28h-5.9v21.7L210.3,49.8L210.3,49.8z"/>
	<path class="st0" d="M83.5,40c-1.1,1.7-2.9,2.9-4.9,3.4c-3.4,0.8-6.8-0.7-8.6-3.3l14.9-3.4l2.4-0.5l4.6-1.1c0-1-0.2-2-0.4-3
		c-1.9-8.2-10-13.3-18.2-11.4c-8.2,1.9-13.3,10-11.4,18.2s10,13.3,18.2,11.4c4.8-1.1,8.6-4.4,10.5-8.6L83.5,40z M74.8,27.3
		c3.3-0.8,6.7,0.6,8.6,3.3L68.6,34C69,30.8,71.5,28.1,74.8,27.3z"/>
	<path class="st0" d="M245.9,40c-1.1,1.7-2.9,2.9-4.9,3.4c-3.4,0.8-6.8-0.7-8.6-3.3l14.9-3.4l2.4-0.5l4.6-1.1c0-1-0.2-2-0.4-3
		c-1.9-8.2-10-13.3-18.2-11.4c-8.2,1.9-13.3,10-11.4,18.2c1.9,8.2,10,13.3,18.2,11.4c4.8-1.1,8.6-4.4,10.5-8.6L245.9,40z
		 M237.2,27.3c3.3-0.8,6.7,0.6,8.6,3.3L231,34C231.5,30.8,233.9,28.1,237.2,27.3z"/>
	<path class="st0" d="M26.9,40c-1.1,1.7-2.9,2.9-4.9,3.4c-3.4,0.8-6.8-0.7-8.6-3.3l14.9-3.4l2.4-0.5l4.6-1.1c0-1-0.2-2-0.4-3
		c-1.9-8.2-10-13.3-18.2-11.4c-8.2,1.9-13.3,10-11.4,18.2s10,13.3,18.2,11.4c4.8-1.1,8.6-4.4,10.5-8.6L26.9,40z M18.3,27.3
		c3.3-0.8,6.7,0.6,8.6,3.3L11.9,34C12.5,30.8,14.9,28.1,18.3,27.3z"/>
	<path class="st0" d="M114,49.8V34.2c0-5.6-3-6.8-6-6.8c-3,0-6,1.1-6,6.8v15.7h-7.5V20.7h7.5v2.1c1.7-1.2,3.6-2.7,7.7-2.7
		c6.4,0,11.9,3.7,11.9,12.8v16.8H114z"/>
</g>
</svg>
