<?xml version="1.0" encoding="utf-8"?>
<!-- Generator: Adobe Illustrator 22.1.0, SVG Export Plug-In . SVG Version: 6.00 Build 0)  -->
<svg version="1.1" id="Layer_1" xmlns="http://www.w3.org/2000/svg" xmlns:xlink="http://www.w3.org/1999/xlink" x="0px" y="0px"
	 viewBox="0 0 889.2 200.9" style="enable-background:new 0 0 889.2 200.9;" xml:space="preserve">
<style type="text/css">
	.st0{fill:#FFFFFF;}
</style>
<path class="st0" d="M5.7,0C12,1,18.3,2.1,24.6,2.8C46,5.2,67.4,7.4,88.8,9.6c15.7,1.6,31.4,3.2,47.1,4.8
	c14.7,1.5,29.4,3.1,44.8,4.8c-2.7,16.6-5.3,32.7-8,49.6c-29.4,3.1-58.6,6.2-87.8,9.3c20.1,4.4,40.7,4.9,61.7,8.2
	c1,16.6,1.9,33,2.9,50.1c-16.2,0-31.6,0-47.8,0c-4.2,21.5-6.6,42.8-10.6,64.5c-19.3-2.1-38.4-4.1-58.5-6.3
	c-0.8-14.5-1.6-28.7-2.4-43.3c14.2-4.5,28-8.9,41.8-13.3c-0.1-0.4-0.1-0.8-0.2-1.2c-19.1,0-38.2,0-58.3,0c2.7-17.6,5.3-34.4,8-51.9
	c-5.8,0.5-10.9,0.9-16.7,1.4C3.3,57.2,1.6,28.6,0,0C1.9,0,3.8,0,5.7,0z"/>
<path class="st0" d="M687.5,136.3c-7.6,4.2-10.8,10.1-10,18.6c0.6,6.8,0.1,13.8,0.1,21.3c-8,0-15.1,0-22.5,0c0-40.1,0-79.6,0-119.5
	c5.2-0.9,9.9-1.8,14.6-2.4c2-0.3,4.2,0,6.7,0c2.5,6.2,0.9,12.9,1.1,19.4c0.3,6.7,0.1,13.3,0.1,20c0,6.6,0,13,0,21.4
	c3.5-3,5.6-4.7,7.5-6.5c7.3-6.8,14.6-13.7,21.8-20.6c2.8-2.8,5.7-4.1,9.6-3.9c7.1,0.3,14.3,0,21.4,0c0.3,0.6,0.4,1.1,0.6,1.8
	c-11.3,10.9-22.5,21.8-34.3,33.2c13.3,18.7,26.6,37.5,40.8,57.6c-9.9,0-18.2,0.4-26.5-0.3c-2.2-0.1-4.6-2.8-6-4.8
	c-7.5-10.3-14.6-20.8-21.9-31.3C689.8,139,688.6,137.7,687.5,136.3z"/>
<path class="st0" d="M354.3,137.5c-12.2,0-22.4,0-32.7,0c-10.3,0-20.5,0-30.6,0c-0.6,10.6,3.5,17.3,11.9,20.1
	c10.5,3.5,18.2,0.5,25.7-10.3c3.3,0.4,6.8,0.6,10.4,1.1c3.5,0.5,7.1,1.3,11,1.9c-0.5,6.3-3.5,10.8-7.2,14.7
	c-12.7,13.5-28.4,16.5-45.7,12c-15.8-4.1-25.3-14.6-29-30.4c-3.3-13.9-2.9-27.6,3.3-40.8c8.1-17.5,26.8-27.1,46.5-24.2
	c19.5,3,32.8,16.3,35.4,36C353.9,124,353.8,130.3,354.3,137.5z M329.7,118.9c-2.5-12.5-9-17.6-20.4-16.8c-11,0.8-17.2,6.5-18,16.8
	C303.9,118.9,316.4,118.9,329.7,118.9z"/>
<path class="st0" d="M832.8,137.7c-21.4,0-42.2,0-62.8,0c-0.5,10.8,3.3,17.1,11.5,20c10.4,3.7,18.7,0.5,26.3-10.3
	c4.9,0.6,10,1.3,15.1,2c2,0.3,4.1,1,6.1,1.4c-4.4,16.2-18.5,27.3-36,28.2c-24.9,1.3-43.9-11.8-47.3-38.5c-2-15.7-0.1-30.4,9.7-43
	c10.8-13.5,25.4-18,42.2-15.4c17,2.5,27.9,12.4,32.9,28.7C833,119,833.8,127.4,832.8,137.7z M770,119.4c9.6,0,19.2,0,28.7,0
	c3.3,0,6.5,0,9.9,0c-2-12.2-8.1-17.5-18.9-17.3C778.8,102.1,771.7,107.9,770,119.4z"/>
<path class="st0" d="M364.4,150.1c7.6-1.1,14.3-2.2,21.1-3.2c2,3.2,3.4,6.6,5.7,9.1c4.6,4.7,19.5,5.3,24.9,1.6c4.7-3.2,4.9-9,0-11.9
	c-3.5-2.2-7.7-3.4-11.6-4.8c-7.5-2.5-15.1-4.6-22.4-7.5c-7-2.8-12.3-7.5-14.6-15.1c-3.8-12.5,1-25.6,13-31.5
	c15.6-7.7,31.5-7.7,47.2-0.1c9.1,4.4,12.7,11.1,12.4,21.9c-6.6,1-13.3,2.2-20.5,3.3c-3.3-9.5-10.5-11.8-19.5-10.9
	c-5.2,0.5-8.4,2.8-9,6.2c-0.6,3.8,1,6.3,6.6,8.4c6.2,2.4,12.7,4.2,18.9,6.3c4.1,1.4,8,2.9,11.9,4.6c21.3,9,18.2,36,3.4,44.9
	c-5.3,3.2-11.5,5.1-17.6,6.5c-10.9,2.7-21.8,1.1-32-2.9C371.9,171,365,163.4,364.4,150.1z"/>
<path class="st0" d="M640.5,115.2c-7.7,1-14.6,2-21.8,2.9c-1-1.9-1.9-3.4-2.7-4.9c-3.4-7-8.9-10.4-16.6-10.5
	c-8-0.1-14.2,3.2-17.9,10.3c-5.6,10.9-5.6,22.3-0.9,33.3c3.3,7.7,9.9,11.1,18.2,11.1c8,0,14.1-3,17.5-10.6c0.5-1.1,0.9-2.2,1.6-4.2
	c7.1,0.9,14.2,1.8,22.2,2.8c-2,12.8-8,22.3-19,28.2c-9.9,5.3-20.8,6.7-31.8,4.6c-20.1-4.1-32.2-17.6-34.7-38
	c-1.9-15.6,0-30.3,9.9-43c14.7-19,46.6-21.5,64.2-5.2C635.5,98.2,639.3,105.5,640.5,115.2z"/>
<path class="st0" d="M242.2,176.8c-8.1,0-15.2,0-23.3,0c0-23.8,0-47.3,0-71.3c-4.3-0.5-7.8-0.9-11.9-1.3c0-6.2,0-12.3,0-19.1
	c3.7-0.4,7.1-0.8,11.4-1.3c0.1-3.7,0.3-7.2,0.5-10.8c0.9-13.7,7.3-21.6,20.6-23.7c7.3-1.1,14.9-0.3,22.9-0.3c0,6.5,0,12.7,0,20
	c-3,0.1-6,0.3-8.9,0.4c-10.1,0.5-12,2.9-10.3,14.9c6,0,12.2,0,19.1,0c-1,7.1-1.9,12.9-2.9,19.8c-5.4,0-10.6,0-16.2,0
	c-2,8.6-0.9,16.5-1,24.2c-0.3,8.2,0,16.3,0,24.6C242.2,160.7,242.2,168.5,242.2,176.8z"/>
<path class="st0" d="M499.9,156c0.1,3,0.4,5.1,0.4,7.1c0,3.9,0,7.7,0,12.2c-9.6,1.3-18.6,1.4-27.5-0.4c-8.2-1.6-13.3-7-14.8-15.2
	c-0.5-2.9-0.9-6-0.9-9c0-29.6,0-59.3,0-88.9c0-1.5,0.3-2.9,0.4-5.2c7.2-1,14.2-2,22.4-3.2c0,10.1,0,19.6,0,30.1
	c7.1,0.4,13.2,0.6,19.9,1c0,6.7,0,12.9,0,19.9c-6.3,0-12.3,0-18.7,0c-0.3,3-0.6,5.3-0.6,7.6c0,11.1-0.1,22.4,0,33.5
	c0.1,8.5,1.8,10,10.1,10.3C493.3,156,495.9,156,499.9,156z"/>
<path class="st0" d="M889.2,156c0,7,0,12.9,0,19.4c-9.2,1.1-18.2,1.3-27.1-0.5c-8.1-1.6-13.3-7-14.7-15.3c-0.5-2.7-0.9-5.4-0.9-8.1
	c-0.1-30.3,0-60.5,0-90.8c0-1.1,0.3-2.3,0.5-4.2c7.2-1,14.3-1.9,22.4-3c0,10.1,0,19.8,0,30.1c7,0.4,13.2,0.6,19.7,0.9
	c0,6.6,0,12.5,0,19c-5.7,2.7-12.3-0.3-19,1.9c-0.1,2.7-0.4,5.6-0.4,8.5c0,10.6-0.1,21.1,0,31.8c0.1,8.2,1.9,10,10.3,10.3
	C882.7,156,885.4,156,889.2,156z"/>
<path class="st0" d="M515.8,84.6c7.5,0,14.7,0,22.3,0c0,30.6,0,60.9,0,91.8c-7.5,0-14.6,0-22.3,0
	C515.8,145.8,515.8,115.4,515.8,84.6z"/>
<path class="st0" d="M541.9,59.7c-0.1,7.7-7,14.2-14.9,13.9c-8.2-0.1-14.1-6.5-13.8-14.7c0.3-7.6,6.5-13.7,14.1-13.8
	C534.9,45.2,542,52.2,541.9,59.7z"/>
</svg>
