<?xml version="1.0" encoding="utf-8"?>
<!-- Generator: Adobe Illustrator 22.1.0, SVG Export Plug-In . SVG Version: 6.00 Build 0)  -->
<svg version="1.1" id="Isolation_Mode" xmlns="http://www.w3.org/2000/svg" xmlns:xlink="http://www.w3.org/1999/xlink" x="0px"
	 y="0px" viewBox="0 0 1094 285.9" style="enable-background:new 0 0 1094 285.9;" xml:space="preserve">
<style type="text/css">
	.st0{fill:#FFFFFF;}
</style>
<g>
	<path class="st0" d="M515.4,27.9c12.9,0,23.8,10.7,23.8,23.5c0,12.6-10.9,23.3-23.8,23.3c-12.6,0-23.3-10.7-23.3-23.3
		C492.1,38.6,502.8,27.9,515.4,27.9"/>
</g>
<path class="st0" d="M123.1,113.8l-39.5,22.8l-22.2-12.8l61.7-35.6V113.8z M105.6,174.7l21.5,12.4L22,247.8V223L105.6,174.7z
	 M61.5,149.2L83.7,162L22,197.7v-25.6L61.5,149.2z M39.5,111.1L18,98.8l105.1-60.7v24.8L39.5,111.1z M145.1,0L0,83.8v30l39.5,22.8
	L0,159.4v126.5l145.1-83.8v-30l-39.5-22.8l39.5-22.8V0z"/>
<g>
	<path class="st0" d="M284.7,152.8c-4.9-1.2-9.8-2.2-14.5-3c-18-3.3-33.9-5.4-33.9-16.2c0-6,4.5-13.5,21.9-13.5
		c15,0,25.8,5.7,34.2,13.2l20.7-25.2c-13.8-11.7-34.2-19.2-56.5-19.2c-29.4,0-58.3,12.6-58.3,45.7c0,29,22.1,38,43.7,43
		c4.3,1,8.7,1.8,12.8,2.6c17.4,3.3,27.6,5.7,27.6,14.7c0,8.1-9,11.4-21.6,11.4c-12.3,0-27.9-3.3-40.8-16.1l-31,17.9
		c14.7,19.5,44.2,29.7,69.1,29.7c32.1,0,62.5-16.8,62.5-48.1C320.6,166.1,303.3,157.5,284.7,152.8"/>
</g>
<polygon class="st0" points="410.8,158.2 477.7,92.4 424.9,92.4 374.4,144.4 374.4,37.1 336,37.1 336,234.8 374.7,234.8 
	374.7,177.1 432.1,234.8 485.9,234.8 "/>
<rect x="496.4" y="92.4" class="st0" width="38.4" height="142.4"/>
<g>
	<path class="st0" d="M625.7,205.6c-23.1,0-39-16.2-39-42.6c0-27,16.5-42,38.4-42c18.9,0,39.6,11.4,39.6,42.3
		C664.7,191.8,647,205.6,625.7,205.6 M665,111.6c-9-14.7-25.8-22.8-46.3-22.8c-35.4,0-70.3,24.9-70.3,74.2
		c0,49.9,35.7,74.8,71.8,74.8c20.4,0,34.8-8.1,45-20.4v17.4h38.1V37.1H665V111.6z"/>
	<path class="st0" d="M793.4,205.6c-23.1,0-39-16.2-39-42.6c0-27,16.5-42,38.4-42c18.9,0,39.6,11.4,39.6,42.3
		C832.4,191.8,814.7,205.6,793.4,205.6 M832.7,111.6c-9-14.7-25.8-22.8-46.3-22.8c-35.4,0-70.3,24.9-70.3,74.2
		c0,49.9,35.7,74.8,71.8,74.8c20.4,0,34.8-8.1,45.1-20.4v17.4h38.1V37.1h-38.4V111.6z"/>
	<path class="st0" d="M946.7,204.8c-1.4,0.3-2.9,0.6-4.4,0.6c-9,0-17.7-4.8-17.7-18V37.1h-38.4v150.8c0,35.4,23.4,49.9,48.7,49.9
		c10.4,0,21.2-2.7,30.7-7.1C957.6,223.3,951.3,214.6,946.7,204.8"/>
	<path class="st0" d="M994.3,149.2c2.4-16.2,14.1-27.9,32.4-27.9c16.8,0,29.1,9.9,30.9,27.9H994.3z M1094,160.3
		c0-47.8-31.2-71.5-66.1-71.5c-36.3,0-72.7,25.8-72.7,75.1c0,49.9,37.2,73.9,75.1,73.9c24.9,0,47.2-10.2,62.5-29.4l-23.1-23.1
		c-9.6,12.6-23.4,18.9-39,18.9c-15.3,0-33-6.3-36.3-25.8h98.5C1093.7,170.8,1094,165.1,1094,160.3"/>
</g>
</svg>
