<?xml version="1.0" encoding="utf-8"?>
<!-- Generator: Adobe Illustrator 22.1.0, SVG Export Plug-In . SVG Version: 6.00 Build 0)  -->
<svg version="1.1" id="Layer_1" xmlns="http://www.w3.org/2000/svg" xmlns:xlink="http://www.w3.org/1999/xlink" x="0px" y="0px"
	 viewBox="0 0 825.5 676.5" style="enable-background:new 0 0 825.5 676.5;" xml:space="preserve">
<style type="text/css">
	.st0{fill:#FFFFFF;}
	.st1{fill:#FFE843;}
</style>
<g>
	<path class="st0" d="M94.6,574.6v6.3h14.7v11.8H94.6v17.6H82v-47.3h27.4v11.5H94.6z"/>
	<path class="st0" d="M154.2,602.5c-2.3,2.8-5.1,5-8.4,6.5c-3.3,1.5-6.8,2.2-10.4,2.2c-3.2,0-6.3-0.6-9.4-1.9c-3.1-1.3-5.7-3-8-5.3
		c-2.3-2.3-4-4.9-5.3-8c-1.3-3.1-1.9-6.2-1.9-9.4c0-0.7,0.1-1.7,0.2-2.8c0.1-1.2,0.4-2.5,0.8-3.9c0.4-1.4,1-3,1.8-4.6
		c0.8-1.6,1.8-3.2,3.2-4.7c2.3-2.7,5.1-4.8,8.5-6.4c3.3-1.5,6.7-2.3,10.3-2.3c2,0,3.9,0.2,5.6,0.7c1.7,0.4,3.3,1,4.6,1.6
		c1.4,0.6,2.5,1.3,3.5,1.9c1,0.7,1.7,1.2,2.3,1.7c2.7,2.3,4.8,5.1,6.4,8.4c1.5,3.3,2.3,6.8,2.3,10.4c0,0.7-0.1,1.7-0.2,2.8
		c-0.1,1.2-0.4,2.4-0.8,3.8c-0.4,1.4-1,2.9-1.8,4.5C156.5,599.4,155.5,600.9,154.2,602.5z M146.3,582.5c-0.8-2.2-2.3-4-4.3-5.4
		c-2-1.4-4.2-2.1-6.6-2.1c-0.8,0-1.9,0.2-3.5,0.6c-1.6,0.4-3.1,1.3-4.7,2.7c-1.1,1.1-2,2.3-2.6,3.8c-0.6,1.5-0.9,3-0.9,4.5
		c0,0.4,0,0.8,0.1,1.5c0.1,0.6,0.2,1.3,0.4,2c0.2,0.7,0.6,1.5,1,2.3c0.5,0.8,1.1,1.6,1.8,2.4c1.1,1.1,2.3,1.9,3.8,2.5
		c1.4,0.6,2.9,0.9,4.5,0.9c1.1,0,2.1-0.1,3.1-0.4c0.9-0.3,1.8-0.6,2.4-1c0.7-0.4,1.3-0.8,1.8-1.2c0.5-0.4,0.9-0.8,1.2-1
		c0.3-0.3,0.6-0.6,0.9-1.1c0.4-0.5,0.7-1,1-1.7c0.3-0.7,0.6-1.4,0.8-2.3c0.2-0.9,0.3-1.8,0.3-2.8C147,585.2,146.8,583.9,146.3,582.5
		z"/>
	<path class="st0" d="M182.6,610.3l-8.5-13.5v13.5h-12.7v-47.3h17.5c2.2,0,4.3,0.2,6.2,0.5c1.9,0.3,3.8,1.2,5.7,2.7
		c0.6,0.4,1.2,1,1.9,1.8c0.7,0.7,1.3,1.6,1.9,2.7c0.6,1.1,1.1,2.3,1.5,3.8c0.4,1.5,0.6,3.1,0.6,4.9c0,1.9-0.2,3.5-0.7,5
		c-0.4,1.4-1,2.7-1.7,3.7c-0.7,1.1-1.4,2-2.1,2.7s-1.4,1.3-2,1.7c-0.5,0.4-1,0.7-1.5,0.9c-0.5,0.2-1.2,0.5-2.1,0.9l11.3,16.1H182.6z
		 M183.2,576.7c-0.6-1-1.4-1.7-2.4-1.9s-2.1-0.4-3.4-0.4h-3.3v11.6h3.1c0.1,0,0.3-0.1,0.5-0.1c0.2,0,0.5,0,0.7-0.1
		c0.5,0,1.1-0.1,1.9-0.3c0.3-0.1,0.7-0.3,1.1-0.5c0.4-0.2,0.8-0.6,1.2-1.1c0.4-0.5,0.7-1,1-1.7c0.3-0.7,0.4-1.5,0.4-2.4
		c0-0.5-0.1-1.1-0.2-1.6C183.8,577.7,183.6,577.2,183.2,576.7z"/>
	<path class="st0" d="M250,610.3v-19.2c0-1.4,0-2.8,0-4.1c0-1.4,0.1-2.8,0.1-4.2c-0.4,1.4-0.9,2.8-1.3,4.1c-0.4,1.4-0.8,2.7-1.3,4.1
		c-0.6,1.7-1.1,3.4-1.7,5.2c-0.6,1.7-1.1,3.5-1.7,5.2c-0.5,1.4-1,2.9-1.5,4.4c-0.5,1.5-1,3-1.6,4.7h-9.3l-5.1-14.9
		c-0.4-1.2-0.8-2.3-1.1-3.4c-0.4-1.1-0.7-2.3-1.1-3.5l-1.7-5.6c0,1.4,0.1,2.9,0.1,4.3c0,1.5,0,2.9,0,4.3v18.7h-11.7v-47.3h16.5
		c1,3.1,2,6.1,3,8.9c1,2.9,1.9,5.8,2.8,8.7l3.2,10.2c0.9-3.3,1.9-6.7,3-10c0.5-1.7,1.1-3.4,1.6-5.1c0.6-1.7,1.1-3.4,1.6-5.1
		c0.4-1.2,0.8-2.5,1.2-3.7c0.4-1.2,0.8-2.6,1.3-4h16.7v47.3H250z"/>
	<path class="st0" d="M295.9,610.3l-2.3-6.5h-14.8l-2.1,6.5h-14.5l18.9-47.5h10.4l19.1,47.5H295.9z M286,581.1l-3.8,12.1h7.9
		L286,581.1z"/>
	<path class="st0" d="M335,586.9l15.5,23.4h-15.6l-11.2-17.9v17.9h-12.9v-47.3h12.9v19.1l12.7-19.1h14.7L335,586.9z"/>
	<path class="st0" d="M351,610.3v-47.3h12v47.3H351z"/>
	<path class="st0" d="M394.1,610.3l-16.5-24v24H365v-47.3h11c2.1,2.9,4.1,5.8,6.1,8.6c2,2.8,4,5.7,6,8.8l4.4,6.8v-24.2h12.7v47.3
		H394.1z"/>
	<path class="st0" d="M450.2,602c-2.4,2.9-5.3,5.2-8.7,6.8c-3.4,1.6-7,2.4-10.7,2.4c-0.8,0-1.7-0.1-2.8-0.2
		c-1.1-0.1-2.3-0.4-3.6-0.7c-1.3-0.4-2.7-0.9-4.2-1.6c-1.5-0.7-3-1.6-4.5-2.8c-0.8-0.6-1.7-1.4-2.7-2.5c-1.1-1.1-2.1-2.4-3-4
		c-1-1.6-1.8-3.4-2.4-5.5c-0.7-2.1-1-4.5-1-7.1c0-2.8,0.4-5.3,1.1-7.5c0.7-2.2,1.6-4.1,2.7-5.7c1.1-1.6,2.2-3,3.3-4
		c1.1-1.1,2.1-1.9,2.9-2.5c4.2-3.2,9-4.8,14.4-4.8c2.9,0,5.5,0.4,7.7,1.2c2.3,0.8,4.2,1.7,5.9,2.8c1.7,1.1,3.1,2.3,4.1,3.5
		c1.1,1.2,1.9,2.2,2.5,3.1c0.3,0.4,0.6,0.9,0.8,1.2c0.2,0.4,0.4,0.8,0.7,1.3c0.2,0.5,0.5,1.1,0.8,1.8c0.3,0.7,0.6,1.5,1,2.5h-14.4
		l-0.7-0.9c-0.1-0.1-0.3-0.3-0.4-0.4c-0.1-0.2-0.3-0.3-0.4-0.5c-1-0.9-2.2-1.6-3.5-2c-1.3-0.4-2.7-0.7-4-0.7c-0.4,0-1.1,0-1.9,0.1
		c-0.8,0.1-1.7,0.4-2.7,0.8c-2.1,0.9-3.9,2.3-5.2,4.3c-1.3,2-2,4.2-1.9,6.5c0,0.8,0.1,1.8,0.4,3.1c0.3,1.3,1,2.7,2.1,4.1
		c0.3,0.4,0.7,0.8,1.2,1.3c0.5,0.5,1.2,1,1.9,1.4c0.8,0.5,1.7,0.9,2.7,1.2c1,0.3,2.1,0.5,3.3,0.5c1.1,0,2-0.1,2.9-0.3
		c0.9-0.2,1.6-0.5,2.3-0.8c0.7-0.3,1.2-0.7,1.7-1s0.8-0.7,1.1-0.9c0.3-0.3,0.6-0.6,0.8-1h-12.4v-10.9h28.3c-0.1,1.9-0.2,3.6-0.4,5.3
		c-0.2,1.6-0.4,3.2-0.8,4.7c-0.4,1.5-1,3-1.7,4.4C452.3,599.2,451.3,600.6,450.2,602z"/>
	<path class="st0" d="M487.4,574.6v35.7h-12.7v-35.8h-8.9v-11.4h30.7v11.5H487.4z"/>
	<path class="st0" d="M524.4,610.3v-17.4h-13v17.4h-12.9v-47.3h12.9v17.5h12.9v-17.5h12.8v47.3H524.4z"/>
	<path class="st0" d="M539.1,610.3v-47.3h12v47.3H539.1z"/>
	<path class="st0" d="M578.6,608c-1.1,0.8-2.1,1.4-3.1,1.9c-1,0.4-1.9,0.8-2.8,1c-0.9,0.2-1.7,0.3-2.4,0.4c-0.7,0-1.4,0.1-1.9,0.1
		c-2.3,0-4.3-0.3-6-0.9s-3.2-1.4-4.4-2.3c-1.2-0.9-2.2-1.9-2.9-3c-0.7-1.1-1.2-2.1-1.5-2.9c-0.4-1.2-0.7-2.5-0.8-3.8
		c-0.1-1.3-0.2-2.7-0.2-4.3h12.2c0,1.3,0.1,2.4,0.3,3.4c0.2,1,0.7,1.7,1.6,2.2c0.1,0.1,0.4,0.2,0.7,0.3c0.3,0.1,0.7,0.2,1.2,0.2
		c1,0,1.9-0.3,2.5-0.9c0.6-0.6,0.9-1.4,0.9-2.4c0-1.3-0.4-2.3-1.2-2.9c-0.8-0.6-1.7-1.2-2.6-1.7l-2.1-0.9c-0.8-0.4-1.7-0.7-2.5-1.1
		c-0.8-0.4-1.6-0.8-2.5-1.3c-0.5-0.3-1.2-0.7-2.1-1.3c-0.8-0.6-1.7-1.4-2.5-2.5c-0.8-1-1.5-2.3-2.1-3.7c-0.6-1.4-0.9-3.1-0.9-5
		c0-0.5,0-1.2,0.1-1.9c0.1-0.8,0.2-1.6,0.5-2.4c0.3-0.9,0.7-1.8,1.3-2.7c0.6-1,1.3-1.9,2.3-2.8c1.1-1.1,2.2-1.9,3.3-2.5
		c1.2-0.6,2.3-1.1,3.3-1.4c1.1-0.3,2-0.5,2.9-0.6c0.9-0.1,1.6-0.1,2.1-0.1c0.5,0,1.2,0,2.1,0.1c0.9,0.1,2,0.3,3.2,0.7
		c1.4,0.5,2.7,1.1,3.7,1.8c1,0.7,1.9,1.5,2.6,2.3c0.7,0.8,1.3,1.6,1.7,2.4c0.4,0.8,0.8,1.4,1,2c0.2,0.5,0.4,1,0.5,1.5
		c0.1,0.4,0.2,0.9,0.3,1.4c0.1,0.5,0.1,1,0.1,1.5c0,0.5,0,1.2,0.1,2h-11.9c0-0.8,0-1.3,0-1.6c0-0.3-0.1-0.5-0.2-0.8
		c-0.2-0.6-0.5-1.1-1.1-1.5c-0.5-0.4-1.1-0.6-1.9-0.6c-0.9,0-1.7,0.3-2.2,0.8c-0.6,0.6-0.8,1.3-0.8,2.2c0,0.4,0.1,0.8,0.2,1.1
		c0.1,0.3,0.2,0.5,0.3,0.6c0.4,0.6,1.1,1.2,2,1.6c0.5,0.3,1,0.5,1.6,0.8c0.6,0.2,1.3,0.5,2,0.9c2,0.9,3.6,1.7,4.8,2.5
		c1.2,0.8,2.2,1.4,2.8,2c0.2,0.2,0.5,0.5,0.9,0.9c0.4,0.4,0.8,0.8,1.2,1.5c1.2,1.6,1.8,3.1,2,4.4c0.2,1.3,0.3,2.4,0.3,3.1
		c0,0.7-0.1,1.6-0.2,2.5c-0.1,1-0.4,2-0.8,3.1c-0.4,1.1-1,2.3-1.9,3.4C581.2,605.8,580,606.9,578.6,608z"/>
	<path class="st0" d="M618.4,592.7v17.6h-13v-17.4l-14.1-29.9h14.1l5.7,13.5c0.2,0.4,0.3,0.9,0.5,1.3c0.2,0.4,0.3,0.9,0.5,1.4
		c0.4-0.8,0.7-1.6,1-2.3c0.3-0.8,0.6-1.5,1-2.3l4.8-11.5h13.5L618.4,592.7z"/>
	<path class="st0" d="M632.4,610.3v-47.3h26.8v11.4h-13.8v5.8h13.8v12h-13.7v6.4h13.9v11.7H632.4z"/>
	<path class="st0" d="M693.1,610.3l-2.3-6.5H676l-2.1,6.5h-14.5l18.9-47.5h10.4l19.1,47.5H693.1z M683.2,581.1l-3.8,12.1h7.9
		L683.2,581.1z"/>
	<path class="st0" d="M729.1,610.3l-8.5-13.5v13.5h-12.7v-47.3h17.5c2.2,0,4.3,0.2,6.2,0.5c1.9,0.3,3.8,1.2,5.7,2.7
		c0.6,0.4,1.2,1,1.9,1.8c0.7,0.7,1.3,1.6,1.9,2.7c0.6,1.1,1.1,2.3,1.5,3.8c0.4,1.5,0.6,3.1,0.6,4.9c0,1.9-0.2,3.5-0.7,5
		c-0.4,1.4-1,2.7-1.7,3.7c-0.7,1.1-1.4,2-2.1,2.7s-1.4,1.3-2,1.7c-0.5,0.4-1,0.7-1.5,0.9c-0.5,0.2-1.2,0.5-2.1,0.9l11.3,16.1H729.1z
		 M729.8,576.7c-0.6-1-1.4-1.7-2.4-1.9c-1-0.2-2.1-0.4-3.4-0.4h-3.3v11.6h3.1c0.1,0,0.3-0.1,0.5-0.1c0.2,0,0.5,0,0.7-0.1
		c0.5,0,1.1-0.1,1.9-0.3c0.3-0.1,0.7-0.3,1.1-0.5c0.4-0.2,0.8-0.6,1.2-1.1c0.4-0.5,0.7-1,1-1.7c0.3-0.7,0.4-1.5,0.4-2.4
		c0-0.5-0.1-1.1-0.2-1.6C730.3,577.7,730.1,577.2,729.8,576.7z"/>
	<path class="st0" d="M129.7,675.6v-47.3h12v47.3H129.7z"/>
	<path class="st0" d="M172.8,675.6l-16.5-24v24h-12.6v-47.3h11c2.1,2.9,4.1,5.8,6.1,8.6c2,2.8,4,5.7,6,8.8l4.4,6.8v-24.2h12.7v47.3
		H172.8z"/>
	<path class="st0" d="M231.5,663.6c-1.2,2.1-2.5,3.9-3.9,5.3c-1.4,1.5-2.9,2.7-4.3,3.6c-1.4,1-2.8,1.7-4.1,2.2
		c-1.3,0.5-2.4,0.9-3.2,1c-0.5,0.1-1.2,0.2-2.3,0.4c-1,0.2-2.2,0.3-3.6,0.3c-3,0-5.6-0.4-8-1.2c-2.3-0.8-4.3-1.8-6-2.9
		c-1.7-1.1-3.1-2.3-4.2-3.5c-1.1-1.2-2-2.3-2.5-3.2c-0.4-0.5-0.8-1.2-1.3-2c-0.5-0.8-0.9-1.8-1.3-2.9c-0.4-1.1-0.8-2.4-1-3.7
		c-0.3-1.4-0.4-2.9-0.4-4.6c0-3.2,0.5-6,1.4-8.5c0.9-2.5,2-4.6,3.3-6.4s2.6-3.2,4-4.4c1.4-1.1,2.6-2,3.5-2.5c0.5-0.3,1.1-0.6,1.9-1
		c0.8-0.4,1.7-0.7,2.7-1c1-0.3,2.2-0.6,3.4-0.8c1.3-0.2,2.7-0.3,4.2-0.3c0.8,0,1.7,0.1,2.8,0.2c1.1,0.1,2.4,0.4,3.7,0.7
		c1.4,0.4,2.8,0.9,4.3,1.7c1.5,0.8,3.1,1.8,4.7,3c1.5,1.2,2.7,2.4,3.6,3.7c1,1.3,1.8,2.5,2.4,3.7c0.6,1.2,1.1,2.4,1.5,3.4
		c0.4,1.1,0.7,2.1,0.9,2.9H220c-0.2-0.4-0.4-0.8-0.6-1.1c-0.2-0.3-0.4-0.6-0.6-0.8c-1-1.4-2.3-2.5-3.8-3.2c-1.5-0.7-3.2-1.1-5-1.1
		c-1.2,0-2.1,0.1-2.9,0.3c-0.8,0.2-1.4,0.4-1.8,0.6c-2.1,0.9-3.8,2.4-5.1,4.3c-1.3,1.9-1.9,4-1.8,6.4c0,1.1,0.1,2,0.3,2.7
		c0.2,0.7,0.4,1.2,0.5,1.6c0.2,0.5,0.6,1.2,1.1,2c0.5,0.8,1.2,1.6,2.1,2.3c0.9,0.8,1.9,1.4,3.2,2c1.3,0.6,2.8,0.8,4.5,0.8
		c0.9,0,1.7-0.1,2.3-0.2c0.6-0.1,1.1-0.3,1.5-0.4c0.4-0.1,1-0.4,2-1c1-0.6,1.9-1.3,2.7-2.4c0.1-0.1,0.2-0.3,0.3-0.4
		c0.1-0.1,0.2-0.3,0.3-0.4l1-1.5H234c-0.6,1.9-1.1,3.2-1.5,4.1C232.2,662.1,231.8,662.9,231.5,663.6z"/>
	<path class="st0" d="M256.6,675.6l-8.5-13.5v13.5h-12.7v-47.3h17.5c2.2,0,4.3,0.2,6.2,0.5c1.9,0.3,3.8,1.2,5.7,2.7
		c0.6,0.4,1.2,1,1.9,1.8c0.7,0.7,1.3,1.6,1.9,2.7c0.6,1.1,1.1,2.3,1.5,3.8c0.4,1.5,0.6,3.1,0.6,4.9c0,1.9-0.2,3.5-0.7,5
		c-0.4,1.4-1,2.7-1.7,3.7c-0.7,1.1-1.4,2-2.1,2.7c-0.7,0.7-1.4,1.3-2,1.7c-0.5,0.4-1,0.7-1.5,0.9c-0.5,0.2-1.2,0.5-2.1,0.9
		l11.3,16.1H256.6z M257.2,642c-0.6-1-1.4-1.7-2.4-1.9s-2.1-0.4-3.4-0.4h-3.3v11.6h3.1c0.1,0,0.3-0.1,0.5-0.1c0.2,0,0.5,0,0.7-0.1
		c0.5,0,1.1-0.1,1.9-0.3c0.3-0.1,0.7-0.3,1.1-0.5c0.4-0.2,0.8-0.6,1.2-1.1c0.4-0.5,0.7-1,1-1.7c0.3-0.7,0.4-1.5,0.4-2.4
		c0-0.5-0.1-1.1-0.2-1.6C257.8,643,257.5,642.5,257.2,642z"/>
	<path class="st0" d="M272.1,675.6v-47.3h26.8v11.4h-13.8v5.8h13.8v12h-13.7v6.4h13.9v11.7H272.1z"/>
	<path class="st0" d="M343.3,651.9c0,3.3-0.6,6.4-1.9,9.2c-1.3,2.9-3,5.4-5.1,7.5c-2.2,2.1-4.7,3.8-7.6,5.1c-2.9,1.2-6,1.8-9.2,1.8
		h-18.4v-47.3h18.6c3.3,0,6.3,0.6,9.2,1.8c2.9,1.2,5.4,2.9,7.5,5.1c2.1,2.1,3.8,4.7,5.1,7.5C342.7,645.6,343.3,648.7,343.3,651.9z
		 M330.3,651.9c0-1.7-0.3-3.2-0.9-4.7c-0.6-1.4-1.4-2.7-2.5-3.8c-1-1.1-2.3-2-3.7-2.6c-1.4-0.6-2.9-1-4.5-1h-4.8v24h4.8
		c1.6,0,3.1-0.3,4.5-0.9c1.4-0.6,2.6-1.5,3.7-2.6c1-1.1,1.9-2.4,2.5-3.8C330,655.1,330.3,653.5,330.3,651.9z"/>
	<path class="st0" d="M344.6,675.6v-47.3h12v47.3H344.6z"/>
	<path class="st0" d="M386.3,672.4c-1.9,1.5-3.9,2.4-6,2.7c-2.1,0.3-4.2,0.5-6.3,0.5h-15.3v-47.3h17.5c1.8,0,3.5,0.1,5.2,0.4
		c1.7,0.3,3.2,1.1,4.6,2.5c0.4,0.4,0.7,0.8,1.2,1.4c0.4,0.6,0.8,1.3,1.2,2c0.4,0.8,0.7,1.7,0.9,2.7c0.2,1,0.4,2.1,0.4,3.3
		c0,0.4,0,1-0.1,1.7c0,0.7-0.2,1.4-0.5,2.2c-0.3,0.8-0.7,1.6-1.2,2.4c-0.5,0.8-1.3,1.6-2.3,2.2l-0.7,0.5c0.7,0.4,1.3,0.7,1.7,0.9
		c0.4,0.2,0.8,0.5,1.2,0.8c0.4,0.3,0.8,0.7,1.3,1.2c0.5,0.5,0.9,1.1,1.3,1.9c0.4,0.7,0.7,1.6,1,2.6c0.3,1,0.4,2.1,0.4,3.3
		c0,0.5,0,1.3-0.1,2.2c-0.1,0.9-0.3,1.9-0.7,3c-0.4,1.1-0.9,2.2-1.7,3.4C388.5,670.3,387.5,671.4,386.3,672.4z M375.7,639.2
		c-0.2-0.1-0.4-0.1-0.6-0.2c-0.2,0-0.5,0-0.9,0h-3.1v7.2h3.1c0.1,0,0.3,0,0.7-0.1c0.4,0,0.7-0.1,0.9-0.2c0.7-0.2,1.2-0.6,1.6-1.3
		c0.3-0.6,0.5-1.3,0.5-2.1c0-0.8-0.2-1.5-0.5-2.1C377,639.8,376.5,639.4,375.7,639.2z M378.7,657.8c-0.5-0.8-1.1-1.3-1.9-1.5
		c-0.8-0.2-1.6-0.3-2.6-0.3h-3.1v8.5h3c0.4,0,0.7,0,1.2-0.1c0.4,0,0.8-0.1,1.2-0.2c0.7-0.2,1.2-0.4,1.5-0.8c0.4-0.4,0.6-0.7,0.8-1.2
		c0.2-0.4,0.3-0.8,0.4-1.2c0-0.4,0.1-0.7,0.1-0.9c0-0.2,0-0.5,0-0.9C379.2,658.8,379,658.3,378.7,657.8z"/>
	<path class="st0" d="M393.1,675.6v-47.3h12.8v35.3h13.6v11.9H393.1z"/>
	<path class="st0" d="M434.9,658v17.6h-13v-17.4l-14.1-29.9H422l5.7,13.5c0.2,0.4,0.3,0.9,0.5,1.3c0.2,0.4,0.3,0.9,0.5,1.4
		c0.4-0.8,0.7-1.6,1-2.3c0.3-0.8,0.6-1.5,1-2.3l4.8-11.5h13.5L434.9,658z"/>
	<path class="st0" d="M487.4,673.2c-1.1,0.8-2.1,1.4-3.1,1.9c-1,0.4-1.9,0.8-2.8,1c-0.9,0.2-1.7,0.3-2.4,0.4c-0.7,0-1.4,0.1-1.9,0.1
		c-2.3,0-4.3-0.3-6-0.9c-1.7-0.6-3.2-1.4-4.4-2.3c-1.2-0.9-2.2-1.9-2.9-3c-0.7-1.1-1.2-2.1-1.5-2.9c-0.4-1.2-0.7-2.5-0.8-3.8
		c-0.1-1.3-0.2-2.7-0.2-4.3h12.2c0,1.3,0.1,2.4,0.3,3.4c0.2,1,0.7,1.7,1.6,2.2c0.1,0.1,0.4,0.2,0.7,0.3c0.3,0.1,0.7,0.2,1.2,0.2
		c1,0,1.9-0.3,2.5-0.9c0.6-0.6,0.9-1.4,0.9-2.4c0-1.3-0.4-2.3-1.2-2.9c-0.8-0.6-1.7-1.2-2.6-1.7l-2.1-0.9c-0.8-0.4-1.7-0.7-2.5-1.1
		c-0.8-0.4-1.6-0.8-2.5-1.3c-0.5-0.3-1.2-0.7-2.1-1.3c-0.8-0.6-1.7-1.4-2.5-2.5c-0.8-1-1.5-2.3-2.1-3.7c-0.6-1.4-0.9-3.1-0.9-5
		c0-0.5,0-1.2,0.1-1.9c0.1-0.8,0.2-1.6,0.5-2.4c0.3-0.9,0.7-1.8,1.3-2.7c0.6-1,1.3-1.9,2.3-2.8c1.1-1.1,2.2-1.9,3.3-2.5
		c1.2-0.6,2.3-1.1,3.3-1.4c1.1-0.3,2-0.5,2.9-0.6c0.9-0.1,1.6-0.1,2.1-0.1c0.5,0,1.2,0,2.1,0.1c0.9,0.1,2,0.3,3.2,0.7
		c1.4,0.5,2.7,1.1,3.7,1.8c1,0.7,1.9,1.5,2.6,2.3c0.7,0.8,1.3,1.6,1.7,2.4c0.4,0.8,0.8,1.4,1,2s0.4,1,0.5,1.5
		c0.1,0.4,0.2,0.9,0.3,1.4c0.1,0.5,0.1,1,0.1,1.5c0,0.5,0,1.2,0.1,2h-11.9c0-0.8,0-1.3,0-1.6c0-0.3-0.1-0.5-0.2-0.8
		c-0.2-0.6-0.5-1.1-1.1-1.5c-0.5-0.4-1.1-0.6-1.9-0.6c-0.9,0-1.7,0.3-2.2,0.8c-0.6,0.6-0.8,1.3-0.8,2.2c0,0.4,0.1,0.8,0.2,1.1
		c0.1,0.3,0.2,0.5,0.3,0.6c0.4,0.6,1.1,1.2,2,1.6c0.5,0.3,1,0.5,1.6,0.8c0.6,0.2,1.3,0.5,2,0.9c2,0.9,3.6,1.7,4.8,2.5
		c1.2,0.8,2.2,1.4,2.8,2c0.2,0.2,0.5,0.5,0.9,0.9c0.4,0.4,0.8,0.8,1.2,1.5c1.2,1.6,1.8,3.1,2,4.4c0.2,1.3,0.3,2.4,0.3,3.1
		c0,0.7-0.1,1.6-0.2,2.5c-0.1,1-0.4,2-0.8,3.1c-0.4,1.1-1,2.3-1.9,3.4C489.9,671,488.8,672.2,487.4,673.2z"/>
	<path class="st0" d="M519,660c-0.9,0.4-1.9,0.6-2.9,0.7c-1,0.1-2.4,0.2-4.4,0.2H508v14.7h-13v-47.3h15.7c1.4,0,2.7,0,4.1,0.1
		c1.3,0.1,2.7,0.3,4.1,0.8c1.7,0.5,3.2,1.3,4.5,2.3c1.3,1,2.3,2.2,3.2,3.5c0.9,1.3,1.5,2.8,1.9,4.4c0.4,1.6,0.6,3.2,0.6,5
		c0,1.7-0.2,3.4-0.6,5c-0.4,1.6-1.1,3.1-1.9,4.5c-0.9,1.4-1.9,2.6-3.2,3.6C522.2,658.6,520.7,659.4,519,660z M513.6,640.1
		c-0.4-0.2-0.8-0.3-1.2-0.3c-0.4,0-0.8,0-1.3,0H508v9.3h2.9c0.7,0,1.2,0,1.5-0.1c0.3-0.1,0.7-0.1,1-0.2c0.3-0.1,0.6-0.2,0.9-0.4
		c0.3-0.2,0.6-0.4,0.9-0.8c0.3-0.3,0.6-0.7,0.8-1.2c0.2-0.5,0.3-1.1,0.3-1.9c0-1-0.2-1.9-0.7-2.7C515.2,641,514.5,640.5,513.6,640.1
		z"/>
	<path class="st0" d="M530.6,675.6v-47.3h26.8v11.4h-13.8v5.8h13.8v12h-13.7v6.4h13.9v11.7H530.6z"/>
	<path class="st0" d="M605.1,663.6c-1.2,2.1-2.5,3.9-3.9,5.3c-1.4,1.5-2.9,2.7-4.3,3.6c-1.4,1-2.8,1.7-4.1,2.2
		c-1.3,0.5-2.4,0.9-3.2,1c-0.5,0.1-1.3,0.2-2.3,0.4c-1,0.2-2.2,0.3-3.6,0.3c-3,0-5.6-0.4-8-1.2c-2.3-0.8-4.3-1.8-6-2.9
		c-1.7-1.1-3.1-2.3-4.2-3.5c-1.1-1.2-2-2.3-2.5-3.2c-0.4-0.5-0.8-1.2-1.3-2c-0.5-0.8-0.9-1.8-1.3-2.9c-0.4-1.1-0.8-2.4-1-3.7
		c-0.3-1.4-0.4-2.9-0.4-4.6c0-3.2,0.5-6,1.4-8.5c0.9-2.5,2-4.6,3.3-6.4c1.3-1.8,2.6-3.2,4-4.4c1.4-1.1,2.6-2,3.5-2.5
		c0.5-0.3,1.1-0.6,1.9-1c0.8-0.4,1.7-0.7,2.7-1c1-0.3,2.2-0.6,3.4-0.8c1.3-0.2,2.7-0.3,4.3-0.3c0.8,0,1.7,0.1,2.8,0.2
		c1.1,0.1,2.4,0.4,3.7,0.7c1.4,0.4,2.8,0.9,4.4,1.7c1.5,0.8,3.1,1.8,4.7,3c1.5,1.2,2.7,2.4,3.6,3.7c1,1.3,1.8,2.5,2.4,3.7
		c0.6,1.2,1.1,2.4,1.5,3.4c0.4,1.1,0.7,2.1,0.9,2.9h-13.9c-0.2-0.4-0.4-0.8-0.6-1.1s-0.4-0.6-0.6-0.8c-1-1.4-2.3-2.5-3.8-3.2
		c-1.5-0.7-3.2-1.1-5-1.1c-1.2,0-2.1,0.1-2.9,0.3c-0.8,0.2-1.4,0.4-1.8,0.6c-2.1,0.9-3.8,2.4-5.1,4.3c-1.3,1.9-1.9,4-1.8,6.4
		c0,1.1,0.1,2,0.3,2.7c0.2,0.7,0.4,1.2,0.5,1.6c0.2,0.5,0.6,1.2,1.1,2c0.5,0.8,1.2,1.6,2.1,2.3c0.9,0.8,1.9,1.4,3.2,2
		c1.3,0.6,2.8,0.8,4.5,0.8c0.9,0,1.7-0.1,2.3-0.2c0.6-0.1,1.1-0.3,1.5-0.4c0.4-0.1,1-0.4,2-1c1-0.6,1.9-1.3,2.7-2.4
		c0.1-0.1,0.2-0.3,0.3-0.4c0.1-0.1,0.2-0.3,0.3-0.4l1-1.5h13.9c-0.6,1.9-1.1,3.2-1.5,4.1C605.8,662.1,605.4,662.9,605.1,663.6z"/>
	<path class="st0" d="M609,675.6v-47.3h12v47.3H609z"/>
	<path class="st0" d="M654.7,675.6l-2.3-6.5h-14.8l-2.1,6.5h-14.5l18.9-47.5h10.4l19.1,47.5H654.7z M644.9,646.3l-3.8,12.1h7.9
		L644.9,646.3z"/>
	<path class="st0" d="M669.6,675.6v-47.3h12.8v35.3H696v11.9H669.6z"/>
</g>
<g>
	<path class="st0" d="M88,140.7v146H36.4V140.5H0V93.7h125.2v47H88z"/>
	<path class="st0" d="M238.9,286.7v-71.1h-53v71.1h-52.5v-193h52.5v71.6h52.8V93.7h52.2v193H238.9z"/>
	<path class="st0" d="M428.6,286.7l-9.3-26.5h-60.4l-8.7,26.5h-59l77.4-194.1h42.4L489,286.7H428.6z M388.4,167.3l-15.6,49.5h32.3
		L388.4,167.3z"/>
	<path class="st0" d="M607.9,286.7l-67.2-98.1v98.1h-51.4v-193h45.1c8.4,12,16.6,23.8,24.7,35.3c8.1,11.5,16.3,23.4,24.5,35.8
		l18,27.6V93.7h51.7v193H607.9z"/>
	<path class="st0" d="M760.4,191l63.1,95.7h-63.7l-45.9-73v73h-52.5v-193H714v78.2l51.7-78.2h59.9L760.4,191z"/>
	<path class="st0" d="M273.1,435.7v71.9h-53v-71.1l-57.7-121.9H220l23.1,55.2c0.7,1.8,1.4,3.6,2.1,5.3c0.6,1.7,1.3,3.6,2.1,5.6
		c1.5-3.3,2.8-6.5,4-9.6c1.2-3.1,2.5-6.3,4-9.6l19.8-47h54.9L273.1,435.7z"/>
	<path class="st0" d="M481.4,475.6c-9.3,11.5-20.7,20.3-34.3,26.4c-13.6,6.1-27.7,9.2-42.5,9.2c-13.1,0-25.9-2.6-38.4-7.8
		c-12.5-5.2-23.4-12.4-32.7-21.7s-16.5-20.2-21.7-32.7c-5.2-12.5-7.8-25.3-7.8-38.4c0-2.9,0.2-6.7,0.7-11.5c0.5-4.7,1.5-10.1,3.1-16
		c1.6-5.9,4.1-12.1,7.2-18.6c3.2-6.5,7.5-12.9,13-19.3c9.5-11.1,21-19.8,34.6-26c13.6-6.2,27.6-9.3,42-9.3c8.2,0,15.8,0.9,22.8,2.7
		c7,1.8,13.3,4,18.9,6.6c5.6,2.6,10.3,5.2,14.4,7.9c4,2.7,7.1,5,9.3,6.8c11.1,9.5,19.8,21,26,34.4c6.2,13.5,9.3,27.6,9.3,42.4
		c0,2.9-0.2,6.7-0.7,11.5c-0.5,4.7-1.5,10-3.1,15.7c-1.6,5.7-4.1,11.8-7.2,18.3C490.9,462.8,486.6,469.2,481.4,475.6z M449.1,393.9
		c-3.5-9.1-9.3-16.5-17.5-22.1c-8.2-5.6-17.2-8.5-27.1-8.5c-3.1,0-7.8,0.8-14.2,2.5c-6.4,1.6-12.8,5.4-19.1,11.2
		c-4.6,4.4-8.1,9.5-10.5,15.4c-2.5,5.9-3.7,12.1-3.7,18.5c0,1.5,0.1,3.5,0.4,6c0.3,2.6,0.9,5.3,1.8,8.3c0.9,3,2.3,6.2,4.2,9.6
		c1.9,3.4,4.4,6.6,7.5,9.7c4.4,4.4,9.5,7.8,15.4,10.3c5.9,2.5,12,3.7,18.2,3.7c4.6,0,8.7-0.5,12.6-1.6c3.8-1.1,7.1-2.5,10-4.1
		c2.8-1.6,5.3-3.3,7.4-5.1c2.1-1.7,3.7-3.1,4.8-4.2c1.1-1.1,2.4-2.6,3.8-4.5c1.5-1.9,2.9-4.2,4.2-7c1.4-2.7,2.5-5.9,3.4-9.4
		c0.9-3.6,1.4-7.4,1.4-11.6C452.1,405.2,451.1,399.5,449.1,393.9z"/>
	<path class="st0" d="M652.7,458.6c-0.5,2-1.3,4.6-2.2,7.7c-0.9,3.1-2.3,6.4-4.2,10s-4.4,7.2-7.5,10.9c-3.1,3.7-7.1,7.3-12,10.8
		c-4.2,3.1-9.8,6.1-16.7,9c-6.9,2.9-16.3,4.4-28.2,4.4c-11.1,0-20.6-1.5-28.6-4.5c-7.9-3-14.5-6.8-19.8-11.3
		c-5.3-4.6-9.5-9.5-12.6-14.8c-3.1-5.3-5.3-10.2-6.6-14.8c-0.7-2.2-1.3-4.4-1.8-6.7c-0.5-2.3-0.8-4.8-1.1-7.5s-0.5-5.8-0.7-9.2
		c-0.2-3.4-0.3-7.3-0.3-11.9V314.6h52.2v121.9c0,4.6,0.5,8.6,1.5,12.2c1,3.6,3.3,6.6,7,9.2c1.3,0.7,2.5,1.3,3.6,1.8
		c1.1,0.5,2.1,0.8,3,1c0.9,0.2,1.8,0.3,2.7,0.3c0.9,0,1.6,0,2.2,0c5.8,0,10.7-1.8,14.6-5.5c3.9-3.6,5.9-8.2,5.9-13.7v-6.3V314.6
		h52.2v109.3c0,5.5-0.1,11.3-0.3,17.4C655,447.4,654.2,453.2,652.7,458.6z"/>
</g>
<g>
	<g>
		<g>
			<path class="st0" d="M367.1,21.6c0,10.9-8.9,19.7-19.7,19.7l-13.9,0V2l14,0C358.3,2,367.1,10.8,367.1,21.6 M356.5,21.6
				c0-6-4.7-10.3-10.4-10.3l-2.3,0v20.7l2.3,0C351.9,31.9,356.5,27.5,356.5,21.6"/>
			<path class="st0" d="M166.2,21.6c0,11.5-9.4,20.7-20.8,20.7l-0.5,0V31.5h1c5.3,0,9.6-4.4,9.6-9.9c0-5.5-4.3-9.9-9.6-10l-1,0V0.8
				h0.6C156.9,0.8,166.2,10.1,166.2,21.6"/>
			<polygon class="st0" points="190.1,10.7 178.1,10.7 178.1,16.6 190.1,16.6 190.1,25.9 178.1,25.9 178.1,32.3 190.2,32.3 
				190.2,41.3 167.7,41.3 167.7,2 190.1,2 			"/>
			<polygon class="st0" points="215.2,10.8 202.4,10.8 202.4,17.1 215.2,17.1 215.2,26.3 202.4,26.3 202.4,41.3 192.5,41.3 192.5,2 
				215.2,2 			"/>
			<polygon class="st0" points="240,10.7 228,10.7 228,16.6 240,16.6 240,25.9 228.1,25.9 228.1,32.3 240.1,32.3 240.1,41.3 
				217.7,41.3 217.7,2 240,2 			"/>
			<path class="st0" d="M270.9,16.7c-0.3-0.6-0.6-1-0.9-1.5c-1.9-2.5-4.7-3.9-7.9-3.9c-2.1,0-3.5,0.6-4.2,0.9
				c-3.8,1.6-6.2,5.3-6.2,9.5c0.1,1.9,0.5,3.2,0.8,3.8c0.8,1.8,3.6,6.4,9.6,6.4c1.6,0,2.7-0.3,3.4-0.6c0.6-0.2,2.8-1.2,4.3-3
				c0.4-0.5,0.6-0.8,1.2-1.8h10.9c-0.8,2.6-1.3,3.7-1.9,4.8c-3.8,7-10.1,9.5-12.9,10.1c-0.8,0.2-2.6,0.6-4.9,0.6
				c-10,0-15.3-6.1-17.3-9c-1.3-1.8-3.4-5.5-3.4-11.1c0-10.7,7-16.2,10.2-18.1c1.6-0.9,5.2-2.7,10.2-2.7c2.6,0,7.8,0.4,13,4.7
				c4.8,4,6.2,8.6,6.9,10.9H270.9z"/>
			<polygon class="st0" points="306,10.8 298.2,10.8 298.2,41.3 288.2,41.3 288.2,10.8 280.5,10.8 280.5,2 306,2 			"/>
			<polygon class="st0" points="330.8,10.7 318.8,10.7 318.8,16.6 330.8,16.6 330.8,25.9 318.8,25.9 318.8,32.3 330.9,32.3 
				330.9,41.3 308.4,41.3 308.4,2 330.8,2 			"/>
			<polygon class="st0" points="362.6,2.9 362.6,1.9 366.2,1.9 366.2,2.9 365,2.9 365,6.2 363.8,6.2 363.8,2.9 			"/>
			<path class="st0" d="M370.3,3.2L370.3,3.2l-0.8,3h-0.9l-0.8-3l0-0.2c0,0.1,0,3.2,0,3.2h-1V1.9h1.6l0.7,2.5c0,0.2,0.1,0.4,0.1,0.7
				c0,0.1,0,0.1,0,0.2c0-0.2,0-0.3,0-0.5c0-0.2,0-0.3,0.1-0.4l0.7-2.5h1.6v4.3h-1.1V3.2z"/>
			<rect x="99.8" class="st1" width="43" height="43"/>
		</g>
		<path class="st0" d="M417,31.4c-1,1.8-2.1,3.3-3.3,4.5c-1.2,1.2-2.4,2.2-3.6,3c-1.2,0.8-2.3,1.4-3.4,1.9c-1.1,0.4-2,0.7-2.7,0.9
			c-0.4,0.1-1.1,0.2-1.9,0.3c-0.9,0.2-1.9,0.2-3,0.2c-2.5,0-4.8-0.3-6.7-1c-2-0.7-3.6-1.5-5.1-2.5c-1.4-1-2.6-2-3.6-3
			c-0.9-1-1.7-1.9-2.1-2.7c-0.3-0.5-0.7-1-1.1-1.7c-0.4-0.7-0.8-1.5-1.1-2.5c-0.4-0.9-0.6-2-0.9-3.2c-0.2-1.2-0.3-2.5-0.3-3.9
			c0-2.7,0.4-5.1,1.2-7.2c0.8-2.1,1.7-3.9,2.8-5.4c1.1-1.5,2.2-2.7,3.4-3.7c1.2-0.9,2.2-1.7,3-2.1c0.4-0.3,0.9-0.5,1.6-0.8
			c0.7-0.3,1.4-0.6,2.3-0.9c0.9-0.3,1.8-0.5,2.9-0.7c1.1-0.2,2.3-0.3,3.6-0.3c0.6,0,1.4,0,2.4,0.1c1,0.1,2,0.3,3.2,0.6
			c1.1,0.3,2.4,0.8,3.7,1.4c1.3,0.6,2.6,1.5,3.9,2.5c1.2,1,2.3,2,3.1,3.1c0.8,1.1,1.5,2.1,2,3.1c0.5,0.9,0.9,1.9,1.2,2.9
			c0.1,0.3,0.2,0.7,0.3,1c0.1,0.3,0.2,0.6,0.3,0.9h-11.1c-0.2-0.3-0.4-0.6-0.5-0.8c-0.2-0.2-0.3-0.5-0.4-0.6c-1-1.3-2.2-2.3-3.5-3
			c-1.4-0.7-2.9-1-4.5-1c-1.1,0-1.9,0.1-2.7,0.3c-0.7,0.2-1.3,0.4-1.6,0.6c-1.9,0.9-3.4,2.2-4.6,3.9c-1.1,1.7-1.7,3.6-1.7,5.7
			c0,1,0.1,1.8,0.3,2.4c0.2,0.6,0.4,1.1,0.5,1.5c0.2,0.5,0.5,1,1,1.8c0.5,0.7,1.1,1.4,1.9,2.1c0.8,0.7,1.8,1.3,2.9,1.8
			c1.1,0.5,2.5,0.7,4,0.7c0.8,0,1.5-0.1,2.1-0.2c0.6-0.1,1-0.3,1.4-0.4c0.3-0.1,0.9-0.4,1.8-0.8c0.9-0.5,1.7-1.2,2.5-2.1
			c0.1-0.1,0.2-0.2,0.3-0.4c0.1-0.1,0.2-0.3,0.3-0.4l0.7-1.1H419c-0.5,1.4-0.9,2.4-1.1,3.1C417.6,30.2,417.3,30.8,417,31.4z"/>
		<path class="st0" d="M438.5,41.4l-8.1-12.7v12.7h-10.1V1.6h14.8c1.9,0,3.6,0.1,5.2,0.4c1.6,0.3,3.2,1,4.8,2.2
			c0.5,0.4,1,0.9,1.6,1.5c0.6,0.6,1.1,1.4,1.6,2.3c0.5,0.9,0.9,1.9,1.3,3.1c0.3,1.2,0.5,2.5,0.5,4.1c0,1.6-0.2,3-0.6,4.2
			c-0.4,1.2-0.8,2.2-1.4,3.1c-0.5,0.9-1.1,1.6-1.7,2.2c-0.6,0.6-1.2,1-1.7,1.4c-0.4,0.3-0.8,0.6-1.3,0.8c-0.5,0.2-1.2,0.5-2.3,1
			l9.6,13.6H438.5z M439.2,12.7c-0.6-1-1.4-1.6-2.4-1.8c-1-0.2-2-0.3-3.1-0.3h-3.4v10.9h3.2c0.1,0,0.3-0.1,0.5-0.1
			c0.3,0,0.5,0,0.6-0.1c0.3,0,0.6-0.1,0.8-0.1c0.3,0,0.5-0.1,0.8-0.2c0.3-0.1,0.7-0.3,1.1-0.5c0.4-0.2,0.8-0.6,1.2-1
			c0.4-0.4,0.7-1,0.9-1.6c0.3-0.6,0.4-1.4,0.4-2.3c0-0.5,0-1-0.1-1.5C439.7,13.7,439.5,13.2,439.2,12.7z"/>
		<path class="st0" d="M487.6,34.8c-1.9,2.4-4.3,4.2-7.1,5.4c-2.8,1.3-5.7,1.9-8.8,1.9c-2.7,0-5.3-0.5-7.9-1.6
			c-2.6-1.1-4.8-2.6-6.7-4.5c-1.9-1.9-3.4-4.2-4.5-6.7c-1.1-2.6-1.6-5.2-1.6-7.9c0-0.6,0-1.4,0.1-2.4c0.1-1,0.3-2.1,0.6-3.3
			c0.3-1.2,0.8-2.5,1.5-3.8c0.7-1.3,1.6-2.7,2.7-4c0.9-1.1,2-2.1,3.2-3c1.2-0.9,2.5-1.7,3.9-2.3c1.4-0.6,2.8-1.1,4.3-1.4
			c1.5-0.3,3-0.5,4.4-0.5c1.7,0,3.3,0.2,4.7,0.6c1.4,0.4,2.7,0.8,3.9,1.4c1.1,0.5,2.1,1.1,3,1.6c0.8,0.6,1.5,1,1.9,1.4
			c2.3,2,4.1,4.3,5.4,7.1c1.3,2.8,1.9,5.7,1.9,8.7c0,0.6,0,1.4-0.1,2.4c-0.1,1-0.3,2.1-0.6,3.2c-0.3,1.2-0.8,2.4-1.5,3.8
			C489.5,32.2,488.7,33.5,487.6,34.8z M482.2,17.5c-0.4-1.1-1-2.1-1.7-3c-0.7-0.9-1.5-1.6-2.4-2.3c-0.9-0.6-1.9-1.1-3-1.5
			c-1.1-0.3-2.2-0.5-3.4-0.5c-0.3,0-0.8,0-1.4,0.1c-0.6,0.1-1.3,0.2-1.9,0.5c-0.7,0.2-1.4,0.5-2.2,1c-0.8,0.4-1.5,1-2.3,1.6
			c-1.1,1.1-1.9,2.3-2.5,3.7c-0.6,1.4-0.8,2.8-0.8,4.3c0,0.3,0,0.8,0.1,1.4c0.1,0.6,0.2,1.3,0.4,2c0.2,0.7,0.6,1.5,1,2.3
			c0.4,0.8,1,1.5,1.8,2.3c1,1.1,2.2,1.9,3.6,2.4c1.4,0.6,2.8,0.8,4.3,0.8c1.1,0,2.1-0.1,3-0.4c0.9-0.3,1.7-0.6,2.3-1
			c0.7-0.4,1.2-0.8,1.7-1.2c0.5-0.4,0.8-0.7,1.1-1c0.3-0.3,0.6-0.6,0.9-1.1c0.4-0.5,0.7-1,1-1.7c0.3-0.7,0.6-1.4,0.8-2.2
			c0.2-0.8,0.3-1.7,0.3-2.7C482.9,20.1,482.7,18.8,482.2,17.5z"/>
		<path class="st0" d="M516.6,41.4l-2-5.6h-13.4l-1.9,5.6H488l16-40h8.3l16.1,40H516.6z M507.8,15.2l-3.9,12.3h8.1L507.8,15.2z"/>
		<path class="st0" d="M540,10.7v30.8h-10.1V10.6h-7.8v-9H548v9H540z"/>
		<path class="st0" d="M549.6,41.4V1.6h10.2v39.8H549.6z"/>
		<path class="st0" d="M588.7,41.4l-2-5.6h-13.4l-1.9,5.6h-11.4l16-40h8.3l16.1,40H588.7z M579.9,15.2L576,27.6h8.1L579.9,15.2z"/>
	</g>
	<path class="st0" d="M612.1,41.4V34c1.4-1.2,2.7-2.4,3.9-3.6c1.2-1.1,2.5-2.3,3.7-3.5l3.2-3.1c1.1-1.1,2-2,2.8-2.9
		c0.8-0.9,1.4-1.7,1.9-2.5c0.5-0.8,0.9-1.5,1.1-2.3c0.2-0.8,0.4-1.5,0.4-2.3c0-0.2,0-0.4,0-0.6c0-0.2,0-0.3-0.1-0.5
		c0-0.1-0.1-0.2-0.1-0.3c0-0.1,0-0.2-0.1-0.4c-0.3-0.7-0.7-1.3-1.3-1.7c-0.6-0.5-1.3-0.7-2.1-0.7c-0.7,0-1.3,0.2-1.8,0.6
		c-0.8,0.5-1.3,1.2-1.5,2c-0.3,0.8-0.4,1.6-0.5,2.5c0,0.2-0.1,0.5-0.1,0.7c0,0.2,0,0.5,0,0.9l-9.9-0.1v-1.7c0-0.4,0-0.8,0.1-1.2
		c0.1-0.4,0.1-0.8,0.2-1.3c0.2-0.9,0.5-1.9,0.9-2.9c0.4-1,1-2,1.8-3c0.5-0.6,1-1.2,1.7-1.8c0.7-0.6,1.5-1.2,2.4-1.7
		c1-0.5,2.1-1,3.3-1.3c1.3-0.3,2.7-0.5,4.4-0.5c0.3,0,0.8,0,1.4,0.1c0.6,0,1.2,0.1,2,0.3c0.7,0.1,1.5,0.3,2.3,0.6
		c0.8,0.3,1.7,0.7,2.5,1.2c0.4,0.3,0.9,0.8,1.5,1.3c0.6,0.5,1.1,1.2,1.7,2c0.5,0.8,1,1.7,1.4,2.8c0.4,1.1,0.6,2.3,0.6,3.7v0.8
		c0,0.2,0,0.3,0,0.5c0,0.2,0,0.3-0.1,0.5c-0.1,0.4-0.2,0.8-0.2,1.3c-0.1,0.4-0.2,0.9-0.4,1.4c-0.3,0.9-0.8,1.8-1.3,2.7
		c-0.5,0.9-1.1,1.7-1.8,2.5c-0.6,0.8-1.3,1.6-2,2.4c-0.7,0.8-1.4,1.5-2.1,2.2l-4.8,5h13.1v9.3H612.1z"/>
	<path class="st0" d="M676.7,35.3c-2,2.3-4.3,4-7.1,5.2c-2.8,1.2-5.6,1.8-8.6,1.8c-2.7,0-5.3-0.5-7.9-1.6c-2.6-1.1-4.8-2.6-6.7-4.5
		c-1.9-1.9-3.4-4.2-4.5-6.7c-1.1-2.6-1.6-5.2-1.6-8c0-2.6,0.5-5.1,1.4-7.5c0.9-2.4,2.3-4.5,3.9-6.5c2-2.2,4.3-3.9,7-5.1
		c2.7-1.2,5.5-1.8,8.5-1.8c0.6,0,1.4,0,2.4,0.1c1,0.1,2.1,0.3,3.3,0.7c1.2,0.4,2.5,0.9,3.8,1.5c1.4,0.7,2.7,1.6,4,2.7
		c2.3,2,4.1,4.3,5.4,7.1c1.3,2.8,1.9,5.7,1.9,8.7c0,2.5-0.4,4.9-1.3,7.3C679.7,31.2,678.4,33.4,676.7,35.3z M669.6,14.5
		c-0.8-0.9-1.5-1.6-2.4-2.1c-0.8-0.5-1.6-0.9-2.4-1.2c-0.8-0.3-1.5-0.5-2.2-0.5c-0.7-0.1-1.2-0.1-1.6-0.1c-1.6,0-3.1,0.3-4.6,1
		c-2,0.9-3.5,2.2-4.7,4c-1.2,1.8-1.8,3.8-1.8,6.1c0,0.3,0,0.8,0.1,1.4c0.1,0.6,0.2,1.3,0.4,1.9c0.2,0.7,0.6,1.4,1,2.2
		c0.4,0.8,1,1.6,1.8,2.3c1.1,1.1,2.3,1.9,3.7,2.4c1.4,0.5,2.7,0.8,4.2,0.8c0.3,0,0.8,0,1.3-0.1c0.5-0.1,1.1-0.2,1.7-0.3
		c0.6-0.2,1.3-0.4,2-0.8c0.7-0.4,1.4-0.8,2.1-1.4c0.9-0.7,1.6-1.5,2.1-2.3c0.5-0.8,0.9-1.7,1.2-2.5c0.3-0.8,0.5-1.5,0.5-2.2
		c0.1-0.7,0.1-1.2,0.1-1.6C672.2,18.9,671.3,16.5,669.6,14.5z"/>
	<path class="st0" d="M684.8,41.4V9.2h-4.6V1.6h14.5v39.8H684.8z"/>
	<path class="st0" d="M720,39.9c-0.8,0.5-1.9,1.1-3.4,1.6c-1.5,0.6-3.4,0.8-5.7,0.8c-0.5,0-1.3,0-2.4-0.1c-1.1-0.1-2.2-0.4-3.5-0.8
		c-1.2-0.5-2.4-1.1-3.4-1.8c-1-0.8-2-1.7-2.7-2.7c-0.8-1-1.4-2.2-1.8-3.4c-0.4-1.2-0.6-2.5-0.6-3.9c0-1.3,0.2-2.4,0.5-3.4
		c0.4-1,0.8-1.9,1.3-2.6s1-1.3,1.5-1.8c0.5-0.5,1-0.8,1.3-1.1l1.4-0.9c-0.7-0.5-1.2-1-1.6-1.3c-0.4-0.4-0.7-0.7-1-1
		c-0.4-0.6-0.7-1.2-1-2.1c-0.3-0.8-0.4-1.8-0.4-3c0-1.2,0.1-2.2,0.4-2.9c0.3-0.8,0.5-1.3,0.7-1.7c0.3-0.6,0.8-1.3,1.4-2.1
		c0.6-0.8,1.3-1.5,2.3-2.2c1-0.7,2.1-1.2,3.4-1.7c1.3-0.5,2.9-0.7,4.7-0.7c0.3,0,0.8,0,1.3,0.1c0.5,0,1.1,0.1,1.8,0.3
		c0.7,0.1,1.4,0.3,2.1,0.6c0.8,0.3,1.5,0.7,2.3,1.2c1.3,1,2.4,2.2,3.3,3.7c0.9,1.5,1.3,3.1,1.3,4.8c0,1.6-0.3,2.9-0.8,4
		c-0.5,1.1-0.9,1.8-1.3,2.2c-0.2,0.3-0.4,0.5-0.7,0.7c-0.3,0.2-0.7,0.5-1.2,1c0.5,0.3,0.9,0.5,1.1,0.6c0.2,0.1,0.4,0.2,0.5,0.3
		c0.1,0.1,0.2,0.2,0.3,0.3c0.1,0.1,0.2,0.2,0.4,0.3c0.9,0.7,1.6,1.4,2.1,2.3c0.5,0.8,0.9,1.7,1.2,2.5c0.3,0.8,0.4,1.5,0.5,2.2
		c0.1,0.7,0.1,1.2,0.1,1.6c0,1.5-0.2,2.8-0.7,3.9c-0.5,1.1-1,2.2-1.6,3c-0.6,0.9-1.3,1.6-1.9,2.1C720.9,39.2,720.4,39.6,720,39.9z
		 M711.1,24.2c-0.7,0-1.3,0.1-1.9,0.4c-0.6,0.2-1.1,0.6-1.5,1c-0.4,0.4-0.8,0.9-1,1.5c-0.2,0.6-0.4,1.2-0.4,1.8
		c0.1,0.3,0.1,0.6,0.1,0.8c0,0.2,0.1,0.4,0.1,0.6c0.2,0.8,0.6,1.4,1.2,2c0.6,0.6,1.2,1,1.8,1.1c0.6,0.2,1.1,0.2,1.4,0.2
		c1.3,0,2.4-0.5,3.3-1.4c0.9-0.9,1.4-2,1.4-3.3c0-0.7-0.1-1.3-0.4-1.9c-0.2-0.6-0.6-1.1-1-1.5c-0.4-0.4-0.9-0.7-1.5-1
		C712.4,24.4,711.8,24.2,711.1,24.2z M711.1,9.3c-1.1,0-1.9,0.4-2.6,1.1c-0.7,0.7-1,1.6-1,2.6c0,0.2,0,0.6,0.1,1
		c0.1,0.5,0.4,0.9,0.9,1.4c0.5,0.5,1,0.8,1.5,0.9c0.5,0.1,0.8,0.1,1,0.1c1.1,0,1.9-0.3,2.6-1c0.7-0.7,1-1.6,1-2.6
		c0-1.1-0.3-1.9-1-2.6C713,9.6,712.1,9.3,711.1,9.3z"/>
</g>
</svg>
