<?xml version="1.0" encoding="utf-8"?>
<!-- Generator: Adobe Illustrator 22.1.0, SVG Export Plug-In . SVG Version: 6.00 Build 0)  -->
<svg version="1.1" id="Layer_1" xmlns="http://www.w3.org/2000/svg" xmlns:xlink="http://www.w3.org/1999/xlink" x="0px" y="0px"
	 viewBox="0 0 1484.4 436" style="enable-background:new 0 0 1484.4 436;" xml:space="preserve">
<style type="text/css">
	.st0{fill:#FFFFFF;}
	.st1{fill:#FFE843;}
</style>
<g>
	<path class="st0" d="M97.4,156.1v161.2H40.3V155.8H0.2v-51.6h138.3v51.9H97.4z"/>
	<path class="st0" d="M264,317.3v-78.5h-58.6v78.5h-58V104.1h58v79.1h58.3v-79.1h57.7v213.1H264z"/>
	<path class="st0" d="M473.5,317.3L463.3,288h-66.7l-9.7,29.3h-65.2l85.4-214.3h46.8l86.3,214.3H473.5z M429.1,185.4L411.9,240h35.6
		L429.1,185.4z"/>
	<path class="st0" d="M671.6,317.3l-74.3-108.4v108.4h-56.8V104.1h49.8c9.3,13.3,18.4,26.3,27.3,38.9c9,12.7,18,25.9,27,39.5
		l19.9,30.5v-109h57.1v213.1H671.6z"/>
	<path class="st0" d="M840,211.6l69.7,105.7h-70.3l-50.7-80.6v80.6h-58V104.1h58v86.3l57.1-86.3h66.1L840,211.6z"/>
	<path class="st0" d="M1061.9,237.9v79.4h-58.6v-78.5l-63.7-134.6h63.7l25.5,61c0.8,2,1.6,4,2.3,5.9c0.7,1.9,1.5,4,2.3,6.2
		c1.6-3.6,3.1-7.1,4.4-10.6c1.3-3.4,2.8-6.9,4.4-10.6l21.8-51.9h60.7L1061.9,237.9z"/>
	<path class="st0" d="M1291.9,282c-10.3,12.7-22.9,22.4-37.9,29.1c-15,6.7-30.6,10.1-46.9,10.1c-14.5,0-28.6-2.9-42.4-8.6
		c-13.8-5.7-25.8-13.7-36.1-24c-10.3-10.3-18.3-22.3-24-36.1c-5.7-13.8-8.6-27.9-8.6-42.4c0-3.2,0.2-7.4,0.8-12.7
		c0.5-5.2,1.7-11.1,3.5-17.7c1.8-6.5,4.5-13.4,8-20.5c3.5-7.1,8.3-14.2,14.3-21.3c10.5-12.3,23.2-21.8,38.2-28.7
		c15-6.8,30.4-10.3,46.3-10.3c9.1,0,17.5,1,25.2,3c7.7,2,14.7,4.4,20.8,7.2c6.1,2.8,11.4,5.7,15.8,8.8c4.4,3,7.8,5.5,10.3,7.5
		c12.3,10.5,21.8,23.1,28.7,38c6.8,14.9,10.3,30.5,10.3,46.8c0,3.2-0.3,7.4-0.8,12.7c-0.5,5.2-1.7,11-3.5,17.4
		c-1.8,6.3-4.5,13.1-8,20.2C1302.4,267.8,1297.7,274.9,1291.9,282z M1256.3,191.7c-3.8-10.1-10.3-18.2-19.3-24.5
		c-9.1-6.2-19-9.4-29.9-9.4c-3.4,0-8.7,0.9-15.7,2.7c-7,1.8-14.1,5.9-21.1,12.4c-5,4.8-8.9,10.5-11.6,17.1
		c-2.7,6.5-4.1,13.3-4.1,20.4c0,1.6,0.2,3.8,0.5,6.6c0.3,2.8,1,5.9,2,9.2c1,3.3,2.6,6.8,4.7,10.6c2.1,3.7,4.9,7.3,8.3,10.7
		c4.8,4.8,10.5,8.6,17.1,11.3c6.5,2.7,13.2,4.1,20.1,4.1c5,0,9.7-0.6,13.9-1.8s7.9-2.7,11-4.5c3.1-1.8,5.8-3.7,8.2-5.6
		c2.3-1.9,4.1-3.5,5.3-4.7c1.2-1.2,2.6-2.9,4.2-5c1.6-2.1,3.2-4.7,4.7-7.7s2.8-6.5,3.8-10.4c1-3.9,1.5-8.2,1.5-12.8
		C1259.6,204.2,1258.5,197.9,1256.3,191.7z"/>
	<path class="st0" d="M1481.2,263.2c-0.6,2.2-1.4,5-2.4,8.5c-1,3.4-2.6,7.1-4.7,11c-2.1,3.9-4.9,8-8.3,12.1
		c-3.4,4.1-7.8,8.1-13.3,11.9c-4.6,3.4-10.8,6.7-18.4,10c-7.7,3.2-18,4.8-31.1,4.8c-12.3,0-22.8-1.7-31.5-5
		c-8.8-3.3-16.1-7.5-21.9-12.5c-5.8-5-10.5-10.5-13.9-16.3c-3.4-5.8-5.8-11.3-7.2-16.3c-0.8-2.4-1.5-4.9-2-7.4
		c-0.5-2.5-0.9-5.3-1.2-8.3c-0.3-3-0.6-6.4-0.8-10.1c-0.2-3.7-0.3-8.1-0.3-13.1V104.1h57.7v134.6c0,5,0.6,9.5,1.7,13.4
		c1.1,3.9,3.7,7.3,7.7,10.1c1.4,0.8,2.7,1.5,3.9,2c1.2,0.5,2.3,0.9,3.3,1.1c1,0.2,2,0.3,3,0.3c1,0,1.8,0,2.4,0c6.4,0,11.8-2,16.2-6
		c4.3-4,6.5-9.1,6.5-15.1v-6.9V104.1h57.7v120.7c0,6-0.1,12.4-0.3,19.2C1483.7,250.8,1482.8,257.2,1481.2,263.2z"/>
</g>
<g>
	<path class="st0" d="M15,392.1v7.5h17.6v14.2H15v21H0v-56.5h32.7v13.8H15z"/>
	<path class="st0" d="M86.2,425.5c-2.7,3.4-6.1,5.9-10,7.7c-4,1.8-8.1,2.7-12.4,2.7c-3.8,0-7.6-0.8-11.2-2.3
		c-3.7-1.5-6.8-3.6-9.6-6.4c-2.7-2.7-4.8-5.9-6.4-9.6c-1.5-3.7-2.3-7.4-2.3-11.2c0-0.9,0.1-2,0.2-3.4c0.1-1.4,0.4-2.9,0.9-4.7
		c0.5-1.7,1.2-3.5,2.1-5.4c0.9-1.9,2.2-3.8,3.8-5.6c2.8-3.3,6.1-5.8,10.1-7.6c4-1.8,8.1-2.7,12.3-2.7c2.4,0,4.6,0.3,6.7,0.8
		c2.1,0.5,3.9,1.2,5.5,1.9c1.6,0.7,3,1.5,4.2,2.3c1.2,0.8,2.1,1.5,2.7,2c3.3,2.8,5.8,6.1,7.6,10.1c1.8,3.9,2.7,8.1,2.7,12.4
		c0,0.9-0.1,2-0.2,3.4c-0.1,1.4-0.4,2.9-0.9,4.6c-0.5,1.7-1.2,3.5-2.1,5.4C89,421.8,87.8,423.6,86.2,425.5z M76.8,401.6
		c-1-2.7-2.7-4.8-5.1-6.5c-2.4-1.7-5-2.5-7.9-2.5c-0.9,0-2.3,0.2-4.2,0.7c-1.9,0.5-3.7,1.6-5.6,3.3c-1.3,1.3-2.4,2.8-3.1,4.5
		c-0.7,1.7-1.1,3.5-1.1,5.4c0,0.4,0,1,0.1,1.8c0.1,0.7,0.3,1.6,0.5,2.4c0.3,0.9,0.7,1.8,1.2,2.8c0.6,1,1.3,1.9,2.2,2.8
		c1.3,1.3,2.8,2.3,4.5,3c1.7,0.7,3.5,1.1,5.3,1.1c1.3,0,2.6-0.2,3.7-0.5c1.1-0.3,2.1-0.7,2.9-1.2c0.8-0.5,1.5-1,2.2-1.5
		c0.6-0.5,1.1-0.9,1.4-1.2c0.3-0.3,0.7-0.8,1.1-1.3c0.4-0.6,0.8-1.2,1.2-2c0.4-0.8,0.7-1.7,1-2.8c0.3-1,0.4-2.2,0.4-3.4
		C77.7,404.9,77.4,403.2,76.8,401.6z"/>
	<path class="st0" d="M120.2,434.9L110,418.8v16.1H94.8v-56.5h21c2.6,0,5.1,0.2,7.4,0.6s4.6,1.4,6.8,3.2c0.7,0.5,1.5,1.2,2.3,2.1
		c0.8,0.9,1.6,2,2.3,3.2c0.7,1.3,1.3,2.8,1.8,4.5c0.5,1.7,0.7,3.7,0.7,5.9c0,2.2-0.3,4.2-0.8,5.9c-0.5,1.7-1.2,3.2-2,4.5
		c-0.8,1.3-1.6,2.3-2.5,3.2c-0.9,0.9-1.7,1.5-2.4,2c-0.6,0.4-1.2,0.8-1.8,1.1c-0.6,0.3-1.4,0.7-2.5,1.1l13.5,19.2H120.2z M121,394.7
		c-0.7-1.2-1.7-2-2.9-2.3c-1.2-0.3-2.5-0.4-4-0.4h-4v13.9h3.7c0.2-0.1,0.4-0.1,0.6-0.1c0.3,0,0.6,0,0.9-0.1c0.6,0,1.3-0.1,2.2-0.4
		c0.4-0.1,0.8-0.3,1.3-0.6c0.5-0.3,1-0.7,1.5-1.3c0.5-0.6,0.9-1.3,1.2-2.1c0.3-0.8,0.5-1.8,0.5-2.9c0-0.6-0.1-1.3-0.2-1.9
		C121.6,395.9,121.3,395.3,121,394.7z"/>
	<path class="st0" d="M200.7,434.9v-23c0-1.7,0-3.3,0-5c0-1.7,0.1-3.3,0.1-5c-0.5,1.7-1,3.3-1.5,4.9c-0.5,1.6-1,3.3-1.6,4.9
		c-0.7,2-1.4,4.1-2,6.2c-0.7,2.1-1.3,4.1-2,6.2c-0.6,1.7-1.2,3.5-1.8,5.2c-0.6,1.8-1.2,3.6-1.9,5.6h-11.1l-6.1-17.8
		c-0.5-1.4-0.9-2.7-1.4-4.1c-0.4-1.3-0.9-2.7-1.3-4.2l-2-6.6c0.1,1.7,0.1,3.4,0.1,5.2c0,1.7,0,3.5,0,5.2v22.4h-14v-56.5H174
		c1.2,3.7,2.4,7.2,3.6,10.7c1.1,3.4,2.3,6.9,3.4,10.4l3.8,12.2c1.1-4,2.3-8,3.6-12c0.6-2,1.3-4,2-6c0.7-2,1.3-4,2-6
		c0.5-1.5,1-3,1.4-4.5c0.5-1.5,1-3.1,1.6-4.8h19.9v56.5H200.7z"/>
	<path class="st0" d="M255.6,434.9l-2.7-7.8h-17.7l-2.6,7.8h-17.3l22.6-56.8h12.4l22.9,56.8H255.6z M243.8,399.9l-4.6,14.5h9.4
		L243.8,399.9z"/>
	<path class="st0" d="M302.3,406.9l18.5,28h-18.6l-13.4-21.4v21.4h-15.4v-56.5h15.4v22.9l15.1-22.9h17.5L302.3,406.9z"/>
	<path class="st0" d="M321.4,434.9v-56.5h14.4v56.5H321.4z"/>
	<path class="st0" d="M373,434.9l-19.7-28.7v28.7h-15v-56.5h13.2c2.5,3.5,4.9,7,7.2,10.3c2.4,3.4,4.8,6.9,7.2,10.5l5.3,8.1v-28.9
		h15.1v56.5H373z"/>
	<path class="st0" d="M440.1,424.9c-2.9,3.5-6.3,6.2-10.4,8.2c-4,1.9-8.3,2.9-12.8,2.9c-0.9,0-2-0.1-3.3-0.2
		c-1.3-0.1-2.7-0.4-4.3-0.9c-1.6-0.5-3.2-1.1-5-1.9c-1.8-0.8-3.5-2-5.4-3.4c-0.9-0.7-2-1.7-3.3-3c-1.3-1.3-2.5-2.9-3.6-4.8
		c-1.1-1.9-2.1-4.1-2.9-6.6c-0.8-2.5-1.2-5.3-1.2-8.5c0-3.4,0.4-6.3,1.3-9c0.9-2.6,2-4.9,3.2-6.8c1.3-1.9,2.6-3.6,4-4.8
		s2.5-2.3,3.5-3c5.1-3.8,10.8-5.7,17.2-5.7c3.5,0,6.5,0.5,9.2,1.4c2.7,0.9,5,2.1,7,3.4s3.7,2.7,5,4.2c1.3,1.4,2.3,2.7,3,3.7
		c0.4,0.5,0.7,1,1,1.5c0.3,0.5,0.5,1,0.8,1.6c0.3,0.6,0.6,1.3,0.9,2.1c0.3,0.8,0.8,1.8,1.2,3H428l-0.8-1.1c-0.2-0.2-0.3-0.3-0.4-0.5
		c-0.1-0.2-0.3-0.4-0.5-0.6c-1.2-1.1-2.6-1.9-4.2-2.4c-1.6-0.5-3.2-0.8-4.8-0.8c-0.5,0-1.3,0.1-2.2,0.2c-1,0.1-2.1,0.4-3.3,1
		c-2.6,1.1-4.6,2.8-6.2,5.2c-1.6,2.4-2.3,5-2.3,7.8c0,0.9,0.2,2.1,0.5,3.7c0.3,1.5,1.2,3.2,2.6,4.9c0.3,0.4,0.8,0.9,1.4,1.5
		c0.6,0.6,1.4,1.2,2.3,1.7c0.9,0.6,2,1,3.2,1.4c1.2,0.4,2.6,0.6,4,0.6c1.3,0,2.4-0.1,3.5-0.4c1-0.3,2-0.6,2.8-1
		c0.8-0.4,1.5-0.8,2-1.2s1-0.8,1.3-1.1c0.4-0.4,0.7-0.8,1-1.2H413v-13h33.8c-0.1,2.2-0.3,4.3-0.4,6.3c-0.2,1.9-0.5,3.8-1,5.6
		c-0.5,1.8-1.1,3.6-2,5.3C442.5,421.5,441.4,423.2,440.1,424.9z"/>
	<path class="st0" d="M484.6,392.1v42.7h-15.1v-42.8h-10.6v-13.7h36.6v13.8H484.6z"/>
	<path class="st0" d="M528.7,434.9v-20.8h-15.5v20.8h-15.4v-56.5h15.4v21h15.4v-21h15.3v56.5H528.7z"/>
	<path class="st0" d="M546.3,434.9v-56.5h14.4v56.5H546.3z"/>
	<path class="st0" d="M593.5,432.1c-1.3,1-2.5,1.7-3.7,2.2c-1.2,0.5-2.3,0.9-3.4,1.2c-1,0.2-2,0.4-2.9,0.4c-0.9,0.1-1.6,0.1-2.3,0.1
		c-2.8,0-5.2-0.4-7.2-1.1c-2-0.7-3.8-1.7-5.2-2.8s-2.6-2.3-3.4-3.6c-0.9-1.3-1.5-2.5-1.8-3.5c-0.5-1.5-0.9-3-1-4.5
		c-0.1-1.5-0.2-3.2-0.3-5.1h14.6c0,1.5,0.1,2.9,0.3,4.1c0.2,1.2,0.9,2.1,1.9,2.6c0.2,0.1,0.4,0.2,0.8,0.4c0.4,0.1,0.9,0.2,1.4,0.2
		c1.2,0,2.2-0.4,3-1.1c0.7-0.7,1.1-1.7,1.1-2.9c0-1.5-0.5-2.7-1.4-3.5c-0.9-0.8-2-1.5-3.2-2l-2.6-1c-1-0.4-2-0.9-3-1.3
		c-1-0.4-1.9-0.9-3-1.5c-0.6-0.3-1.5-0.9-2.5-1.6c-1-0.7-2-1.7-3-3c-1-1.2-1.8-2.7-2.6-4.4c-0.7-1.7-1.1-3.7-1.1-6
		c0-0.6,0-1.4,0.1-2.3c0.1-0.9,0.3-1.9,0.6-2.9c0.3-1,0.9-2.1,1.5-3.3c0.7-1.1,1.6-2.3,2.8-3.4c1.3-1.3,2.6-2.3,4-3
		c1.4-0.7,2.7-1.3,4-1.6c1.3-0.4,2.4-0.6,3.5-0.7c1-0.1,1.9-0.2,2.5-0.2c0.6,0,1.4,0,2.5,0.1c1.1,0.1,2.4,0.4,3.8,0.8
		c1.7,0.6,3.2,1.3,4.4,2.2c1.2,0.9,2.3,1.8,3.1,2.8c0.8,1,1.5,1.9,2,2.9c0.5,0.9,0.9,1.7,1.2,2.4c0.3,0.6,0.5,1.2,0.6,1.8
		c0.1,0.5,0.3,1.1,0.4,1.7c0.1,0.6,0.2,1.2,0.2,1.8c0,0.6,0.1,1.4,0.2,2.4h-14.2c0-1,0-1.6,0-2c0-0.3-0.1-0.7-0.2-0.9
		c-0.2-0.7-0.6-1.3-1.3-1.8c-0.6-0.5-1.4-0.7-2.2-0.7c-1.1,0-2,0.3-2.7,1c-0.7,0.7-1,1.6-1,2.7c0,0.5,0.1,1,0.2,1.3
		c0.2,0.3,0.3,0.6,0.4,0.7c0.5,0.7,1.3,1.4,2.4,1.9c0.6,0.3,1.2,0.6,2,0.9c0.7,0.3,1.5,0.7,2.4,1.1c2.4,1.1,4.3,2.1,5.8,3
		c1.5,0.9,2.6,1.7,3.4,2.4c0.3,0.3,0.6,0.6,1.1,1c0.5,0.4,0.9,1,1.5,1.8c1.4,1.9,2.2,3.7,2.4,5.3c0.2,1.6,0.4,2.9,0.4,3.8
		c0,0.9-0.1,1.9-0.2,3c-0.1,1.2-0.5,2.4-1,3.8c-0.5,1.3-1.3,2.7-2.2,4.1C596.6,429.4,595.2,430.8,593.5,432.1z"/>
	<path class="st0" d="M641.1,413.8v21h-15.5v-20.8l-16.9-35.7h16.9l6.8,16.2c0.2,0.5,0.4,1.1,0.6,1.6c0.2,0.5,0.4,1.1,0.6,1.6
		c0.4-1,0.8-1.9,1.2-2.8c0.3-0.9,0.7-1.8,1.2-2.8l5.8-13.8h16.1L641.1,413.8z"/>
	<path class="st0" d="M657.8,434.9v-56.5h32.1V392h-16.5v7h16.5v14.3h-16.4v7.6H690v14H657.8z"/>
	<path class="st0" d="M730.3,434.9l-2.7-7.8h-17.7l-2.6,7.8h-17.3l22.6-56.8h12.4l22.9,56.8H730.3z M718.6,399.9l-4.6,14.5h9.4
		L718.6,399.9z"/>
	<path class="st0" d="M773.4,434.9l-10.2-16.1v16.1h-15.2v-56.5h21c2.6,0,5.1,0.2,7.4,0.6c2.3,0.4,4.6,1.4,6.8,3.2
		c0.7,0.5,1.5,1.2,2.3,2.1c0.8,0.9,1.6,2,2.3,3.2c0.7,1.3,1.3,2.8,1.8,4.5c0.5,1.7,0.7,3.7,0.7,5.9c0,2.2-0.3,4.2-0.8,5.9
		c-0.5,1.7-1.2,3.2-2,4.5c-0.8,1.3-1.6,2.3-2.5,3.2s-1.7,1.5-2.4,2c-0.6,0.4-1.2,0.8-1.8,1.1c-0.6,0.3-1.4,0.7-2.5,1.1l13.5,19.2
		H773.4z M774.2,394.7c-0.7-1.2-1.7-2-2.9-2.3c-1.2-0.3-2.5-0.4-4-0.4h-4v13.9h3.7c0.2-0.1,0.4-0.1,0.6-0.1c0.3,0,0.6,0,0.9-0.1
		c0.6,0,1.3-0.1,2.2-0.4c0.4-0.1,0.8-0.3,1.3-0.6c0.5-0.3,1-0.7,1.5-1.3c0.5-0.6,0.9-1.3,1.2-2.1c0.3-0.8,0.5-1.8,0.5-2.9
		c0-0.6-0.1-1.3-0.2-1.9C774.9,395.9,774.6,395.3,774.2,394.7z"/>
	<path class="st0" d="M807.6,434.9v-56.5H822v56.5H807.6z"/>
	<path class="st0" d="M859.1,434.9l-19.7-28.7v28.7h-15v-56.5h13.2c2.5,3.5,4.9,7,7.2,10.3c2.4,3.4,4.8,6.9,7.2,10.5l5.3,8.1v-28.9
		h15.1v56.5H859.1z"/>
	<path class="st0" d="M929.2,420.5c-1.4,2.5-2.9,4.6-4.6,6.4c-1.7,1.7-3.4,3.2-5.1,4.3c-1.7,1.1-3.3,2-4.9,2.6
		c-1.5,0.6-2.8,1-3.8,1.2c-0.6,0.1-1.5,0.3-2.7,0.5c-1.2,0.2-2.7,0.3-4.3,0.3c-3.6,0-6.7-0.5-9.5-1.4c-2.8-1-5.2-2.1-7.2-3.5
		c-2-1.4-3.7-2.8-5-4.2c-1.3-1.5-2.3-2.7-3-3.8c-0.5-0.6-1-1.5-1.6-2.4c-0.6-1-1.1-2.1-1.6-3.5c-0.5-1.3-0.9-2.8-1.2-4.5
		c-0.3-1.7-0.5-3.5-0.5-5.5c0-3.8,0.5-7.2,1.6-10.2c1.1-2.9,2.4-5.5,4-7.6c1.5-2.1,3.2-3.9,4.8-5.2s3.1-2.3,4.2-3
		c0.6-0.4,1.3-0.8,2.3-1.2c0.9-0.4,2-0.8,3.2-1.2c1.2-0.4,2.6-0.7,4.1-1c1.5-0.3,3.2-0.4,5.1-0.4c0.9,0,2,0.1,3.4,0.2
		c1.4,0.1,2.9,0.4,4.5,0.9s3.4,1.1,5.2,2c1.8,0.9,3.7,2.1,5.6,3.6c1.8,1.4,3.2,2.9,4.4,4.4c1.1,1.5,2.1,3,2.9,4.4
		c0.8,1.4,1.4,2.8,1.8,4.1c0.4,1.3,0.8,2.5,1.1,3.5h-16.6c-0.3-0.5-0.5-0.9-0.8-1.3s-0.5-0.7-0.7-1c-1.2-1.7-2.8-3-4.6-3.9
		c-1.8-0.9-3.8-1.3-6-1.3c-1.4,0-2.6,0.1-3.5,0.4c-1,0.3-1.7,0.5-2.2,0.7c-2.6,1.1-4.6,2.8-6.1,5.1c-1.5,2.3-2.3,4.8-2.2,7.6
		c0,1.3,0.1,2.3,0.4,3.2c0.3,0.9,0.5,1.5,0.6,1.9c0.3,0.6,0.7,1.4,1.3,2.4c0.6,1,1.4,1.9,2.5,2.8c1,0.9,2.3,1.7,3.8,2.4
		c1.5,0.7,3.3,1,5.3,1c1.1,0,2-0.1,2.8-0.2c0.8-0.2,1.4-0.3,1.8-0.5c0.4-0.1,1.2-0.5,2.4-1.2c1.2-0.7,2.3-1.6,3.3-2.8
		c0.2-0.2,0.3-0.3,0.4-0.5c0.1-0.2,0.2-0.3,0.3-0.5l1.2-1.8h16.6c-0.7,2.2-1.3,3.9-1.8,4.9C930,418.7,929.6,419.7,929.2,420.5z"/>
	<path class="st0" d="M959.2,434.9L949,418.8v16.1h-15.2v-56.5h21c2.6,0,5.1,0.2,7.4,0.6c2.3,0.4,4.6,1.4,6.8,3.2
		c0.7,0.5,1.5,1.2,2.3,2.1c0.8,0.9,1.6,2,2.3,3.2c0.7,1.3,1.3,2.8,1.8,4.5c0.5,1.7,0.7,3.7,0.7,5.9c0,2.2-0.3,4.2-0.8,5.9
		c-0.5,1.7-1.2,3.2-2,4.5c-0.8,1.3-1.6,2.3-2.5,3.2s-1.7,1.5-2.4,2c-0.6,0.4-1.2,0.8-1.8,1.1c-0.6,0.3-1.4,0.7-2.5,1.1l13.5,19.2
		H959.2z M960,394.7c-0.7-1.2-1.7-2-2.9-2.3c-1.2-0.3-2.5-0.4-4-0.4h-4v13.9h3.7c0.2-0.1,0.4-0.1,0.6-0.1c0.3,0,0.6,0,0.9-0.1
		c0.6,0,1.3-0.1,2.2-0.4c0.4-0.1,0.8-0.3,1.3-0.6c0.5-0.3,1-0.7,1.5-1.3c0.5-0.6,0.9-1.3,1.2-2.1c0.3-0.8,0.5-1.8,0.5-2.9
		c0-0.6-0.1-1.3-0.2-1.9C960.6,395.9,960.4,395.3,960,394.7z"/>
	<path class="st0" d="M977.7,434.9v-56.5h32.1V392h-16.5v7h16.5v14.3h-16.4v7.6h16.6v14H977.7z"/>
	<path class="st0" d="M1062.9,406.6c0,3.9-0.7,7.6-2.2,11c-1.5,3.4-3.5,6.4-6.1,9c-2.6,2.6-5.6,4.6-9.1,6c-3.4,1.5-7.1,2.2-11,2.2
		h-22v-56.5h22.2c3.9,0,7.6,0.7,11,2.2c3.4,1.5,6.5,3.5,9,6c2.6,2.6,4.6,5.6,6.1,9C1062.1,399.1,1062.9,402.7,1062.9,406.6z
		 M1047.3,406.5c0-2-0.4-3.8-1.1-5.6c-0.7-1.7-1.7-3.3-3-4.6c-1.3-1.3-2.7-2.3-4.4-3.1c-1.7-0.8-3.5-1.2-5.4-1.2h-5.8v28.7h5.8
		c1.9,0,3.7-0.4,5.4-1.1c1.7-0.7,3.1-1.8,4.4-3.1c1.3-1.3,2.2-2.8,3-4.6C1047,410.4,1047.3,408.5,1047.3,406.5z"/>
	<path class="st0" d="M1064.4,434.9v-56.5h14.4v56.5H1064.4z"/>
	<path class="st0" d="M1114.2,431c-2.3,1.8-4.7,2.9-7.2,3.3c-2.5,0.4-5,0.6-7.6,0.6h-18.3v-56.5h20.9c2.1,0,4.2,0.2,6.2,0.5
		c2,0.3,3.8,1.3,5.5,3c0.4,0.4,0.9,1,1.4,1.7c0.5,0.7,1,1.5,1.4,2.4c0.5,0.9,0.8,2,1.1,3.2c0.3,1.2,0.4,2.6,0.4,4c0,0.5,0,1.2-0.1,2
		c-0.1,0.8-0.2,1.7-0.6,2.7c-0.3,1-0.8,1.9-1.4,2.9c-0.6,1-1.5,1.9-2.7,2.7l-0.8,0.6c0.9,0.4,1.5,0.8,2,1.1c0.5,0.3,1,0.6,1.4,0.9
		c0.5,0.4,1,0.9,1.6,1.5c0.6,0.6,1.1,1.4,1.6,2.2c0.5,0.9,0.9,1.9,1.2,3.1c0.3,1.2,0.5,2.5,0.5,4c0,0.6-0.1,1.5-0.2,2.6
		c-0.1,1.1-0.4,2.3-0.8,3.6c-0.5,1.3-1.1,2.7-2,4S1115.7,429.9,1114.2,431z M1101.6,391.3c-0.3-0.1-0.5-0.2-0.7-0.2
		c-0.2,0-0.6,0-1.1,0h-3.7v8.6h3.8c0.1,0,0.4,0,0.8-0.1s0.8-0.1,1.1-0.2c0.9-0.3,1.5-0.8,1.9-1.5c0.4-0.7,0.6-1.6,0.6-2.6
		c0-1-0.2-1.8-0.6-2.5C1103.2,392.1,1102.5,391.6,1101.6,391.3z M1105.2,413.7c-0.6-1-1.3-1.6-2.3-1.8c-0.9-0.3-2-0.4-3.1-0.4h-3.8
		v10.2h3.6c0.4,0,0.9,0,1.4-0.1c0.5-0.1,1-0.1,1.4-0.2c0.8-0.2,1.4-0.5,1.8-1c0.4-0.4,0.8-0.9,1-1.4c0.2-0.5,0.4-1,0.4-1.4
		c0.1-0.5,0.1-0.8,0.1-1.1c0-0.3,0-0.6,0-1.1C1105.8,414.8,1105.6,414.3,1105.2,413.7z"/>
	<path class="st0" d="M1122.4,434.9v-56.5h15.3v42.2h16.2v14.2H1122.4z"/>
	<path class="st0" d="M1172.4,413.8v21h-15.5v-20.8l-16.9-35.7h16.9l6.8,16.2c0.2,0.5,0.4,1.1,0.6,1.6c0.2,0.5,0.4,1.1,0.6,1.6
		c0.4-1,0.8-1.9,1.2-2.8c0.3-0.9,0.7-1.8,1.2-2.8l5.8-13.8h16.1L1172.4,413.8z"/>
	<path class="st0" d="M1235,432.1c-1.3,1-2.5,1.7-3.7,2.2c-1.2,0.5-2.3,0.9-3.4,1.2c-1,0.2-2,0.4-2.9,0.4c-0.9,0.1-1.6,0.1-2.3,0.1
		c-2.8,0-5.2-0.4-7.2-1.1s-3.8-1.7-5.2-2.8s-2.6-2.3-3.4-3.6c-0.9-1.3-1.5-2.5-1.8-3.5c-0.5-1.5-0.9-3-1-4.5
		c-0.1-1.5-0.2-3.2-0.3-5.1h14.6c0,1.5,0.1,2.9,0.3,4.1c0.2,1.2,0.9,2.1,1.9,2.6c0.2,0.1,0.4,0.2,0.8,0.4c0.4,0.1,0.9,0.2,1.4,0.2
		c1.2,0,2.2-0.4,3-1.1c0.7-0.7,1.1-1.7,1.1-2.9c0-1.5-0.5-2.7-1.4-3.5c-0.9-0.8-2-1.5-3.2-2l-2.6-1c-1-0.4-2-0.9-3-1.3
		c-1-0.4-1.9-0.9-3-1.5c-0.6-0.3-1.5-0.9-2.5-1.6c-1-0.7-2-1.7-3-3c-1-1.2-1.8-2.7-2.6-4.4c-0.7-1.7-1.1-3.7-1.1-6
		c0-0.6,0-1.4,0.1-2.3c0.1-0.9,0.3-1.9,0.6-2.9c0.3-1,0.9-2.1,1.5-3.3c0.7-1.1,1.6-2.3,2.8-3.4c1.3-1.3,2.6-2.3,4-3
		c1.4-0.7,2.7-1.3,4-1.6c1.3-0.4,2.4-0.6,3.5-0.7c1-0.1,1.9-0.2,2.5-0.2c0.6,0,1.4,0,2.5,0.1c1.1,0.1,2.4,0.4,3.8,0.8
		c1.7,0.6,3.2,1.3,4.4,2.2c1.2,0.9,2.3,1.8,3.1,2.8c0.8,1,1.5,1.9,2,2.9c0.5,0.9,0.9,1.7,1.2,2.4s0.5,1.2,0.6,1.8
		c0.1,0.5,0.3,1.1,0.4,1.7c0.1,0.6,0.2,1.2,0.2,1.8c0,0.6,0.1,1.4,0.2,2.4h-14.2c0-1,0-1.6,0-2c0-0.3-0.1-0.7-0.2-0.9
		c-0.2-0.7-0.6-1.3-1.3-1.8c-0.6-0.5-1.4-0.7-2.2-0.7c-1.1,0-2,0.3-2.7,1c-0.7,0.7-1,1.6-1,2.7c0,0.5,0.1,1,0.2,1.3
		c0.2,0.3,0.3,0.6,0.4,0.7c0.5,0.7,1.3,1.4,2.4,1.9c0.6,0.3,1.2,0.6,2,0.9c0.7,0.3,1.5,0.7,2.4,1.1c2.4,1.1,4.3,2.1,5.8,3
		c1.5,0.9,2.6,1.7,3.4,2.4c0.3,0.3,0.6,0.6,1.1,1c0.5,0.4,0.9,1,1.5,1.8c1.4,1.9,2.2,3.7,2.4,5.3c0.2,1.6,0.4,2.9,0.4,3.8
		c0,0.9-0.1,1.9-0.2,3c-0.1,1.2-0.5,2.4-1,3.8c-0.5,1.3-1.3,2.7-2.2,4.1C1238.1,429.4,1236.7,430.8,1235,432.1z"/>
	<path class="st0" d="M1272.9,416.2c-1.1,0.4-2.3,0.7-3.4,0.8c-1.2,0.1-2.9,0.2-5.2,0.2h-4.6v17.6h-15.5v-56.5h18.8
		c1.7,0,3.3,0,4.9,0.1c1.6,0.1,3.3,0.4,5,0.9c2.1,0.6,3.9,1.6,5.4,2.8c1.5,1.2,2.8,2.6,3.8,4.2c1,1.6,1.8,3.3,2.3,5.2
		c0.5,1.9,0.8,3.9,0.8,6c0,2-0.3,4-0.8,6c-0.5,1.9-1.3,3.7-2.3,5.4c-1,1.6-2.3,3.1-3.8,4.4C1276.7,414.5,1274.9,415.5,1272.9,416.2z
		 M1266.4,392.5c-0.5-0.2-1-0.3-1.4-0.3c-0.4,0-0.9,0-1.5,0h-3.7v11.1h3.5c0.8,0,1.4,0,1.8-0.1c0.4-0.1,0.8-0.2,1.2-0.3
		c0.3-0.1,0.7-0.3,1-0.5c0.4-0.2,0.7-0.5,1.1-0.9c0.4-0.4,0.7-0.9,0.9-1.5c0.2-0.6,0.4-1.3,0.4-2.2c0-1.2-0.3-2.3-0.8-3.2
		S1267.5,392.9,1266.4,392.5z"/>
	<path class="st0" d="M1286.7,434.9v-56.5h32.1V392h-16.5v7h16.5v14.3h-16.4v7.6h16.6v14H1286.7z"/>
	<path class="st0" d="M1375.7,420.5c-1.4,2.5-2.9,4.6-4.6,6.4c-1.7,1.7-3.4,3.2-5.1,4.3c-1.7,1.1-3.3,2-4.9,2.6
		c-1.5,0.6-2.8,1-3.8,1.2c-0.6,0.1-1.5,0.3-2.7,0.5c-1.2,0.2-2.7,0.3-4.3,0.3c-3.6,0-6.7-0.5-9.5-1.4c-2.8-1-5.2-2.1-7.2-3.5
		c-2-1.4-3.7-2.8-5-4.2c-1.3-1.5-2.3-2.7-3-3.8c-0.5-0.6-1-1.5-1.6-2.4c-0.6-1-1.1-2.1-1.6-3.5c-0.5-1.3-0.9-2.8-1.2-4.5
		c-0.3-1.7-0.5-3.5-0.5-5.5c0-3.8,0.5-7.2,1.6-10.2c1.1-2.9,2.4-5.5,4-7.6c1.5-2.1,3.2-3.9,4.8-5.2s3.1-2.3,4.2-3
		c0.6-0.4,1.3-0.8,2.3-1.2c0.9-0.4,2-0.8,3.2-1.2c1.2-0.4,2.6-0.7,4.1-1c1.5-0.3,3.2-0.4,5.1-0.4c0.9,0,2,0.1,3.4,0.2
		c1.4,0.1,2.9,0.4,4.5,0.9s3.4,1.1,5.2,2c1.8,0.9,3.7,2.1,5.6,3.6c1.8,1.4,3.2,2.9,4.4,4.4c1.1,1.5,2.1,3,2.9,4.4
		c0.8,1.4,1.4,2.8,1.8,4.1c0.4,1.3,0.8,2.5,1.1,3.5h-16.6c-0.3-0.5-0.5-0.9-0.8-1.3s-0.5-0.7-0.7-1c-1.2-1.7-2.8-3-4.6-3.9
		c-1.8-0.9-3.8-1.3-6-1.3c-1.4,0-2.6,0.1-3.5,0.4c-1,0.3-1.7,0.5-2.2,0.7c-2.6,1.1-4.6,2.8-6.1,5.1c-1.5,2.3-2.3,4.8-2.2,7.6
		c0,1.3,0.1,2.3,0.4,3.2c0.3,0.9,0.5,1.5,0.6,1.9c0.3,0.6,0.7,1.4,1.3,2.4c0.6,1,1.4,1.9,2.5,2.8c1,0.9,2.3,1.7,3.8,2.4
		c1.5,0.7,3.3,1,5.3,1c1.1,0,2-0.1,2.8-0.2c0.8-0.2,1.4-0.3,1.8-0.5c0.4-0.1,1.2-0.5,2.4-1.2c1.2-0.7,2.3-1.6,3.3-2.8
		c0.2-0.2,0.3-0.3,0.4-0.5c0.1-0.2,0.2-0.3,0.3-0.5l1.2-1.8h16.6c-0.7,2.2-1.3,3.9-1.8,4.9C1376.6,418.7,1376.2,419.7,1375.7,420.5z
		"/>
	<path class="st0" d="M1380.4,434.9v-56.5h14.4v56.5H1380.4z"/>
	<path class="st0" d="M1435.1,434.9l-2.7-7.8h-17.7l-2.6,7.8h-17.3l22.6-56.8h12.4l22.9,56.8H1435.1z M1423.3,399.9l-4.6,14.5h9.4
		L1423.3,399.9z"/>
	<path class="st0" d="M1452.9,434.9v-56.5h15.3v42.2h16.2v14.2H1452.9z"/>
</g>
<g>
	<g>
		<g>
			<path class="st0" d="M677.3,30.8c0,15.4-12.6,27.9-28.1,27.9l-19.8,0V2.8l19.9,0C664.8,2.8,677.3,15.3,677.3,30.8 M662.3,30.7
				c0-8.5-6.6-14.6-14.8-14.7l-3.3,0v29.5l3.3,0C655.6,45.4,662.3,39.2,662.3,30.7"/>
			<path class="st0" d="M391.7,30.7c0,16.3-13.3,29.5-29.6,29.5l-0.8,0V44.8h1.4c7.6,0,13.7-6.3,13.7-14.1c0-7.8-6.1-14.1-13.7-14.2
				l-1.4,0V1.2h0.9C378.5,1.2,391.7,14.4,391.7,30.7"/>
			<polygon class="st0" points="425.6,15.2 408.6,15.2 408.6,23.6 425.6,23.6 425.6,36.8 408.6,36.8 408.6,46 425.7,46 425.7,58.7 
				393.8,58.7 393.8,2.8 425.6,2.8 			"/>
			<polygon class="st0" points="461.4,15.4 443.2,15.4 443.2,24.4 461.3,24.4 461.3,37.4 443.2,37.4 443.2,58.7 429,58.7 429,2.8 
				461.4,2.8 			"/>
			<polygon class="st0" points="496.6,15.2 479.6,15.2 479.6,23.6 496.6,23.6 496.6,36.8 479.7,36.8 479.7,46 496.8,46 496.8,58.7 
				464.9,58.7 464.9,2.8 496.6,2.8 			"/>
			<path class="st0" d="M540.5,23.7c-0.4-0.8-0.9-1.4-1.3-2.1c-2.7-3.6-6.7-5.5-11.2-5.5c-2.9,0-5,0.8-6,1.3
				c-5.5,2.3-8.8,7.6-8.8,13.5c0.1,2.7,0.7,4.5,1.1,5.5c1.1,2.6,5.1,9.1,13.7,9.1c2.3,0,3.9-0.5,4.8-0.8c0.9-0.3,4-1.7,6.1-4.3
				c0.6-0.7,0.9-1.2,1.7-2.6h15.5c-1.2,3.6-1.9,5.2-2.8,6.9C547.9,54.5,539,58,535,58.9c-1.2,0.3-3.7,0.8-7,0.8
				c-14.2,0-21.7-8.7-24.5-12.8c-1.8-2.6-4.8-7.8-4.8-15.8c0-15.2,10-23,14.5-25.7c2.3-1.3,7.4-3.8,14.6-3.8
				c3.6,0,11.1,0.6,18.4,6.7c6.9,5.6,8.9,12.2,9.8,15.4H540.5z"/>
			<polygon class="st0" points="590.4,15.4 579.3,15.4 579.3,58.7 565.1,58.7 565.1,15.3 554.2,15.3 554.2,2.8 590.4,2.8 			"/>
			<polygon class="st0" points="625.6,15.2 608.6,15.2 608.6,23.6 625.6,23.6 625.6,36.8 608.7,36.8 608.7,46 625.8,46 625.8,58.7 
				593.9,58.7 593.9,2.8 625.6,2.8 			"/>
			<polygon class="st0" points="670.9,4.1 670.9,2.8 676,2.8 676,4.1 674.3,4.1 674.3,8.9 672.6,8.9 672.6,4.1 			"/>
			<path class="st0" d="M681.8,4.6L681.8,4.6l-1.2,4.3h-1.3l-1.2-4.3l-0.1-0.3c0,0.1,0,4.5,0,4.5h-1.4V2.8h2.2l1,3.6
				c0.1,0.2,0.1,0.5,0.1,0.9c0,0.1,0,0.2,0,0.3c0-0.2,0-0.4,0-0.6c0-0.3,0.1-0.4,0.1-0.6l1-3.6h2.2v6.1h-1.5V4.6z"/>
			<rect x="297.2" class="st1" width="61.2" height="61.2"/>
		</g>
		<path class="st0" d="M748.3,44.6c-1.4,2.5-2.9,4.6-4.7,6.4c-1.7,1.7-3.4,3.2-5.1,4.3c-1.7,1.1-3.3,2-4.9,2.6
			c-1.6,0.6-2.8,1-3.8,1.2c-0.6,0.1-1.5,0.3-2.7,0.5c-1.2,0.2-2.7,0.3-4.3,0.3c-3.6,0-6.8-0.5-9.5-1.4c-2.8-1-5.2-2.1-7.2-3.5
			c-2-1.4-3.7-2.8-5.1-4.2c-1.3-1.5-2.4-2.7-3-3.8c-0.5-0.6-1-1.5-1.6-2.4c-0.6-1-1.1-2.2-1.6-3.5c-0.5-1.3-0.9-2.8-1.2-4.5
			c-0.3-1.7-0.5-3.5-0.5-5.5c0-3.8,0.5-7.2,1.6-10.2c1.1-2.9,2.4-5.5,4-7.6c1.5-2.1,3.2-3.9,4.9-5.2c1.7-1.3,3.1-2.4,4.2-3
			c0.6-0.4,1.3-0.8,2.3-1.2c0.9-0.4,2-0.8,3.2-1.2c1.2-0.4,2.6-0.7,4.1-1c1.5-0.3,3.2-0.4,5.1-0.4c0.9,0,2,0.1,3.4,0.2
			c1.4,0.1,2.9,0.4,4.5,0.9c1.6,0.5,3.4,1.1,5.2,2c1.8,0.9,3.7,2.1,5.6,3.6c1.8,1.4,3.2,2.9,4.4,4.4c1.2,1.5,2.1,3,2.9,4.4
			c0.6,1.3,1.2,2.7,1.8,4.2c0.2,0.5,0.3,0.9,0.5,1.4s0.3,0.9,0.4,1.3h-15.8c-0.3-0.4-0.5-0.8-0.7-1.2c-0.2-0.3-0.4-0.7-0.6-0.9
			c-1.4-1.9-3.1-3.3-5-4.2c-2-0.9-4.1-1.4-6.4-1.4c-1.5,0-2.8,0.1-3.8,0.4c-1,0.3-1.8,0.5-2.3,0.8c-2.7,1.2-4.9,3.1-6.5,5.5
			c-1.6,2.4-2.4,5.1-2.4,8.1c0,1.4,0.1,2.5,0.4,3.4c0.3,0.9,0.5,1.6,0.7,2.1c0.3,0.6,0.7,1.5,1.4,2.5c0.6,1,1.5,2.1,2.6,3
			c1.1,1,2.5,1.8,4.1,2.5c1.6,0.7,3.5,1,5.7,1c1.2,0,2.2-0.1,3-0.3c0.8-0.2,1.4-0.4,1.9-0.5c0.5-0.1,1.3-0.5,2.6-1.2
			c1.3-0.7,2.4-1.7,3.5-3c0.2-0.2,0.3-0.3,0.4-0.5c0.1-0.2,0.3-0.4,0.4-0.5l1-1.6h15.7c-0.7,2-1.2,3.4-1.6,4.4
			C749.1,43,748.7,43.8,748.3,44.6z"/>
		<path class="st0" d="M778.8,58.9l-11.5-18.1v18.1h-14.4V2.3h21c2.7,0,5.2,0.2,7.5,0.6c2.3,0.4,4.6,1.4,6.8,3.1
			c0.7,0.5,1.4,1.2,2.2,2.1c0.8,0.9,1.6,2,2.3,3.2c0.7,1.3,1.3,2.8,1.8,4.4s0.7,3.6,0.7,5.8c0,2.2-0.3,4.2-0.8,5.9
			c-0.5,1.7-1.2,3.2-2,4.4c-0.8,1.3-1.6,2.3-2.5,3.1c-0.9,0.8-1.7,1.5-2.4,2c-0.6,0.4-1.2,0.8-1.8,1.1c-0.6,0.3-1.7,0.8-3.2,1.4
			l13.7,19.3H778.8z M779.8,18c-0.9-1.4-2-2.3-3.4-2.6c-1.4-0.3-2.8-0.4-4.4-0.4h-4.8v15.6h4.6c0.2-0.1,0.4-0.1,0.6-0.1
			c0.4,0,0.7,0,0.9-0.1c0.4-0.1,0.8-0.1,1.2-0.2c0.4-0.1,0.8-0.1,1.2-0.2c0.5-0.2,1-0.4,1.6-0.8c0.6-0.3,1.1-0.8,1.6-1.4
			c0.5-0.6,0.9-1.4,1.3-2.3c0.4-0.9,0.6-2,0.6-3.2c0-0.7-0.1-1.5-0.2-2.2C780.6,19.4,780.3,18.7,779.8,18z"/>
		<path class="st0" d="M848.6,49.5c-2.7,3.4-6.1,5.9-10.1,7.7c-4,1.8-8.1,2.7-12.5,2.7c-3.8,0-7.6-0.8-11.3-2.3
			c-3.7-1.5-6.9-3.6-9.6-6.4c-2.7-2.7-4.9-5.9-6.4-9.6c-1.5-3.7-2.3-7.4-2.3-11.3c0-0.9,0.1-2,0.2-3.4c0.1-1.4,0.4-3,0.9-4.7
			c0.5-1.7,1.2-3.6,2.1-5.5c0.9-1.9,2.2-3.8,3.8-5.7c1.3-1.6,2.9-3,4.6-4.3c1.7-1.3,3.6-2.4,5.5-3.2c1.9-0.9,3.9-1.6,6.1-2
			c2.1-0.5,4.2-0.7,6.3-0.7c2.4,0,4.6,0.3,6.7,0.8c2.1,0.5,3.9,1.2,5.5,1.9c1.6,0.7,3,1.5,4.2,2.3c1.2,0.8,2.1,1.5,2.7,2
			c3.3,2.8,5.8,6.1,7.6,10.1c1.8,4,2.7,8.1,2.7,12.4c0,0.9-0.1,2-0.2,3.4c-0.1,1.4-0.4,2.9-0.9,4.6c-0.5,1.7-1.2,3.5-2.1,5.4
			C851.3,45.8,850.1,47.7,848.6,49.5z M840.9,24.9c-0.6-1.5-1.4-3-2.4-4.2c-1-1.3-2.1-2.3-3.4-3.2c-1.3-0.9-2.7-1.6-4.3-2.1
			c-1.6-0.5-3.2-0.7-4.8-0.7c-0.5,0-1.1,0.1-2,0.2c-0.9,0.1-1.8,0.3-2.8,0.6c-1,0.3-2,0.8-3.2,1.4c-1.1,0.6-2.2,1.4-3.2,2.3
			c-1.6,1.5-2.7,3.2-3.5,5.2c-0.8,2-1.2,4-1.2,6.2c0,0.5,0,1.1,0.1,2c0.1,0.9,0.3,1.8,0.6,2.8c0.3,1,0.8,2.1,1.4,3.2
			c0.6,1.1,1.5,2.2,2.5,3.2c1.4,1.5,3.2,2.6,5.2,3.4c2,0.8,4,1.2,6.1,1.2c1.5,0,3-0.2,4.2-0.6c1.3-0.4,2.4-0.8,3.3-1.4
			c1-0.5,1.8-1.1,2.4-1.6c0.7-0.6,1.2-1,1.6-1.4c0.4-0.4,0.8-0.9,1.3-1.5c0.5-0.6,1-1.4,1.4-2.4c0.4-0.9,0.8-2,1.1-3.1
			c0.3-1.1,0.5-2.4,0.5-3.9C841.9,28.6,841.6,26.7,840.9,24.9z"/>
		<path class="st0" d="M889.8,58.9L887,51h-19l-2.6,7.9h-16.3L871.8,2h11.8l22.9,56.9H889.8z M877.3,21.6l-5.6,17.6h11.5L877.3,21.6
			z"/>
		<path class="st0" d="M923.1,15.2v43.8h-14.4V15.1h-11.1V2.3h36.7v12.8H923.1z"/>
		<path class="st0" d="M936.8,58.9V2.3h14.4v56.6H936.8z"/>
		<path class="st0" d="M992.4,58.9l-2.8-7.9h-19l-2.6,7.9h-16.3L974.3,2h11.8l22.9,56.9H992.4z M979.9,21.6l-5.6,17.6h11.5
			L979.9,21.6z"/>
	</g>
	<path class="st0" d="M1025.7,58.9V48.3c1.9-1.8,3.8-3.5,5.5-5.1c1.8-1.6,3.5-3.3,5.2-4.9l4.6-4.4c1.5-1.5,2.9-2.9,4-4.1
		c1.1-1.3,2-2.4,2.7-3.5c0.7-1.1,1.3-2.2,1.6-3.2c0.3-1.1,0.5-2.2,0.5-3.3c0-0.3,0-0.6,0-0.8c0-0.2-0.1-0.5-0.1-0.7
		c-0.1-0.2-0.1-0.3-0.1-0.4c0-0.1-0.1-0.3-0.1-0.5c-0.4-1-1-1.8-1.8-2.5c-0.8-0.6-1.8-1-2.9-1c-1,0-1.8,0.3-2.6,0.8
		c-1.1,0.7-1.8,1.7-2.2,2.8c-0.4,1.1-0.6,2.3-0.6,3.6c-0.1,0.3-0.1,0.7-0.1,1c0,0.3,0,0.8,0,1.2l-14.1-0.1v-2.4c0-0.5,0-1.1,0.1-1.7
		c0.1-0.6,0.2-1.2,0.3-1.8c0.3-1.3,0.7-2.7,1.2-4.2c0.6-1.4,1.4-2.9,2.5-4.2c0.6-0.8,1.4-1.6,2.4-2.5c0.9-0.9,2.1-1.7,3.4-2.4
		c1.4-0.7,2.9-1.4,4.7-1.8c1.8-0.5,3.9-0.7,6.3-0.7c0.5,0,1.1,0,2,0.1c0.8,0.1,1.8,0.2,2.8,0.4c1,0.2,2.2,0.5,3.3,0.9
		c1.2,0.4,2.4,1,3.6,1.8c0.6,0.5,1.3,1.1,2.1,1.8c0.8,0.7,1.6,1.7,2.4,2.8c0.8,1.1,1.4,2.5,2,4c0.5,1.5,0.8,3.3,0.8,5.3v1.1
		c0,0.2,0,0.4,0,0.6c0,0.2-0.1,0.5-0.1,0.7c-0.1,0.6-0.2,1.2-0.3,1.8c-0.1,0.6-0.3,1.3-0.6,2c-0.5,1.3-1.1,2.5-1.9,3.8
		c-0.8,1.2-1.6,2.4-2.5,3.6c-0.9,1.2-1.9,2.3-2.8,3.4c-1,1.1-2,2.2-2.9,3.2l-6.9,7.1h18.7v13.2H1025.7z"/>
	<path class="st0" d="M1117.4,50.2c-2.8,3.2-6.1,5.7-10.1,7.4c-3.9,1.7-8,2.6-12.2,2.6c-3.8,0-7.6-0.8-11.3-2.3
		c-3.7-1.5-6.9-3.6-9.6-6.4c-2.7-2.7-4.9-5.9-6.4-9.6c-1.5-3.7-2.3-7.4-2.3-11.3c0-3.7,0.7-7.2,2-10.6c1.3-3.4,3.2-6.5,5.6-9.2
		c2.8-3.1,6.1-5.5,9.9-7.2c3.8-1.7,7.9-2.6,12-2.6c0.9,0,2,0.1,3.4,0.2c1.4,0.1,3,0.5,4.7,1c1.7,0.5,3.5,1.2,5.5,2.2
		c1.9,0.9,3.8,2.2,5.7,3.8c3.3,2.8,5.8,6.1,7.6,10.1c1.8,4,2.7,8.1,2.7,12.4c0,3.5-0.6,7-1.9,10.3
		C1121.7,44.4,1119.9,47.5,1117.4,50.2z M1107.4,20.6c-1.1-1.3-2.2-2.3-3.4-3c-1.2-0.7-2.3-1.3-3.4-1.7c-1.1-0.4-2.2-0.7-3.1-0.8
		c-1-0.1-1.7-0.2-2.2-0.2c-2.2,0-4.4,0.5-6.5,1.4c-2.8,1.2-5,3.1-6.7,5.7c-1.7,2.6-2.6,5.5-2.6,8.6c0,0.5,0,1.1,0.1,2
		c0.1,0.9,0.3,1.8,0.6,2.8c0.3,1,0.8,2,1.4,3.2c0.6,1.1,1.5,2.2,2.5,3.3c1.5,1.5,3.3,2.6,5.2,3.4c1.9,0.8,3.9,1.2,5.9,1.2
		c0.5,0,1.1,0,1.8-0.1c0.7-0.1,1.5-0.2,2.4-0.5c0.9-0.2,1.9-0.6,2.9-1.1c1-0.5,2-1.2,3-2c1.3-1,2.3-2.1,3-3.3
		c0.7-1.2,1.3-2.4,1.7-3.5c0.4-1.1,0.7-2.2,0.8-3.1c0.1-0.9,0.2-1.7,0.2-2.3C1111,26.8,1109.8,23.5,1107.4,20.6z"/>
	<path class="st0" d="M1128.9,58.9V13.1h-6.5V2.3h20.7v56.6H1128.9z"/>
	<path class="st0" d="M1179,56.7c-1.1,0.7-2.7,1.5-4.8,2.3c-2.1,0.8-4.8,1.2-8.1,1.2c-0.7,0-1.9-0.1-3.4-0.2c-1.5-0.1-3.2-0.5-5-1.2
		c-1.8-0.6-3.4-1.5-4.9-2.6c-1.5-1.1-2.8-2.4-3.9-3.8s-1.9-3.1-2.6-4.8c-0.6-1.7-0.9-3.6-0.9-5.5c0-1.8,0.3-3.4,0.8-4.9
		c0.5-1.4,1.1-2.6,1.8-3.7s1.4-1.9,2.2-2.6c0.7-0.7,1.4-1.2,1.8-1.5l2-1.3c-1-0.7-1.7-1.4-2.3-1.9c-0.6-0.5-1-1-1.4-1.5
		c-0.6-0.8-1.1-1.8-1.4-2.9c-0.4-1.1-0.6-2.6-0.6-4.3c0-1.7,0.2-3.1,0.6-4.2c0.4-1.1,0.7-1.9,1-2.5c0.5-0.9,1.1-1.8,2-3
		c0.8-1.1,1.9-2.2,3.3-3.1c1.4-1,3-1.8,4.9-2.4c1.9-0.7,4.1-1,6.7-1c0.5,0,1.1,0,1.8,0.1c0.7,0.1,1.6,0.2,2.5,0.4
		c0.9,0.2,1.9,0.5,3,0.9c1.1,0.4,2.1,1,3.2,1.8c1.9,1.4,3.4,3.1,4.7,5.3c1.3,2.1,1.9,4.4,1.9,6.9c0,2.2-0.4,4.1-1.1,5.7
		c-0.7,1.5-1.3,2.6-1.9,3.2c-0.3,0.4-0.6,0.7-1,1c-0.4,0.3-0.9,0.8-1.7,1.4c0.7,0.4,1.3,0.7,1.6,0.9c0.3,0.2,0.5,0.3,0.7,0.5
		c0.2,0.1,0.3,0.2,0.5,0.4c0.2,0.1,0.3,0.3,0.6,0.4c1.2,1,2.2,2,2.9,3.2c0.7,1.2,1.3,2.4,1.6,3.5c0.4,1.1,0.6,2.2,0.7,3.1
		c0.1,0.9,0.2,1.7,0.2,2.2c0,2.1-0.3,3.9-1,5.6c-0.7,1.6-1.4,3.1-2.3,4.3c-0.9,1.2-1.8,2.2-2.7,3C1180.3,55.7,1179.5,56.3,1179,56.7
		z M1166.4,34.5c-1,0-1.8,0.2-2.6,0.5c-0.8,0.3-1.5,0.8-2.1,1.4c-0.6,0.6-1.1,1.3-1.4,2.1c-0.3,0.8-0.5,1.7-0.5,2.6
		c0.1,0.4,0.2,0.8,0.2,1.1c0,0.3,0.1,0.6,0.2,0.8c0.3,1.1,0.8,2,1.7,2.8c0.9,0.9,1.7,1.4,2.6,1.6c0.9,0.2,1.6,0.3,2,0.3
		c1.9,0,3.4-0.7,4.7-2c1.3-1.3,1.9-2.9,1.9-4.7c0-1-0.2-1.8-0.5-2.6c-0.3-0.8-0.8-1.5-1.4-2.1c-0.6-0.6-1.3-1.1-2.1-1.4
		C1168.1,34.6,1167.3,34.5,1166.4,34.5z M1166.3,13.2c-1.5,0-2.7,0.5-3.7,1.5c-1,1-1.4,2.2-1.4,3.7c0,0.3,0.1,0.8,0.2,1.5
		c0.1,0.7,0.6,1.4,1.3,2c0.7,0.7,1.5,1.2,2.1,1.3c0.7,0.1,1.2,0.2,1.5,0.2c1.5,0,2.7-0.5,3.7-1.5c1-1,1.4-2.2,1.4-3.6
		c0-1.5-0.5-2.7-1.4-3.7C1169,13.7,1167.8,13.2,1166.3,13.2z"/>
</g>
</svg>
